solid OpenSCAD_Model
  facet normal -1 0 0
    outer loop
      vertex -4.3 -4.3 0
      vertex -4.3 4.3 5
      vertex -4.3 4.3 0
    endloop
  endfacet
  facet normal -1 -0 0
    outer loop
      vertex -4.3 4.3 5
      vertex -4.3 -4.3 0
      vertex -4.3 -4.3 5
    endloop
  endfacet
  facet normal 0 0 1
    outer loop
      vertex 4.3 4.3 5
      vertex 2.8 0 5
      vertex 4.3 -4.3 5
    endloop
  endfacet
  facet normal 0 0 1
    outer loop
      vertex 4.3 4.3 5
      vertex 2.77792 0.350932 5
      vertex 2.8 0 5
    endloop
  endfacet
  facet normal 0 0 1
    outer loop
      vertex 4.3 4.3 5
      vertex 2.71203 0.696331 5
      vertex 2.77792 0.350932 5
    endloop
  endfacet
  facet normal 0 0 1
    outer loop
      vertex 4.3 4.3 5
      vertex 2.60337 1.03075 5
      vertex 2.71203 0.696331 5
    endloop
  endfacet
  facet normal 0 0 1
    outer loop
      vertex 4.3 4.3 5
      vertex 2.45366 1.34891 5
      vertex 2.60337 1.03075 5
    endloop
  endfacet
  facet normal 0 0 1
    outer loop
      vertex 4.3 4.3 5
      vertex 2.26525 1.6458 5
      vertex 2.45366 1.34891 5
    endloop
  endfacet
  facet normal 0 0 1
    outer loop
      vertex 4.3 4.3 5
      vertex 2.04111 1.91673 5
      vertex 2.26525 1.6458 5
    endloop
  endfacet
  facet normal 0 0 1
    outer loop
      vertex 4.3 4.3 5
      vertex 1.78479 2.15744 5
      vertex 2.04111 1.91673 5
    endloop
  endfacet
  facet normal 0 0 1
    outer loop
      vertex 4.3 4.3 5
      vertex 1.50031 2.36412 5
      vertex 1.78479 2.15744 5
    endloop
  endfacet
  facet normal 0 0 1
    outer loop
      vertex 4.3 4.3 5
      vertex 1.19218 2.53351 5
      vertex 1.50031 2.36412 5
    endloop
  endfacet
  facet normal 0 0 1
    outer loop
      vertex 4.3 4.3 5
      vertex 0.865247 2.66296 5
      vertex 1.19218 2.53351 5
    endloop
  endfacet
  facet normal 0 0 1
    outer loop
      vertex 4.3 4.3 5
      vertex 0.524667 2.7504 5
      vertex 0.865247 2.66296 5
    endloop
  endfacet
  facet normal 0 0 1
    outer loop
      vertex 4.3 4.3 5
      vertex 0.175813 2.79447 5
      vertex 0.524667 2.7504 5
    endloop
  endfacet
  facet normal 0 0 1
    outer loop
      vertex 4.3 4.3 5
      vertex -0.175813 2.79447 5
      vertex 0.175813 2.79447 5
    endloop
  endfacet
  facet normal -0 0 1
    outer loop
      vertex -4.3 4.3 5
      vertex -0.175813 2.79447 5
      vertex 4.3 4.3 5
    endloop
  endfacet
  facet normal 0 0 1
    outer loop
      vertex -0.175813 2.79447 5
      vertex -4.3 4.3 5
      vertex -0.524667 2.7504 5
    endloop
  endfacet
  facet normal 0 0 1
    outer loop
      vertex -2.77792 0.350932 5
      vertex -4.3 4.3 5
      vertex -2.8 0 5
    endloop
  endfacet
  facet normal 0 0 1
    outer loop
      vertex -2.71203 0.696331 5
      vertex -4.3 4.3 5
      vertex -2.77792 0.350932 5
    endloop
  endfacet
  facet normal 0 0 1
    outer loop
      vertex -2.60337 1.03075 5
      vertex -4.3 4.3 5
      vertex -2.71203 0.696331 5
    endloop
  endfacet
  facet normal 0 0 1
    outer loop
      vertex -2.45366 1.34891 5
      vertex -4.3 4.3 5
      vertex -2.60337 1.03075 5
    endloop
  endfacet
  facet normal 0 0 1
    outer loop
      vertex -2.26525 1.6458 5
      vertex -4.3 4.3 5
      vertex -2.45366 1.34891 5
    endloop
  endfacet
  facet normal 0 0 1
    outer loop
      vertex -2.04111 1.91673 5
      vertex -4.3 4.3 5
      vertex -2.26525 1.6458 5
    endloop
  endfacet
  facet normal 0 0 1
    outer loop
      vertex -1.78479 2.15744 5
      vertex -4.3 4.3 5
      vertex -2.04111 1.91673 5
    endloop
  endfacet
  facet normal 0 0 1
    outer loop
      vertex -1.50031 2.36412 5
      vertex -4.3 4.3 5
      vertex -1.78479 2.15744 5
    endloop
  endfacet
  facet normal 0 0 1
    outer loop
      vertex -1.19218 2.53351 5
      vertex -4.3 4.3 5
      vertex -1.50031 2.36412 5
    endloop
  endfacet
  facet normal 0 0 1
    outer loop
      vertex -0.865247 2.66296 5
      vertex -4.3 4.3 5
      vertex -1.19218 2.53351 5
    endloop
  endfacet
  facet normal 0 0 1
    outer loop
      vertex -0.524667 2.7504 5
      vertex -4.3 4.3 5
      vertex -0.865247 2.66296 5
    endloop
  endfacet
  facet normal -0 0 1
    outer loop
      vertex 2.77792 -0.350932 5
      vertex 4.3 -4.3 5
      vertex 2.8 0 5
    endloop
  endfacet
  facet normal -0 0 1
    outer loop
      vertex 2.71203 -0.696331 5
      vertex 4.3 -4.3 5
      vertex 2.77792 -0.350932 5
    endloop
  endfacet
  facet normal -0 0 1
    outer loop
      vertex 2.60337 -1.03075 5
      vertex 4.3 -4.3 5
      vertex 2.71203 -0.696331 5
    endloop
  endfacet
  facet normal -0 0 1
    outer loop
      vertex 2.45366 -1.34891 5
      vertex 4.3 -4.3 5
      vertex 2.60337 -1.03075 5
    endloop
  endfacet
  facet normal -0 0 1
    outer loop
      vertex 2.26525 -1.6458 5
      vertex 4.3 -4.3 5
      vertex 2.45366 -1.34891 5
    endloop
  endfacet
  facet normal -0 0 1
    outer loop
      vertex 2.04111 -1.91673 5
      vertex 4.3 -4.3 5
      vertex 2.26525 -1.6458 5
    endloop
  endfacet
  facet normal -0 0 1
    outer loop
      vertex 1.78479 -2.15744 5
      vertex 4.3 -4.3 5
      vertex 2.04111 -1.91673 5
    endloop
  endfacet
  facet normal -0 0 1
    outer loop
      vertex 1.50031 -2.36412 5
      vertex 4.3 -4.3 5
      vertex 1.78479 -2.15744 5
    endloop
  endfacet
  facet normal -0 0 1
    outer loop
      vertex 1.19218 -2.53351 5
      vertex 4.3 -4.3 5
      vertex 1.50031 -2.36412 5
    endloop
  endfacet
  facet normal -0 0 1
    outer loop
      vertex 0.865247 -2.66296 5
      vertex 4.3 -4.3 5
      vertex 1.19218 -2.53351 5
    endloop
  endfacet
  facet normal -0 0 1
    outer loop
      vertex 0.524667 -2.7504 5
      vertex 4.3 -4.3 5
      vertex 0.865247 -2.66296 5
    endloop
  endfacet
  facet normal -0 0 1
    outer loop
      vertex 0.175813 -2.79447 5
      vertex 4.3 -4.3 5
      vertex 0.524667 -2.7504 5
    endloop
  endfacet
  facet normal -0 0 1
    outer loop
      vertex -0.175813 -2.79447 5
      vertex 4.3 -4.3 5
      vertex 0.175813 -2.79447 5
    endloop
  endfacet
  facet normal 0 0 1
    outer loop
      vertex -4.3 -4.3 5
      vertex -0.175813 -2.79447 5
      vertex -0.524667 -2.7504 5
    endloop
  endfacet
  facet normal 0 0 1
    outer loop
      vertex -4.3 -4.3 5
      vertex -0.524667 -2.7504 5
      vertex -0.865247 -2.66296 5
    endloop
  endfacet
  facet normal 0 0 1
    outer loop
      vertex -4.3 -4.3 5
      vertex -2.8 0 5
      vertex -4.3 4.3 5
    endloop
  endfacet
  facet normal 0 0 1
    outer loop
      vertex -2.8 0 5
      vertex -4.3 -4.3 5
      vertex -2.77792 -0.350932 5
    endloop
  endfacet
  facet normal 0 0 1
    outer loop
      vertex -0.175813 -2.79447 5
      vertex -4.3 -4.3 5
      vertex 4.3 -4.3 5
    endloop
  endfacet
  facet normal 0 0 1
    outer loop
      vertex -1.19218 -2.53351 5
      vertex -4.3 -4.3 5
      vertex -0.865247 -2.66296 5
    endloop
  endfacet
  facet normal 0 0 1
    outer loop
      vertex -1.50031 -2.36412 5
      vertex -4.3 -4.3 5
      vertex -1.19218 -2.53351 5
    endloop
  endfacet
  facet normal 0 0 1
    outer loop
      vertex -1.78479 -2.15744 5
      vertex -4.3 -4.3 5
      vertex -1.50031 -2.36412 5
    endloop
  endfacet
  facet normal 0 0 1
    outer loop
      vertex -2.04111 -1.91673 5
      vertex -4.3 -4.3 5
      vertex -1.78479 -2.15744 5
    endloop
  endfacet
  facet normal 0 0 1
    outer loop
      vertex -2.26525 -1.6458 5
      vertex -4.3 -4.3 5
      vertex -2.04111 -1.91673 5
    endloop
  endfacet
  facet normal 0 0 1
    outer loop
      vertex -2.45366 -1.34891 5
      vertex -4.3 -4.3 5
      vertex -2.26525 -1.6458 5
    endloop
  endfacet
  facet normal 0 0 1
    outer loop
      vertex -2.60337 -1.03075 5
      vertex -4.3 -4.3 5
      vertex -2.45366 -1.34891 5
    endloop
  endfacet
  facet normal 0 0 1
    outer loop
      vertex -2.71203 -0.696331 5
      vertex -4.3 -4.3 5
      vertex -2.60337 -1.03075 5
    endloop
  endfacet
  facet normal 0 0 1
    outer loop
      vertex -2.77792 -0.350932 5
      vertex -4.3 -4.3 5
      vertex -2.71203 -0.696331 5
    endloop
  endfacet
  facet normal 1 -0 0
    outer loop
      vertex 4.3 -4.3 5
      vertex 4.3 4.3 0
      vertex 4.3 4.3 5
    endloop
  endfacet
  facet normal 1 0 0
    outer loop
      vertex 4.3 4.3 0
      vertex 4.3 -4.3 5
      vertex 4.3 -4.3 0
    endloop
  endfacet
  facet normal 0 0 -1
    outer loop
      vertex 4.3 -4.3 0
      vertex 2.8 0 0
      vertex 4.3 4.3 0
    endloop
  endfacet
  facet normal 0 0 -1
    outer loop
      vertex 4.3 -4.3 0
      vertex 2.77792 -0.350932 0
      vertex 2.8 0 0
    endloop
  endfacet
  facet normal 0 0 -1
    outer loop
      vertex 4.3 -4.3 0
      vertex 2.71203 -0.696331 0
      vertex 2.77792 -0.350932 0
    endloop
  endfacet
  facet normal 0 0 -1
    outer loop
      vertex 4.3 -4.3 0
      vertex 2.60337 -1.03075 0
      vertex 2.71203 -0.696331 0
    endloop
  endfacet
  facet normal 0 0 -1
    outer loop
      vertex 4.3 -4.3 0
      vertex 2.45366 -1.34891 0
      vertex 2.60337 -1.03075 0
    endloop
  endfacet
  facet normal 0 0 -1
    outer loop
      vertex 4.3 -4.3 0
      vertex 2.26525 -1.6458 0
      vertex 2.45366 -1.34891 0
    endloop
  endfacet
  facet normal 0 0 -1
    outer loop
      vertex 4.3 -4.3 0
      vertex 2.04111 -1.91673 0
      vertex 2.26525 -1.6458 0
    endloop
  endfacet
  facet normal 0 0 -1
    outer loop
      vertex 4.3 -4.3 0
      vertex 1.78479 -2.15744 0
      vertex 2.04111 -1.91673 0
    endloop
  endfacet
  facet normal 0 0 -1
    outer loop
      vertex 4.3 -4.3 0
      vertex 1.50031 -2.36412 0
      vertex 1.78479 -2.15744 0
    endloop
  endfacet
  facet normal 0 0 -1
    outer loop
      vertex 4.3 -4.3 0
      vertex 1.19218 -2.53351 0
      vertex 1.50031 -2.36412 0
    endloop
  endfacet
  facet normal 0 0 -1
    outer loop
      vertex 4.3 -4.3 0
      vertex 0.865247 -2.66296 0
      vertex 1.19218 -2.53351 0
    endloop
  endfacet
  facet normal 0 0 -1
    outer loop
      vertex 4.3 -4.3 0
      vertex 0.524667 -2.7504 0
      vertex 0.865247 -2.66296 0
    endloop
  endfacet
  facet normal 0 0 -1
    outer loop
      vertex 4.3 -4.3 0
      vertex 0.175813 -2.79447 0
      vertex 0.524667 -2.7504 0
    endloop
  endfacet
  facet normal 0 0 -1
    outer loop
      vertex 4.3 -4.3 0
      vertex -0.175813 -2.79447 0
      vertex 0.175813 -2.79447 0
    endloop
  endfacet
  facet normal 0 0 -1
    outer loop
      vertex -4.3 -4.3 0
      vertex -0.175813 -2.79447 0
      vertex 4.3 -4.3 0
    endloop
  endfacet
  facet normal -0 0 -1
    outer loop
      vertex -0.175813 -2.79447 0
      vertex -4.3 -4.3 0
      vertex -0.524667 -2.7504 0
    endloop
  endfacet
  facet normal -0 0 -1
    outer loop
      vertex -2.77792 -0.350932 0
      vertex -4.3 -4.3 0
      vertex -2.8 0 0
    endloop
  endfacet
  facet normal -0 0 -1
    outer loop
      vertex -2.71203 -0.696331 0
      vertex -4.3 -4.3 0
      vertex -2.77792 -0.350932 0
    endloop
  endfacet
  facet normal -0 0 -1
    outer loop
      vertex -2.60337 -1.03075 0
      vertex -4.3 -4.3 0
      vertex -2.71203 -0.696331 0
    endloop
  endfacet
  facet normal -0 0 -1
    outer loop
      vertex -2.45366 -1.34891 0
      vertex -4.3 -4.3 0
      vertex -2.60337 -1.03075 0
    endloop
  endfacet
  facet normal -0 0 -1
    outer loop
      vertex -2.26525 -1.6458 0
      vertex -4.3 -4.3 0
      vertex -2.45366 -1.34891 0
    endloop
  endfacet
  facet normal -0 0 -1
    outer loop
      vertex -2.04111 -1.91673 0
      vertex -4.3 -4.3 0
      vertex -2.26525 -1.6458 0
    endloop
  endfacet
  facet normal -0 0 -1
    outer loop
      vertex -1.78479 -2.15744 0
      vertex -4.3 -4.3 0
      vertex -2.04111 -1.91673 0
    endloop
  endfacet
  facet normal -0 0 -1
    outer loop
      vertex -1.50031 -2.36412 0
      vertex -4.3 -4.3 0
      vertex -1.78479 -2.15744 0
    endloop
  endfacet
  facet normal -0 0 -1
    outer loop
      vertex -1.19218 -2.53351 0
      vertex -4.3 -4.3 0
      vertex -1.50031 -2.36412 0
    endloop
  endfacet
  facet normal -0 0 -1
    outer loop
      vertex -0.865247 -2.66296 0
      vertex -4.3 -4.3 0
      vertex -1.19218 -2.53351 0
    endloop
  endfacet
  facet normal -0 0 -1
    outer loop
      vertex -0.524667 -2.7504 0
      vertex -4.3 -4.3 0
      vertex -0.865247 -2.66296 0
    endloop
  endfacet
  facet normal 0 0 -1
    outer loop
      vertex 2.77792 0.350932 0
      vertex 4.3 4.3 0
      vertex 2.8 0 0
    endloop
  endfacet
  facet normal 0 0 -1
    outer loop
      vertex 2.71203 0.696331 0
      vertex 4.3 4.3 0
      vertex 2.77792 0.350932 0
    endloop
  endfacet
  facet normal 0 0 -1
    outer loop
      vertex 2.60337 1.03075 0
      vertex 4.3 4.3 0
      vertex 2.71203 0.696331 0
    endloop
  endfacet
  facet normal 0 0 -1
    outer loop
      vertex 2.45366 1.34891 0
      vertex 4.3 4.3 0
      vertex 2.60337 1.03075 0
    endloop
  endfacet
  facet normal 0 0 -1
    outer loop
      vertex 2.26525 1.6458 0
      vertex 4.3 4.3 0
      vertex 2.45366 1.34891 0
    endloop
  endfacet
  facet normal 0 0 -1
    outer loop
      vertex 2.04111 1.91673 0
      vertex 4.3 4.3 0
      vertex 2.26525 1.6458 0
    endloop
  endfacet
  facet normal 0 0 -1
    outer loop
      vertex 1.78479 2.15744 0
      vertex 4.3 4.3 0
      vertex 2.04111 1.91673 0
    endloop
  endfacet
  facet normal 0 0 -1
    outer loop
      vertex 1.50031 2.36412 0
      vertex 4.3 4.3 0
      vertex 1.78479 2.15744 0
    endloop
  endfacet
  facet normal 0 0 -1
    outer loop
      vertex 1.19218 2.53351 0
      vertex 4.3 4.3 0
      vertex 1.50031 2.36412 0
    endloop
  endfacet
  facet normal 0 0 -1
    outer loop
      vertex 0.865247 2.66296 0
      vertex 4.3 4.3 0
      vertex 1.19218 2.53351 0
    endloop
  endfacet
  facet normal 0 0 -1
    outer loop
      vertex 0.524667 2.7504 0
      vertex 4.3 4.3 0
      vertex 0.865247 2.66296 0
    endloop
  endfacet
  facet normal 0 0 -1
    outer loop
      vertex 0.175813 2.79447 0
      vertex 4.3 4.3 0
      vertex 0.524667 2.7504 0
    endloop
  endfacet
  facet normal 0 0 -1
    outer loop
      vertex -0.175813 2.79447 0
      vertex 4.3 4.3 0
      vertex 0.175813 2.79447 0
    endloop
  endfacet
  facet normal 0 0 -1
    outer loop
      vertex -4.3 4.3 0
      vertex -0.175813 2.79447 0
      vertex -0.524667 2.7504 0
    endloop
  endfacet
  facet normal 0 0 -1
    outer loop
      vertex -4.3 4.3 0
      vertex -0.524667 2.7504 0
      vertex -0.865247 2.66296 0
    endloop
  endfacet
  facet normal 0 0 -1
    outer loop
      vertex -4.3 4.3 0
      vertex -2.8 0 0
      vertex -4.3 -4.3 0
    endloop
  endfacet
  facet normal 0 0 -1
    outer loop
      vertex -2.8 0 0
      vertex -4.3 4.3 0
      vertex -2.77792 0.350932 0
    endloop
  endfacet
  facet normal 0 0 -1
    outer loop
      vertex -0.175813 2.79447 0
      vertex -4.3 4.3 0
      vertex 4.3 4.3 0
    endloop
  endfacet
  facet normal 0 0 -1
    outer loop
      vertex -1.19218 2.53351 0
      vertex -4.3 4.3 0
      vertex -0.865247 2.66296 0
    endloop
  endfacet
  facet normal 0 0 -1
    outer loop
      vertex -1.50031 2.36412 0
      vertex -4.3 4.3 0
      vertex -1.19218 2.53351 0
    endloop
  endfacet
  facet normal 0 0 -1
    outer loop
      vertex -1.78479 2.15744 0
      vertex -4.3 4.3 0
      vertex -1.50031 2.36412 0
    endloop
  endfacet
  facet normal 0 0 -1
    outer loop
      vertex -2.04111 1.91673 0
      vertex -4.3 4.3 0
      vertex -1.78479 2.15744 0
    endloop
  endfacet
  facet normal 0 0 -1
    outer loop
      vertex -2.26525 1.6458 0
      vertex -4.3 4.3 0
      vertex -2.04111 1.91673 0
    endloop
  endfacet
  facet normal 0 0 -1
    outer loop
      vertex -2.45366 1.34891 0
      vertex -4.3 4.3 0
      vertex -2.26525 1.6458 0
    endloop
  endfacet
  facet normal 0 0 -1
    outer loop
      vertex -2.60337 1.03075 0
      vertex -4.3 4.3 0
      vertex -2.45366 1.34891 0
    endloop
  endfacet
  facet normal 0 0 -1
    outer loop
      vertex -2.71203 0.696331 0
      vertex -4.3 4.3 0
      vertex -2.60337 1.03075 0
    endloop
  endfacet
  facet normal 0 0 -1
    outer loop
      vertex -2.77792 0.350932 0
      vertex -4.3 4.3 0
      vertex -2.71203 0.696331 0
    endloop
  endfacet
  facet normal 0 -1 0
    outer loop
      vertex -4.3 -4.3 0
      vertex 4.3 -4.3 5
      vertex -4.3 -4.3 5
    endloop
  endfacet
  facet normal 0 -1 -0
    outer loop
      vertex 4.3 -4.3 5
      vertex -4.3 -4.3 0
      vertex 4.3 -4.3 0
    endloop
  endfacet
  facet normal 0 1 -0
    outer loop
      vertex 4.3 4.3 0
      vertex -4.3 4.3 5
      vertex 4.3 4.3 5
    endloop
  endfacet
  facet normal 0 1 0
    outer loop
      vertex -4.3 4.3 5
      vertex 4.3 4.3 0
      vertex -4.3 4.3 0
    endloop
  endfacet
  facet normal -0.998027 -0.0627898 0
    outer loop
      vertex 2.8 0 0
      vertex 2.77792 0.350932 5
      vertex 2.77792 0.350932 0
    endloop
  endfacet
  facet normal -0.998027 -0.0627898 0
    outer loop
      vertex 2.77792 0.350932 5
      vertex 2.8 0 0
      vertex 2.8 0 5
    endloop
  endfacet
  facet normal 0.998027 -0.0627898 0
    outer loop
      vertex -2.8 0 5
      vertex -2.77792 0.350932 0
      vertex -2.77792 0.350932 5
    endloop
  endfacet
  facet normal 0.998027 -0.0627898 0
    outer loop
      vertex -2.77792 0.350932 0
      vertex -2.8 0 5
      vertex -2.8 0 0
    endloop
  endfacet
  facet normal 0 -1 0
    outer loop
      vertex -0.175813 2.79447 0
      vertex 0.175813 2.79447 5
      vertex -0.175813 2.79447 5
    endloop
  endfacet
  facet normal 0 -1 -0
    outer loop
      vertex 0.175813 2.79447 5
      vertex -0.175813 2.79447 0
      vertex 0.175813 2.79447 0
    endloop
  endfacet
  facet normal 0 1 -0
    outer loop
      vertex 0.175813 -2.79447 0
      vertex -0.175813 -2.79447 5
      vertex 0.175813 -2.79447 5
    endloop
  endfacet
  facet normal 0 1 0
    outer loop
      vertex -0.175813 -2.79447 5
      vertex 0.175813 -2.79447 0
      vertex -0.175813 -2.79447 0
    endloop
  endfacet
  facet normal -0.684545 -0.728971 0
    outer loop
      vertex 1.78479 2.15744 0
      vertex 2.04111 1.91673 5
      vertex 1.78479 2.15744 5
    endloop
  endfacet
  facet normal -0.684545 -0.728971 -0
    outer loop
      vertex 2.04111 1.91673 5
      vertex 1.78479 2.15744 0
      vertex 2.04111 1.91673 0
    endloop
  endfacet
  facet normal 0.684545 -0.728971 0
    outer loop
      vertex -2.04111 1.91673 0
      vertex -1.78479 2.15744 5
      vertex -2.04111 1.91673 5
    endloop
  endfacet
  facet normal 0.684545 -0.728971 0
    outer loop
      vertex -1.78479 2.15744 5
      vertex -2.04111 1.91673 0
      vertex -1.78479 2.15744 0
    endloop
  endfacet
  facet normal 0.368126 -0.929776 0
    outer loop
      vertex -1.19218 2.53351 0
      vertex -0.865247 2.66296 5
      vertex -1.19218 2.53351 5
    endloop
  endfacet
  facet normal 0.368126 -0.929776 0
    outer loop
      vertex -0.865247 2.66296 5
      vertex -1.19218 2.53351 0
      vertex -0.865247 2.66296 0
    endloop
  endfacet
  facet normal -0.770513 0.637424 0
    outer loop
      vertex 2.04111 -1.91673 0
      vertex 2.26525 -1.6458 5
      vertex 2.26525 -1.6458 0
    endloop
  endfacet
  facet normal -0.770513 0.637424 0
    outer loop
      vertex 2.26525 -1.6458 5
      vertex 2.04111 -1.91673 0
      vertex 2.04111 -1.91673 5
    endloop
  endfacet
  facet normal -0.904827 -0.42578 0
    outer loop
      vertex 2.60337 1.03075 0
      vertex 2.45366 1.34891 5
      vertex 2.45366 1.34891 0
    endloop
  endfacet
  facet normal -0.904827 -0.42578 0
    outer loop
      vertex 2.45366 1.34891 5
      vertex 2.60337 1.03075 0
      vertex 2.60337 1.03075 5
    endloop
  endfacet
  facet normal -0.368126 -0.929776 0
    outer loop
      vertex 0.865247 2.66296 0
      vertex 1.19218 2.53351 5
      vertex 0.865247 2.66296 5
    endloop
  endfacet
  facet normal -0.368126 -0.929776 -0
    outer loop
      vertex 1.19218 2.53351 5
      vertex 0.865247 2.66296 0
      vertex 1.19218 2.53351 0
    endloop
  endfacet
  facet normal -0.587786 -0.809016 0
    outer loop
      vertex 1.50031 2.36412 0
      vertex 1.78479 2.15744 5
      vertex 1.50031 2.36412 5
    endloop
  endfacet
  facet normal -0.587786 -0.809016 -0
    outer loop
      vertex 1.78479 2.15744 5
      vertex 1.50031 2.36412 0
      vertex 1.78479 2.15744 0
    endloop
  endfacet
  facet normal 0.844329 -0.535825 0
    outer loop
      vertex -2.45366 1.34891 5
      vertex -2.26525 1.6458 0
      vertex -2.26525 1.6458 5
    endloop
  endfacet
  facet normal 0.844329 -0.535825 0
    outer loop
      vertex -2.26525 1.6458 0
      vertex -2.45366 1.34891 5
      vertex -2.45366 1.34891 0
    endloop
  endfacet
  facet normal 0.770513 -0.637424 0
    outer loop
      vertex -2.26525 1.6458 5
      vertex -2.04111 1.91673 0
      vertex -2.04111 1.91673 5
    endloop
  endfacet
  facet normal 0.770513 -0.637424 0
    outer loop
      vertex -2.04111 1.91673 0
      vertex -2.26525 1.6458 5
      vertex -2.26525 1.6458 0
    endloop
  endfacet
  facet normal 0.481753 -0.876307 0
    outer loop
      vertex -1.50031 2.36412 0
      vertex -1.19218 2.53351 5
      vertex -1.50031 2.36412 5
    endloop
  endfacet
  facet normal 0.481753 -0.876307 0
    outer loop
      vertex -1.19218 2.53351 5
      vertex -1.50031 2.36412 0
      vertex -1.19218 2.53351 0
    endloop
  endfacet
  facet normal 0.248688 -0.968584 0
    outer loop
      vertex -0.865247 2.66296 0
      vertex -0.524667 2.7504 5
      vertex -0.865247 2.66296 5
    endloop
  endfacet
  facet normal 0.248688 -0.968584 0
    outer loop
      vertex -0.524667 2.7504 5
      vertex -0.865247 2.66296 0
      vertex -0.524667 2.7504 0
    endloop
  endfacet
  facet normal -0.951057 -0.309017 0
    outer loop
      vertex 2.71203 0.696331 0
      vertex 2.60337 1.03075 5
      vertex 2.60337 1.03075 0
    endloop
  endfacet
  facet normal -0.951057 -0.309017 0
    outer loop
      vertex 2.60337 1.03075 5
      vertex 2.71203 0.696331 0
      vertex 2.71203 0.696331 5
    endloop
  endfacet
  facet normal -0.982287 -0.187381 0
    outer loop
      vertex 2.77792 0.350932 0
      vertex 2.71203 0.696331 5
      vertex 2.71203 0.696331 0
    endloop
  endfacet
  facet normal -0.982287 -0.187381 0
    outer loop
      vertex 2.71203 0.696331 5
      vertex 2.77792 0.350932 0
      vertex 2.77792 0.350932 5
    endloop
  endfacet
  facet normal -0.770513 -0.637424 0
    outer loop
      vertex 2.26525 1.6458 0
      vertex 2.04111 1.91673 5
      vertex 2.04111 1.91673 0
    endloop
  endfacet
  facet normal -0.770513 -0.637424 0
    outer loop
      vertex 2.04111 1.91673 5
      vertex 2.26525 1.6458 0
      vertex 2.26525 1.6458 5
    endloop
  endfacet
  facet normal -0.844329 -0.535825 0
    outer loop
      vertex 2.45366 1.34891 0
      vertex 2.26525 1.6458 5
      vertex 2.26525 1.6458 0
    endloop
  endfacet
  facet normal -0.844329 -0.535825 0
    outer loop
      vertex 2.26525 1.6458 5
      vertex 2.45366 1.34891 0
      vertex 2.45366 1.34891 5
    endloop
  endfacet
  facet normal -0.248688 -0.968584 0
    outer loop
      vertex 0.524667 2.7504 0
      vertex 0.865247 2.66296 5
      vertex 0.524667 2.7504 5
    endloop
  endfacet
  facet normal -0.248688 -0.968584 -0
    outer loop
      vertex 0.865247 2.66296 5
      vertex 0.524667 2.7504 0
      vertex 0.865247 2.66296 0
    endloop
  endfacet
  facet normal -0.125335 -0.992114 0
    outer loop
      vertex 0.175813 2.79447 0
      vertex 0.524667 2.7504 5
      vertex 0.175813 2.79447 5
    endloop
  endfacet
  facet normal -0.125335 -0.992114 -0
    outer loop
      vertex 0.524667 2.7504 5
      vertex 0.175813 2.79447 0
      vertex 0.524667 2.7504 0
    endloop
  endfacet
  facet normal -0.481753 -0.876307 0
    outer loop
      vertex 1.19218 2.53351 0
      vertex 1.50031 2.36412 5
      vertex 1.19218 2.53351 5
    endloop
  endfacet
  facet normal -0.481753 -0.876307 -0
    outer loop
      vertex 1.50031 2.36412 5
      vertex 1.19218 2.53351 0
      vertex 1.50031 2.36412 0
    endloop
  endfacet
  facet normal 0.904827 -0.42578 0
    outer loop
      vertex -2.60337 1.03075 5
      vertex -2.45366 1.34891 0
      vertex -2.45366 1.34891 5
    endloop
  endfacet
  facet normal 0.904827 -0.42578 0
    outer loop
      vertex -2.45366 1.34891 0
      vertex -2.60337 1.03075 5
      vertex -2.60337 1.03075 0
    endloop
  endfacet
  facet normal 0.982287 -0.187381 0
    outer loop
      vertex -2.77792 0.350932 5
      vertex -2.71203 0.696331 0
      vertex -2.71203 0.696331 5
    endloop
  endfacet
  facet normal 0.982287 -0.187381 0
    outer loop
      vertex -2.71203 0.696331 0
      vertex -2.77792 0.350932 5
      vertex -2.77792 0.350932 0
    endloop
  endfacet
  facet normal 0.587786 -0.809016 0
    outer loop
      vertex -1.78479 2.15744 0
      vertex -1.50031 2.36412 5
      vertex -1.78479 2.15744 5
    endloop
  endfacet
  facet normal 0.587786 -0.809016 0
    outer loop
      vertex -1.50031 2.36412 5
      vertex -1.78479 2.15744 0
      vertex -1.50031 2.36412 0
    endloop
  endfacet
  facet normal 0.125335 -0.992114 0
    outer loop
      vertex -0.524667 2.7504 0
      vertex -0.175813 2.79447 5
      vertex -0.524667 2.7504 5
    endloop
  endfacet
  facet normal 0.125335 -0.992114 0
    outer loop
      vertex -0.175813 2.79447 5
      vertex -0.524667 2.7504 0
      vertex -0.175813 2.79447 0
    endloop
  endfacet
  facet normal -0.684545 0.728971 0
    outer loop
      vertex 2.04111 -1.91673 0
      vertex 1.78479 -2.15744 5
      vertex 2.04111 -1.91673 5
    endloop
  endfacet
  facet normal -0.684545 0.728971 0
    outer loop
      vertex 1.78479 -2.15744 5
      vertex 2.04111 -1.91673 0
      vertex 1.78479 -2.15744 0
    endloop
  endfacet
  facet normal 0.684545 0.728971 -0
    outer loop
      vertex -1.78479 -2.15744 0
      vertex -2.04111 -1.91673 5
      vertex -1.78479 -2.15744 5
    endloop
  endfacet
  facet normal 0.684545 0.728971 0
    outer loop
      vertex -2.04111 -1.91673 5
      vertex -1.78479 -2.15744 0
      vertex -2.04111 -1.91673 0
    endloop
  endfacet
  facet normal -0.368126 0.929776 0
    outer loop
      vertex 1.19218 -2.53351 0
      vertex 0.865247 -2.66296 5
      vertex 1.19218 -2.53351 5
    endloop
  endfacet
  facet normal -0.368126 0.929776 0
    outer loop
      vertex 0.865247 -2.66296 5
      vertex 1.19218 -2.53351 0
      vertex 0.865247 -2.66296 0
    endloop
  endfacet
  facet normal 0.951057 -0.309017 0
    outer loop
      vertex -2.71203 0.696331 5
      vertex -2.60337 1.03075 0
      vertex -2.60337 1.03075 5
    endloop
  endfacet
  facet normal 0.951057 -0.309017 0
    outer loop
      vertex -2.60337 1.03075 0
      vertex -2.71203 0.696331 5
      vertex -2.71203 0.696331 0
    endloop
  endfacet
  facet normal -0.904827 0.42578 0
    outer loop
      vertex 2.45366 -1.34891 0
      vertex 2.60337 -1.03075 5
      vertex 2.60337 -1.03075 0
    endloop
  endfacet
  facet normal -0.904827 0.42578 0
    outer loop
      vertex 2.60337 -1.03075 5
      vertex 2.45366 -1.34891 0
      vertex 2.45366 -1.34891 5
    endloop
  endfacet
  facet normal -0.951057 0.309017 0
    outer loop
      vertex 2.60337 -1.03075 0
      vertex 2.71203 -0.696331 5
      vertex 2.71203 -0.696331 0
    endloop
  endfacet
  facet normal -0.951057 0.309017 0
    outer loop
      vertex 2.71203 -0.696331 5
      vertex 2.60337 -1.03075 0
      vertex 2.60337 -1.03075 5
    endloop
  endfacet
  facet normal -0.982287 0.187381 0
    outer loop
      vertex 2.71203 -0.696331 0
      vertex 2.77792 -0.350932 5
      vertex 2.77792 -0.350932 0
    endloop
  endfacet
  facet normal -0.982287 0.187381 0
    outer loop
      vertex 2.77792 -0.350932 5
      vertex 2.71203 -0.696331 0
      vertex 2.71203 -0.696331 5
    endloop
  endfacet
  facet normal -0.998027 0.0627898 0
    outer loop
      vertex 2.77792 -0.350932 0
      vertex 2.8 0 5
      vertex 2.8 0 0
    endloop
  endfacet
  facet normal -0.998027 0.0627898 0
    outer loop
      vertex 2.8 0 5
      vertex 2.77792 -0.350932 0
      vertex 2.77792 -0.350932 5
    endloop
  endfacet
  facet normal -0.481753 0.876307 0
    outer loop
      vertex 1.50031 -2.36412 0
      vertex 1.19218 -2.53351 5
      vertex 1.50031 -2.36412 5
    endloop
  endfacet
  facet normal -0.481753 0.876307 0
    outer loop
      vertex 1.19218 -2.53351 5
      vertex 1.50031 -2.36412 0
      vertex 1.19218 -2.53351 0
    endloop
  endfacet
  facet normal -0.587786 0.809016 0
    outer loop
      vertex 1.78479 -2.15744 0
      vertex 1.50031 -2.36412 5
      vertex 1.78479 -2.15744 5
    endloop
  endfacet
  facet normal -0.587786 0.809016 0
    outer loop
      vertex 1.50031 -2.36412 5
      vertex 1.78479 -2.15744 0
      vertex 1.50031 -2.36412 0
    endloop
  endfacet
  facet normal -0.844329 0.535825 0
    outer loop
      vertex 2.26525 -1.6458 0
      vertex 2.45366 -1.34891 5
      vertex 2.45366 -1.34891 0
    endloop
  endfacet
  facet normal -0.844329 0.535825 0
    outer loop
      vertex 2.45366 -1.34891 5
      vertex 2.26525 -1.6458 0
      vertex 2.26525 -1.6458 5
    endloop
  endfacet
  facet normal 0.770513 0.637424 0
    outer loop
      vertex -2.04111 -1.91673 5
      vertex -2.26525 -1.6458 0
      vertex -2.26525 -1.6458 5
    endloop
  endfacet
  facet normal 0.770513 0.637424 0
    outer loop
      vertex -2.26525 -1.6458 0
      vertex -2.04111 -1.91673 5
      vertex -2.04111 -1.91673 0
    endloop
  endfacet
  facet normal 0.904827 0.42578 0
    outer loop
      vertex -2.45366 -1.34891 5
      vertex -2.60337 -1.03075 0
      vertex -2.60337 -1.03075 5
    endloop
  endfacet
  facet normal 0.904827 0.42578 0
    outer loop
      vertex -2.60337 -1.03075 0
      vertex -2.45366 -1.34891 5
      vertex -2.45366 -1.34891 0
    endloop
  endfacet
  facet normal 0.998027 0.0627898 0
    outer loop
      vertex -2.77792 -0.350932 5
      vertex -2.8 0 0
      vertex -2.8 0 5
    endloop
  endfacet
  facet normal 0.998027 0.0627898 0
    outer loop
      vertex -2.8 0 0
      vertex -2.77792 -0.350932 5
      vertex -2.77792 -0.350932 0
    endloop
  endfacet
  facet normal 0.982287 0.187381 0
    outer loop
      vertex -2.71203 -0.696331 5
      vertex -2.77792 -0.350932 0
      vertex -2.77792 -0.350932 5
    endloop
  endfacet
  facet normal 0.982287 0.187381 0
    outer loop
      vertex -2.77792 -0.350932 0
      vertex -2.71203 -0.696331 5
      vertex -2.71203 -0.696331 0
    endloop
  endfacet
  facet normal 0.951057 0.309017 0
    outer loop
      vertex -2.60337 -1.03075 5
      vertex -2.71203 -0.696331 0
      vertex -2.71203 -0.696331 5
    endloop
  endfacet
  facet normal 0.951057 0.309017 0
    outer loop
      vertex -2.71203 -0.696331 0
      vertex -2.60337 -1.03075 5
      vertex -2.60337 -1.03075 0
    endloop
  endfacet
  facet normal -0.248688 0.968584 0
    outer loop
      vertex 0.865247 -2.66296 0
      vertex 0.524667 -2.7504 5
      vertex 0.865247 -2.66296 5
    endloop
  endfacet
  facet normal -0.248688 0.968584 0
    outer loop
      vertex 0.524667 -2.7504 5
      vertex 0.865247 -2.66296 0
      vertex 0.524667 -2.7504 0
    endloop
  endfacet
  facet normal -0.125335 0.992114 0
    outer loop
      vertex 0.524667 -2.7504 0
      vertex 0.175813 -2.79447 5
      vertex 0.524667 -2.7504 5
    endloop
  endfacet
  facet normal -0.125335 0.992114 0
    outer loop
      vertex 0.175813 -2.79447 5
      vertex 0.524667 -2.7504 0
      vertex 0.175813 -2.79447 0
    endloop
  endfacet
  facet normal 0.248688 0.968584 -0
    outer loop
      vertex -0.524667 -2.7504 0
      vertex -0.865247 -2.66296 5
      vertex -0.524667 -2.7504 5
    endloop
  endfacet
  facet normal 0.248688 0.968584 0
    outer loop
      vertex -0.865247 -2.66296 5
      vertex -0.524667 -2.7504 0
      vertex -0.865247 -2.66296 0
    endloop
  endfacet
  facet normal 0.844329 0.535825 0
    outer loop
      vertex -2.26525 -1.6458 5
      vertex -2.45366 -1.34891 0
      vertex -2.45366 -1.34891 5
    endloop
  endfacet
  facet normal 0.844329 0.535825 0
    outer loop
      vertex -2.45366 -1.34891 0
      vertex -2.26525 -1.6458 5
      vertex -2.26525 -1.6458 0
    endloop
  endfacet
  facet normal 0.481753 0.876307 -0
    outer loop
      vertex -1.19218 -2.53351 0
      vertex -1.50031 -2.36412 5
      vertex -1.19218 -2.53351 5
    endloop
  endfacet
  facet normal 0.481753 0.876307 0
    outer loop
      vertex -1.50031 -2.36412 5
      vertex -1.19218 -2.53351 0
      vertex -1.50031 -2.36412 0
    endloop
  endfacet
  facet normal 0.587786 0.809016 -0
    outer loop
      vertex -1.50031 -2.36412 0
      vertex -1.78479 -2.15744 5
      vertex -1.50031 -2.36412 5
    endloop
  endfacet
  facet normal 0.587786 0.809016 0
    outer loop
      vertex -1.78479 -2.15744 5
      vertex -1.50031 -2.36412 0
      vertex -1.78479 -2.15744 0
    endloop
  endfacet
  facet normal 0.125335 0.992114 -0
    outer loop
      vertex -0.175813 -2.79447 0
      vertex -0.524667 -2.7504 5
      vertex -0.175813 -2.79447 5
    endloop
  endfacet
  facet normal 0.125335 0.992114 0
    outer loop
      vertex -0.524667 -2.7504 5
      vertex -0.175813 -2.79447 0
      vertex -0.524667 -2.7504 0
    endloop
  endfacet
  facet normal 0.368126 0.929776 -0
    outer loop
      vertex -0.865247 -2.66296 0
      vertex -1.19218 -2.53351 5
      vertex -0.865247 -2.66296 5
    endloop
  endfacet
  facet normal 0.368126 0.929776 0
    outer loop
      vertex -1.19218 -2.53351 5
      vertex -0.865247 -2.66296 0
      vertex -1.19218 -2.53351 0
    endloop
  endfacet
endsolid OpenSCAD_Model
