solid OpenSCAD_Model
  facet normal -1 0 0
    outer loop
      vertex -4.25 -4.25 0
      vertex -4.25 4.25 5
      vertex -4.25 4.25 0
    endloop
  endfacet
  facet normal -1 -0 0
    outer loop
      vertex -4.25 4.25 5
      vertex -4.25 -4.25 0
      vertex -4.25 -4.25 5
    endloop
  endfacet
  facet normal 0 0 1
    outer loop
      vertex 4.25 4.25 5
      vertex 2.75 0 5
      vertex 4.25 -4.25 5
    endloop
  endfacet
  facet normal 0 0 1
    outer loop
      vertex 4.25 4.25 5
      vertex 2.72832 0.344666 5
      vertex 2.75 0 5
    endloop
  endfacet
  facet normal 0 0 1
    outer loop
      vertex 4.25 4.25 5
      vertex 2.6636 0.683897 5
      vertex 2.72832 0.344666 5
    endloop
  endfacet
  facet normal 0 0 1
    outer loop
      vertex 4.25 4.25 5
      vertex 2.55688 1.01234 5
      vertex 2.6636 0.683897 5
    endloop
  endfacet
  facet normal 0 0 1
    outer loop
      vertex 4.25 4.25 5
      vertex 2.40984 1.32482 5
      vertex 2.55688 1.01234 5
    endloop
  endfacet
  facet normal 0 0 1
    outer loop
      vertex 4.25 4.25 5
      vertex 2.2248 1.61641 5
      vertex 2.40984 1.32482 5
    endloop
  endfacet
  facet normal 0 0 1
    outer loop
      vertex 4.25 4.25 5
      vertex 2.00466 1.8825 5
      vertex 2.2248 1.61641 5
    endloop
  endfacet
  facet normal 0 0 1
    outer loop
      vertex 4.25 4.25 5
      vertex 1.75292 2.11891 5
      vertex 2.00466 1.8825 5
    endloop
  endfacet
  facet normal 0 0 1
    outer loop
      vertex 4.25 4.25 5
      vertex 1.47352 2.3219 5
      vertex 1.75292 2.11891 5
    endloop
  endfacet
  facet normal 0 0 1
    outer loop
      vertex 4.25 4.25 5
      vertex 1.17089 2.48827 5
      vertex 1.47352 2.3219 5
    endloop
  endfacet
  facet normal 0 0 1
    outer loop
      vertex 4.25 4.25 5
      vertex 0.849796 2.61541 5
      vertex 1.17089 2.48827 5
    endloop
  endfacet
  facet normal 0 0 1
    outer loop
      vertex 4.25 4.25 5
      vertex 0.515298 2.70129 5
      vertex 0.849796 2.61541 5
    endloop
  endfacet
  facet normal 0 0 1
    outer loop
      vertex 4.25 4.25 5
      vertex 0.172673 2.74457 5
      vertex 0.515298 2.70129 5
    endloop
  endfacet
  facet normal 0 0 1
    outer loop
      vertex 4.25 4.25 5
      vertex -0.172673 2.74457 5
      vertex 0.172673 2.74457 5
    endloop
  endfacet
  facet normal -0 0 1
    outer loop
      vertex -4.25 4.25 5
      vertex -0.172673 2.74457 5
      vertex 4.25 4.25 5
    endloop
  endfacet
  facet normal 0 0 1
    outer loop
      vertex -0.172673 2.74457 5
      vertex -4.25 4.25 5
      vertex -0.515298 2.70129 5
    endloop
  endfacet
  facet normal 0 0 1
    outer loop
      vertex -2.72832 0.344666 5
      vertex -4.25 4.25 5
      vertex -2.75 0 5
    endloop
  endfacet
  facet normal 0 0 1
    outer loop
      vertex -2.6636 0.683897 5
      vertex -4.25 4.25 5
      vertex -2.72832 0.344666 5
    endloop
  endfacet
  facet normal 0 0 1
    outer loop
      vertex -2.55688 1.01234 5
      vertex -4.25 4.25 5
      vertex -2.6636 0.683897 5
    endloop
  endfacet
  facet normal 0 0 1
    outer loop
      vertex -2.40984 1.32482 5
      vertex -4.25 4.25 5
      vertex -2.55688 1.01234 5
    endloop
  endfacet
  facet normal 0 0 1
    outer loop
      vertex -2.2248 1.61641 5
      vertex -4.25 4.25 5
      vertex -2.40984 1.32482 5
    endloop
  endfacet
  facet normal 0 0 1
    outer loop
      vertex -2.00466 1.8825 5
      vertex -4.25 4.25 5
      vertex -2.2248 1.61641 5
    endloop
  endfacet
  facet normal 0 0 1
    outer loop
      vertex -1.75292 2.11891 5
      vertex -4.25 4.25 5
      vertex -2.00466 1.8825 5
    endloop
  endfacet
  facet normal 0 0 1
    outer loop
      vertex -1.47352 2.3219 5
      vertex -4.25 4.25 5
      vertex -1.75292 2.11891 5
    endloop
  endfacet
  facet normal 0 0 1
    outer loop
      vertex -1.17089 2.48827 5
      vertex -4.25 4.25 5
      vertex -1.47352 2.3219 5
    endloop
  endfacet
  facet normal 0 0 1
    outer loop
      vertex -0.849796 2.61541 5
      vertex -4.25 4.25 5
      vertex -1.17089 2.48827 5
    endloop
  endfacet
  facet normal 0 0 1
    outer loop
      vertex -0.515298 2.70129 5
      vertex -4.25 4.25 5
      vertex -0.849796 2.61541 5
    endloop
  endfacet
  facet normal -0 0 1
    outer loop
      vertex 2.72832 -0.344666 5
      vertex 4.25 -4.25 5
      vertex 2.75 0 5
    endloop
  endfacet
  facet normal -0 0 1
    outer loop
      vertex 2.6636 -0.683897 5
      vertex 4.25 -4.25 5
      vertex 2.72832 -0.344666 5
    endloop
  endfacet
  facet normal -0 0 1
    outer loop
      vertex 2.55688 -1.01234 5
      vertex 4.25 -4.25 5
      vertex 2.6636 -0.683897 5
    endloop
  endfacet
  facet normal -0 0 1
    outer loop
      vertex 2.40984 -1.32482 5
      vertex 4.25 -4.25 5
      vertex 2.55688 -1.01234 5
    endloop
  endfacet
  facet normal -0 0 1
    outer loop
      vertex 2.2248 -1.61641 5
      vertex 4.25 -4.25 5
      vertex 2.40984 -1.32482 5
    endloop
  endfacet
  facet normal -0 0 1
    outer loop
      vertex 2.00466 -1.8825 5
      vertex 4.25 -4.25 5
      vertex 2.2248 -1.61641 5
    endloop
  endfacet
  facet normal -0 0 1
    outer loop
      vertex 1.75292 -2.11891 5
      vertex 4.25 -4.25 5
      vertex 2.00466 -1.8825 5
    endloop
  endfacet
  facet normal -0 0 1
    outer loop
      vertex 1.47352 -2.3219 5
      vertex 4.25 -4.25 5
      vertex 1.75292 -2.11891 5
    endloop
  endfacet
  facet normal -0 0 1
    outer loop
      vertex 1.17089 -2.48827 5
      vertex 4.25 -4.25 5
      vertex 1.47352 -2.3219 5
    endloop
  endfacet
  facet normal -0 0 1
    outer loop
      vertex 0.849796 -2.61541 5
      vertex 4.25 -4.25 5
      vertex 1.17089 -2.48827 5
    endloop
  endfacet
  facet normal -0 0 1
    outer loop
      vertex 0.515298 -2.70129 5
      vertex 4.25 -4.25 5
      vertex 0.849796 -2.61541 5
    endloop
  endfacet
  facet normal -0 0 1
    outer loop
      vertex 0.172673 -2.74457 5
      vertex 4.25 -4.25 5
      vertex 0.515298 -2.70129 5
    endloop
  endfacet
  facet normal -0 0 1
    outer loop
      vertex -0.172673 -2.74457 5
      vertex 4.25 -4.25 5
      vertex 0.172673 -2.74457 5
    endloop
  endfacet
  facet normal 0 0 1
    outer loop
      vertex -4.25 -4.25 5
      vertex -0.172673 -2.74457 5
      vertex -0.515298 -2.70129 5
    endloop
  endfacet
  facet normal 0 0 1
    outer loop
      vertex -4.25 -4.25 5
      vertex -0.515298 -2.70129 5
      vertex -0.849796 -2.61541 5
    endloop
  endfacet
  facet normal 0 0 1
    outer loop
      vertex -4.25 -4.25 5
      vertex -2.75 0 5
      vertex -4.25 4.25 5
    endloop
  endfacet
  facet normal 0 0 1
    outer loop
      vertex -2.75 0 5
      vertex -4.25 -4.25 5
      vertex -2.72832 -0.344666 5
    endloop
  endfacet
  facet normal 0 0 1
    outer loop
      vertex -0.172673 -2.74457 5
      vertex -4.25 -4.25 5
      vertex 4.25 -4.25 5
    endloop
  endfacet
  facet normal 0 0 1
    outer loop
      vertex -1.17089 -2.48827 5
      vertex -4.25 -4.25 5
      vertex -0.849796 -2.61541 5
    endloop
  endfacet
  facet normal 0 0 1
    outer loop
      vertex -1.47352 -2.3219 5
      vertex -4.25 -4.25 5
      vertex -1.17089 -2.48827 5
    endloop
  endfacet
  facet normal 0 0 1
    outer loop
      vertex -1.75292 -2.11891 5
      vertex -4.25 -4.25 5
      vertex -1.47352 -2.3219 5
    endloop
  endfacet
  facet normal 0 0 1
    outer loop
      vertex -2.00466 -1.8825 5
      vertex -4.25 -4.25 5
      vertex -1.75292 -2.11891 5
    endloop
  endfacet
  facet normal 0 0 1
    outer loop
      vertex -2.2248 -1.61641 5
      vertex -4.25 -4.25 5
      vertex -2.00466 -1.8825 5
    endloop
  endfacet
  facet normal 0 0 1
    outer loop
      vertex -2.40984 -1.32482 5
      vertex -4.25 -4.25 5
      vertex -2.2248 -1.61641 5
    endloop
  endfacet
  facet normal 0 0 1
    outer loop
      vertex -2.55688 -1.01234 5
      vertex -4.25 -4.25 5
      vertex -2.40984 -1.32482 5
    endloop
  endfacet
  facet normal 0 0 1
    outer loop
      vertex -2.6636 -0.683897 5
      vertex -4.25 -4.25 5
      vertex -2.55688 -1.01234 5
    endloop
  endfacet
  facet normal 0 0 1
    outer loop
      vertex -2.72832 -0.344666 5
      vertex -4.25 -4.25 5
      vertex -2.6636 -0.683897 5
    endloop
  endfacet
  facet normal 1 -0 0
    outer loop
      vertex 4.25 -4.25 5
      vertex 4.25 4.25 0
      vertex 4.25 4.25 5
    endloop
  endfacet
  facet normal 1 0 0
    outer loop
      vertex 4.25 4.25 0
      vertex 4.25 -4.25 5
      vertex 4.25 -4.25 0
    endloop
  endfacet
  facet normal 0 1 -0
    outer loop
      vertex 4.25 4.25 0
      vertex -4.25 4.25 5
      vertex 4.25 4.25 5
    endloop
  endfacet
  facet normal 0 1 0
    outer loop
      vertex -4.25 4.25 5
      vertex 4.25 4.25 0
      vertex -4.25 4.25 0
    endloop
  endfacet
  facet normal 0 0 -1
    outer loop
      vertex 4.25 -4.25 0
      vertex 2.75 0 0
      vertex 4.25 4.25 0
    endloop
  endfacet
  facet normal 0 0 -1
    outer loop
      vertex 4.25 -4.25 0
      vertex 2.72832 -0.344666 0
      vertex 2.75 0 0
    endloop
  endfacet
  facet normal 0 0 -1
    outer loop
      vertex 4.25 -4.25 0
      vertex 2.6636 -0.683897 0
      vertex 2.72832 -0.344666 0
    endloop
  endfacet
  facet normal 0 0 -1
    outer loop
      vertex 4.25 -4.25 0
      vertex 2.55688 -1.01234 0
      vertex 2.6636 -0.683897 0
    endloop
  endfacet
  facet normal 0 0 -1
    outer loop
      vertex 4.25 -4.25 0
      vertex 2.40984 -1.32482 0
      vertex 2.55688 -1.01234 0
    endloop
  endfacet
  facet normal 0 0 -1
    outer loop
      vertex 4.25 -4.25 0
      vertex 2.2248 -1.61641 0
      vertex 2.40984 -1.32482 0
    endloop
  endfacet
  facet normal 0 0 -1
    outer loop
      vertex 4.25 -4.25 0
      vertex 2.00466 -1.8825 0
      vertex 2.2248 -1.61641 0
    endloop
  endfacet
  facet normal 0 0 -1
    outer loop
      vertex 4.25 -4.25 0
      vertex 1.75292 -2.11891 0
      vertex 2.00466 -1.8825 0
    endloop
  endfacet
  facet normal 0 0 -1
    outer loop
      vertex 4.25 -4.25 0
      vertex 1.47352 -2.3219 0
      vertex 1.75292 -2.11891 0
    endloop
  endfacet
  facet normal 0 0 -1
    outer loop
      vertex 4.25 -4.25 0
      vertex 1.17089 -2.48827 0
      vertex 1.47352 -2.3219 0
    endloop
  endfacet
  facet normal 0 0 -1
    outer loop
      vertex 4.25 -4.25 0
      vertex 0.849796 -2.61541 0
      vertex 1.17089 -2.48827 0
    endloop
  endfacet
  facet normal 0 0 -1
    outer loop
      vertex 4.25 -4.25 0
      vertex 0.515298 -2.70129 0
      vertex 0.849796 -2.61541 0
    endloop
  endfacet
  facet normal 0 0 -1
    outer loop
      vertex 4.25 -4.25 0
      vertex 0.172673 -2.74457 0
      vertex 0.515298 -2.70129 0
    endloop
  endfacet
  facet normal 0 0 -1
    outer loop
      vertex 4.25 -4.25 0
      vertex -0.172673 -2.74457 0
      vertex 0.172673 -2.74457 0
    endloop
  endfacet
  facet normal 0 0 -1
    outer loop
      vertex -4.25 -4.25 0
      vertex -0.172673 -2.74457 0
      vertex 4.25 -4.25 0
    endloop
  endfacet
  facet normal -0 0 -1
    outer loop
      vertex -0.172673 -2.74457 0
      vertex -4.25 -4.25 0
      vertex -0.515298 -2.70129 0
    endloop
  endfacet
  facet normal -0 0 -1
    outer loop
      vertex -2.72832 -0.344666 0
      vertex -4.25 -4.25 0
      vertex -2.75 0 0
    endloop
  endfacet
  facet normal -0 0 -1
    outer loop
      vertex -2.6636 -0.683897 0
      vertex -4.25 -4.25 0
      vertex -2.72832 -0.344666 0
    endloop
  endfacet
  facet normal -0 0 -1
    outer loop
      vertex -2.55688 -1.01234 0
      vertex -4.25 -4.25 0
      vertex -2.6636 -0.683897 0
    endloop
  endfacet
  facet normal -0 0 -1
    outer loop
      vertex -2.40984 -1.32482 0
      vertex -4.25 -4.25 0
      vertex -2.55688 -1.01234 0
    endloop
  endfacet
  facet normal -0 0 -1
    outer loop
      vertex -2.2248 -1.61641 0
      vertex -4.25 -4.25 0
      vertex -2.40984 -1.32482 0
    endloop
  endfacet
  facet normal -0 0 -1
    outer loop
      vertex -2.00466 -1.8825 0
      vertex -4.25 -4.25 0
      vertex -2.2248 -1.61641 0
    endloop
  endfacet
  facet normal -0 0 -1
    outer loop
      vertex -1.75292 -2.11891 0
      vertex -4.25 -4.25 0
      vertex -2.00466 -1.8825 0
    endloop
  endfacet
  facet normal -0 0 -1
    outer loop
      vertex -1.47352 -2.3219 0
      vertex -4.25 -4.25 0
      vertex -1.75292 -2.11891 0
    endloop
  endfacet
  facet normal -0 0 -1
    outer loop
      vertex -1.17089 -2.48827 0
      vertex -4.25 -4.25 0
      vertex -1.47352 -2.3219 0
    endloop
  endfacet
  facet normal -0 0 -1
    outer loop
      vertex -0.849796 -2.61541 0
      vertex -4.25 -4.25 0
      vertex -1.17089 -2.48827 0
    endloop
  endfacet
  facet normal -0 0 -1
    outer loop
      vertex -0.515298 -2.70129 0
      vertex -4.25 -4.25 0
      vertex -0.849796 -2.61541 0
    endloop
  endfacet
  facet normal 0 0 -1
    outer loop
      vertex 2.72832 0.344666 0
      vertex 4.25 4.25 0
      vertex 2.75 0 0
    endloop
  endfacet
  facet normal 0 0 -1
    outer loop
      vertex 2.6636 0.683897 0
      vertex 4.25 4.25 0
      vertex 2.72832 0.344666 0
    endloop
  endfacet
  facet normal 0 0 -1
    outer loop
      vertex 2.55688 1.01234 0
      vertex 4.25 4.25 0
      vertex 2.6636 0.683897 0
    endloop
  endfacet
  facet normal 0 0 -1
    outer loop
      vertex 2.40984 1.32482 0
      vertex 4.25 4.25 0
      vertex 2.55688 1.01234 0
    endloop
  endfacet
  facet normal 0 0 -1
    outer loop
      vertex 2.2248 1.61641 0
      vertex 4.25 4.25 0
      vertex 2.40984 1.32482 0
    endloop
  endfacet
  facet normal 0 0 -1
    outer loop
      vertex 2.00466 1.8825 0
      vertex 4.25 4.25 0
      vertex 2.2248 1.61641 0
    endloop
  endfacet
  facet normal 0 0 -1
    outer loop
      vertex 1.75292 2.11891 0
      vertex 4.25 4.25 0
      vertex 2.00466 1.8825 0
    endloop
  endfacet
  facet normal 0 0 -1
    outer loop
      vertex 1.47352 2.3219 0
      vertex 4.25 4.25 0
      vertex 1.75292 2.11891 0
    endloop
  endfacet
  facet normal 0 0 -1
    outer loop
      vertex 1.17089 2.48827 0
      vertex 4.25 4.25 0
      vertex 1.47352 2.3219 0
    endloop
  endfacet
  facet normal 0 0 -1
    outer loop
      vertex 0.849796 2.61541 0
      vertex 4.25 4.25 0
      vertex 1.17089 2.48827 0
    endloop
  endfacet
  facet normal 0 0 -1
    outer loop
      vertex 0.515298 2.70129 0
      vertex 4.25 4.25 0
      vertex 0.849796 2.61541 0
    endloop
  endfacet
  facet normal 0 0 -1
    outer loop
      vertex 0.172673 2.74457 0
      vertex 4.25 4.25 0
      vertex 0.515298 2.70129 0
    endloop
  endfacet
  facet normal 0 0 -1
    outer loop
      vertex -0.172673 2.74457 0
      vertex 4.25 4.25 0
      vertex 0.172673 2.74457 0
    endloop
  endfacet
  facet normal 0 0 -1
    outer loop
      vertex -4.25 4.25 0
      vertex -0.172673 2.74457 0
      vertex -0.515298 2.70129 0
    endloop
  endfacet
  facet normal 0 0 -1
    outer loop
      vertex -4.25 4.25 0
      vertex -0.515298 2.70129 0
      vertex -0.849796 2.61541 0
    endloop
  endfacet
  facet normal 0 0 -1
    outer loop
      vertex -4.25 4.25 0
      vertex -2.75 0 0
      vertex -4.25 -4.25 0
    endloop
  endfacet
  facet normal 0 0 -1
    outer loop
      vertex -2.75 0 0
      vertex -4.25 4.25 0
      vertex -2.72832 0.344666 0
    endloop
  endfacet
  facet normal 0 0 -1
    outer loop
      vertex -0.172673 2.74457 0
      vertex -4.25 4.25 0
      vertex 4.25 4.25 0
    endloop
  endfacet
  facet normal 0 0 -1
    outer loop
      vertex -1.17089 2.48827 0
      vertex -4.25 4.25 0
      vertex -0.849796 2.61541 0
    endloop
  endfacet
  facet normal 0 0 -1
    outer loop
      vertex -1.47352 2.3219 0
      vertex -4.25 4.25 0
      vertex -1.17089 2.48827 0
    endloop
  endfacet
  facet normal 0 0 -1
    outer loop
      vertex -1.75292 2.11891 0
      vertex -4.25 4.25 0
      vertex -1.47352 2.3219 0
    endloop
  endfacet
  facet normal 0 0 -1
    outer loop
      vertex -2.00466 1.8825 0
      vertex -4.25 4.25 0
      vertex -1.75292 2.11891 0
    endloop
  endfacet
  facet normal 0 0 -1
    outer loop
      vertex -2.2248 1.61641 0
      vertex -4.25 4.25 0
      vertex -2.00466 1.8825 0
    endloop
  endfacet
  facet normal 0 0 -1
    outer loop
      vertex -2.40984 1.32482 0
      vertex -4.25 4.25 0
      vertex -2.2248 1.61641 0
    endloop
  endfacet
  facet normal 0 0 -1
    outer loop
      vertex -2.55688 1.01234 0
      vertex -4.25 4.25 0
      vertex -2.40984 1.32482 0
    endloop
  endfacet
  facet normal 0 0 -1
    outer loop
      vertex -2.6636 0.683897 0
      vertex -4.25 4.25 0
      vertex -2.55688 1.01234 0
    endloop
  endfacet
  facet normal 0 0 -1
    outer loop
      vertex -2.72832 0.344666 0
      vertex -4.25 4.25 0
      vertex -2.6636 0.683897 0
    endloop
  endfacet
  facet normal 0 -1 0
    outer loop
      vertex -4.25 -4.25 0
      vertex 4.25 -4.25 5
      vertex -4.25 -4.25 5
    endloop
  endfacet
  facet normal 0 -1 -0
    outer loop
      vertex 4.25 -4.25 5
      vertex -4.25 -4.25 0
      vertex 4.25 -4.25 0
    endloop
  endfacet
  facet normal -0.998027 -0.0627909 0
    outer loop
      vertex 2.75 0 0
      vertex 2.72832 0.344666 5
      vertex 2.72832 0.344666 0
    endloop
  endfacet
  facet normal -0.998027 -0.0627909 0
    outer loop
      vertex 2.72832 0.344666 5
      vertex 2.75 0 0
      vertex 2.75 0 5
    endloop
  endfacet
  facet normal 0.998027 -0.0627909 0
    outer loop
      vertex -2.75 0 5
      vertex -2.72832 0.344666 0
      vertex -2.72832 0.344666 5
    endloop
  endfacet
  facet normal 0.998027 -0.0627909 0
    outer loop
      vertex -2.72832 0.344666 0
      vertex -2.75 0 5
      vertex -2.75 0 0
    endloop
  endfacet
  facet normal 0 -1 0
    outer loop
      vertex -0.172673 2.74457 0
      vertex 0.172673 2.74457 5
      vertex -0.172673 2.74457 5
    endloop
  endfacet
  facet normal 0 -1 -0
    outer loop
      vertex 0.172673 2.74457 5
      vertex -0.172673 2.74457 0
      vertex 0.172673 2.74457 0
    endloop
  endfacet
  facet normal 0 1 -0
    outer loop
      vertex 0.172673 -2.74457 0
      vertex -0.172673 -2.74457 5
      vertex 0.172673 -2.74457 5
    endloop
  endfacet
  facet normal 0 1 0
    outer loop
      vertex -0.172673 -2.74457 5
      vertex 0.172673 -2.74457 0
      vertex -0.172673 -2.74457 0
    endloop
  endfacet
  facet normal -0.684546 0.72897 0
    outer loop
      vertex 2.00466 -1.8825 0
      vertex 1.75292 -2.11891 5
      vertex 2.00466 -1.8825 5
    endloop
  endfacet
  facet normal -0.684546 0.72897 0
    outer loop
      vertex 1.75292 -2.11891 5
      vertex 2.00466 -1.8825 0
      vertex 1.75292 -2.11891 0
    endloop
  endfacet
  facet normal -0.684546 -0.72897 0
    outer loop
      vertex 1.75292 2.11891 0
      vertex 2.00466 1.8825 5
      vertex 1.75292 2.11891 5
    endloop
  endfacet
  facet normal -0.684546 -0.72897 -0
    outer loop
      vertex 2.00466 1.8825 5
      vertex 1.75292 2.11891 0
      vertex 2.00466 1.8825 0
    endloop
  endfacet
  facet normal 0.684546 -0.72897 0
    outer loop
      vertex -2.00466 1.8825 0
      vertex -1.75292 2.11891 5
      vertex -2.00466 1.8825 5
    endloop
  endfacet
  facet normal 0.684546 -0.72897 0
    outer loop
      vertex -1.75292 2.11891 5
      vertex -2.00466 1.8825 0
      vertex -1.75292 2.11891 0
    endloop
  endfacet
  facet normal 0.368126 -0.929776 0
    outer loop
      vertex -1.17089 2.48827 0
      vertex -0.849796 2.61541 5
      vertex -1.17089 2.48827 5
    endloop
  endfacet
  facet normal 0.368126 -0.929776 0
    outer loop
      vertex -0.849796 2.61541 5
      vertex -1.17089 2.48827 0
      vertex -0.849796 2.61541 0
    endloop
  endfacet
  facet normal -0.904827 0.42578 0
    outer loop
      vertex 2.40984 -1.32482 0
      vertex 2.55688 -1.01234 5
      vertex 2.55688 -1.01234 0
    endloop
  endfacet
  facet normal -0.904827 0.42578 0
    outer loop
      vertex 2.55688 -1.01234 5
      vertex 2.40984 -1.32482 0
      vertex 2.40984 -1.32482 5
    endloop
  endfacet
  facet normal -0.904827 -0.42578 0
    outer loop
      vertex 2.55688 1.01234 0
      vertex 2.40984 1.32482 5
      vertex 2.40984 1.32482 0
    endloop
  endfacet
  facet normal -0.904827 -0.42578 0
    outer loop
      vertex 2.40984 1.32482 5
      vertex 2.55688 1.01234 0
      vertex 2.55688 1.01234 5
    endloop
  endfacet
  facet normal -0.368126 -0.929776 0
    outer loop
      vertex 0.849796 2.61541 0
      vertex 1.17089 2.48827 5
      vertex 0.849796 2.61541 5
    endloop
  endfacet
  facet normal -0.368126 -0.929776 -0
    outer loop
      vertex 1.17089 2.48827 5
      vertex 0.849796 2.61541 0
      vertex 1.17089 2.48827 0
    endloop
  endfacet
  facet normal -0.587786 -0.809017 0
    outer loop
      vertex 1.47352 2.3219 0
      vertex 1.75292 2.11891 5
      vertex 1.47352 2.3219 5
    endloop
  endfacet
  facet normal -0.587786 -0.809017 -0
    outer loop
      vertex 1.75292 2.11891 5
      vertex 1.47352 2.3219 0
      vertex 1.75292 2.11891 0
    endloop
  endfacet
  facet normal 0.904827 -0.42578 0
    outer loop
      vertex -2.55688 1.01234 5
      vertex -2.40984 1.32482 0
      vertex -2.40984 1.32482 5
    endloop
  endfacet
  facet normal 0.904827 -0.42578 0
    outer loop
      vertex -2.40984 1.32482 0
      vertex -2.55688 1.01234 5
      vertex -2.55688 1.01234 0
    endloop
  endfacet
  facet normal 0.770514 -0.637424 0
    outer loop
      vertex -2.2248 1.61641 5
      vertex -2.00466 1.8825 0
      vertex -2.00466 1.8825 5
    endloop
  endfacet
  facet normal 0.770514 -0.637424 0
    outer loop
      vertex -2.00466 1.8825 0
      vertex -2.2248 1.61641 5
      vertex -2.2248 1.61641 0
    endloop
  endfacet
  facet normal 0.481753 -0.876307 0
    outer loop
      vertex -1.47352 2.3219 0
      vertex -1.17089 2.48827 5
      vertex -1.47352 2.3219 5
    endloop
  endfacet
  facet normal 0.481753 -0.876307 0
    outer loop
      vertex -1.17089 2.48827 5
      vertex -1.47352 2.3219 0
      vertex -1.17089 2.48827 0
    endloop
  endfacet
  facet normal 0.248689 -0.968584 0
    outer loop
      vertex -0.849796 2.61541 0
      vertex -0.515298 2.70129 5
      vertex -0.849796 2.61541 5
    endloop
  endfacet
  facet normal 0.248689 -0.968584 0
    outer loop
      vertex -0.515298 2.70129 5
      vertex -0.849796 2.61541 0
      vertex -0.515298 2.70129 0
    endloop
  endfacet
  facet normal -0.982287 0.187383 0
    outer loop
      vertex 2.6636 -0.683897 0
      vertex 2.72832 -0.344666 5
      vertex 2.72832 -0.344666 0
    endloop
  endfacet
  facet normal -0.982287 0.187383 0
    outer loop
      vertex 2.72832 -0.344666 5
      vertex 2.6636 -0.683897 0
      vertex 2.6636 -0.683897 5
    endloop
  endfacet
  facet normal -0.368126 0.929776 0
    outer loop
      vertex 1.17089 -2.48827 0
      vertex 0.849796 -2.61541 5
      vertex 1.17089 -2.48827 5
    endloop
  endfacet
  facet normal -0.368126 0.929776 0
    outer loop
      vertex 0.849796 -2.61541 5
      vertex 1.17089 -2.48827 0
      vertex 0.849796 -2.61541 0
    endloop
  endfacet
  facet normal -0.951057 -0.309016 0
    outer loop
      vertex 2.6636 0.683897 0
      vertex 2.55688 1.01234 5
      vertex 2.55688 1.01234 0
    endloop
  endfacet
  facet normal -0.951057 -0.309016 0
    outer loop
      vertex 2.55688 1.01234 5
      vertex 2.6636 0.683897 0
      vertex 2.6636 0.683897 5
    endloop
  endfacet
  facet normal -0.982287 -0.187383 0
    outer loop
      vertex 2.72832 0.344666 0
      vertex 2.6636 0.683897 5
      vertex 2.6636 0.683897 0
    endloop
  endfacet
  facet normal -0.982287 -0.187383 0
    outer loop
      vertex 2.6636 0.683897 5
      vertex 2.72832 0.344666 0
      vertex 2.72832 0.344666 5
    endloop
  endfacet
  facet normal -0.770514 -0.637424 0
    outer loop
      vertex 2.2248 1.61641 0
      vertex 2.00466 1.8825 5
      vertex 2.00466 1.8825 0
    endloop
  endfacet
  facet normal -0.770514 -0.637424 0
    outer loop
      vertex 2.00466 1.8825 5
      vertex 2.2248 1.61641 0
      vertex 2.2248 1.61641 5
    endloop
  endfacet
  facet normal -0.844329 -0.535826 0
    outer loop
      vertex 2.40984 1.32482 0
      vertex 2.2248 1.61641 5
      vertex 2.2248 1.61641 0
    endloop
  endfacet
  facet normal -0.844329 -0.535826 0
    outer loop
      vertex 2.2248 1.61641 5
      vertex 2.40984 1.32482 0
      vertex 2.40984 1.32482 5
    endloop
  endfacet
  facet normal -0.248689 -0.968584 0
    outer loop
      vertex 0.515298 2.70129 0
      vertex 0.849796 2.61541 5
      vertex 0.515298 2.70129 5
    endloop
  endfacet
  facet normal -0.248689 -0.968584 -0
    outer loop
      vertex 0.849796 2.61541 5
      vertex 0.515298 2.70129 0
      vertex 0.849796 2.61541 0
    endloop
  endfacet
  facet normal -0.125333 -0.992115 0
    outer loop
      vertex 0.172673 2.74457 0
      vertex 0.515298 2.70129 5
      vertex 0.172673 2.74457 5
    endloop
  endfacet
  facet normal -0.125333 -0.992115 -0
    outer loop
      vertex 0.515298 2.70129 5
      vertex 0.172673 2.74457 0
      vertex 0.515298 2.70129 0
    endloop
  endfacet
  facet normal -0.481753 -0.876307 0
    outer loop
      vertex 1.17089 2.48827 0
      vertex 1.47352 2.3219 5
      vertex 1.17089 2.48827 5
    endloop
  endfacet
  facet normal -0.481753 -0.876307 -0
    outer loop
      vertex 1.47352 2.3219 5
      vertex 1.17089 2.48827 0
      vertex 1.47352 2.3219 0
    endloop
  endfacet
  facet normal 0.844329 -0.535826 0
    outer loop
      vertex -2.40984 1.32482 5
      vertex -2.2248 1.61641 0
      vertex -2.2248 1.61641 5
    endloop
  endfacet
  facet normal 0.844329 -0.535826 0
    outer loop
      vertex -2.2248 1.61641 0
      vertex -2.40984 1.32482 5
      vertex -2.40984 1.32482 0
    endloop
  endfacet
  facet normal 0.951057 -0.309016 0
    outer loop
      vertex -2.6636 0.683897 5
      vertex -2.55688 1.01234 0
      vertex -2.55688 1.01234 5
    endloop
  endfacet
  facet normal 0.951057 -0.309016 0
    outer loop
      vertex -2.55688 1.01234 0
      vertex -2.6636 0.683897 5
      vertex -2.6636 0.683897 0
    endloop
  endfacet
  facet normal 0.982287 -0.187383 0
    outer loop
      vertex -2.72832 0.344666 5
      vertex -2.6636 0.683897 0
      vertex -2.6636 0.683897 5
    endloop
  endfacet
  facet normal 0.982287 -0.187383 0
    outer loop
      vertex -2.6636 0.683897 0
      vertex -2.72832 0.344666 5
      vertex -2.72832 0.344666 0
    endloop
  endfacet
  facet normal 0.587786 -0.809017 0
    outer loop
      vertex -1.75292 2.11891 0
      vertex -1.47352 2.3219 5
      vertex -1.75292 2.11891 5
    endloop
  endfacet
  facet normal 0.587786 -0.809017 0
    outer loop
      vertex -1.47352 2.3219 5
      vertex -1.75292 2.11891 0
      vertex -1.47352 2.3219 0
    endloop
  endfacet
  facet normal 0.125333 -0.992115 0
    outer loop
      vertex -0.515298 2.70129 0
      vertex -0.172673 2.74457 5
      vertex -0.515298 2.70129 5
    endloop
  endfacet
  facet normal 0.125333 -0.992115 0
    outer loop
      vertex -0.172673 2.74457 5
      vertex -0.515298 2.70129 0
      vertex -0.172673 2.74457 0
    endloop
  endfacet
  facet normal -0.998027 0.0627909 0
    outer loop
      vertex 2.72832 -0.344666 0
      vertex 2.75 0 5
      vertex 2.75 0 0
    endloop
  endfacet
  facet normal -0.998027 0.0627909 0
    outer loop
      vertex 2.75 0 5
      vertex 2.72832 -0.344666 0
      vertex 2.72832 -0.344666 5
    endloop
  endfacet
  facet normal -0.770514 0.637424 0
    outer loop
      vertex 2.00466 -1.8825 0
      vertex 2.2248 -1.61641 5
      vertex 2.2248 -1.61641 0
    endloop
  endfacet
  facet normal -0.770514 0.637424 0
    outer loop
      vertex 2.2248 -1.61641 5
      vertex 2.00466 -1.8825 0
      vertex 2.00466 -1.8825 5
    endloop
  endfacet
  facet normal 0.684546 0.72897 -0
    outer loop
      vertex -1.75292 -2.11891 0
      vertex -2.00466 -1.8825 5
      vertex -1.75292 -2.11891 5
    endloop
  endfacet
  facet normal 0.684546 0.72897 0
    outer loop
      vertex -2.00466 -1.8825 5
      vertex -1.75292 -2.11891 0
      vertex -2.00466 -1.8825 0
    endloop
  endfacet
  facet normal 0.904827 0.42578 0
    outer loop
      vertex -2.40984 -1.32482 5
      vertex -2.55688 -1.01234 0
      vertex -2.55688 -1.01234 5
    endloop
  endfacet
  facet normal 0.904827 0.42578 0
    outer loop
      vertex -2.55688 -1.01234 0
      vertex -2.40984 -1.32482 5
      vertex -2.40984 -1.32482 0
    endloop
  endfacet
  facet normal 0.770514 0.637424 0
    outer loop
      vertex -2.00466 -1.8825 5
      vertex -2.2248 -1.61641 0
      vertex -2.2248 -1.61641 5
    endloop
  endfacet
  facet normal 0.770514 0.637424 0
    outer loop
      vertex -2.2248 -1.61641 0
      vertex -2.00466 -1.8825 5
      vertex -2.00466 -1.8825 0
    endloop
  endfacet
  facet normal -0.481753 0.876307 0
    outer loop
      vertex 1.47352 -2.3219 0
      vertex 1.17089 -2.48827 5
      vertex 1.47352 -2.3219 5
    endloop
  endfacet
  facet normal -0.481753 0.876307 0
    outer loop
      vertex 1.17089 -2.48827 5
      vertex 1.47352 -2.3219 0
      vertex 1.17089 -2.48827 0
    endloop
  endfacet
  facet normal -0.951057 0.309016 0
    outer loop
      vertex 2.55688 -1.01234 0
      vertex 2.6636 -0.683897 5
      vertex 2.6636 -0.683897 0
    endloop
  endfacet
  facet normal -0.951057 0.309016 0
    outer loop
      vertex 2.6636 -0.683897 5
      vertex 2.55688 -1.01234 0
      vertex 2.55688 -1.01234 5
    endloop
  endfacet
  facet normal -0.844329 0.535826 0
    outer loop
      vertex 2.2248 -1.61641 0
      vertex 2.40984 -1.32482 5
      vertex 2.40984 -1.32482 0
    endloop
  endfacet
  facet normal -0.844329 0.535826 0
    outer loop
      vertex 2.40984 -1.32482 5
      vertex 2.2248 -1.61641 0
      vertex 2.2248 -1.61641 5
    endloop
  endfacet
  facet normal 0.982287 0.187383 0
    outer loop
      vertex -2.6636 -0.683897 5
      vertex -2.72832 -0.344666 0
      vertex -2.72832 -0.344666 5
    endloop
  endfacet
  facet normal 0.982287 0.187383 0
    outer loop
      vertex -2.72832 -0.344666 0
      vertex -2.6636 -0.683897 5
      vertex -2.6636 -0.683897 0
    endloop
  endfacet
  facet normal 0.998027 0.0627909 0
    outer loop
      vertex -2.72832 -0.344666 5
      vertex -2.75 0 0
      vertex -2.75 0 5
    endloop
  endfacet
  facet normal 0.998027 0.0627909 0
    outer loop
      vertex -2.75 0 0
      vertex -2.72832 -0.344666 5
      vertex -2.72832 -0.344666 0
    endloop
  endfacet
  facet normal 0.951057 0.309016 0
    outer loop
      vertex -2.55688 -1.01234 5
      vertex -2.6636 -0.683897 0
      vertex -2.6636 -0.683897 5
    endloop
  endfacet
  facet normal 0.951057 0.309016 0
    outer loop
      vertex -2.6636 -0.683897 0
      vertex -2.55688 -1.01234 5
      vertex -2.55688 -1.01234 0
    endloop
  endfacet
  facet normal -0.587786 0.809017 0
    outer loop
      vertex 1.75292 -2.11891 0
      vertex 1.47352 -2.3219 5
      vertex 1.75292 -2.11891 5
    endloop
  endfacet
  facet normal -0.587786 0.809017 0
    outer loop
      vertex 1.47352 -2.3219 5
      vertex 1.75292 -2.11891 0
      vertex 1.47352 -2.3219 0
    endloop
  endfacet
  facet normal -0.248689 0.968584 0
    outer loop
      vertex 0.849796 -2.61541 0
      vertex 0.515298 -2.70129 5
      vertex 0.849796 -2.61541 5
    endloop
  endfacet
  facet normal -0.248689 0.968584 0
    outer loop
      vertex 0.515298 -2.70129 5
      vertex 0.849796 -2.61541 0
      vertex 0.515298 -2.70129 0
    endloop
  endfacet
  facet normal -0.125333 0.992115 0
    outer loop
      vertex 0.515298 -2.70129 0
      vertex 0.172673 -2.74457 5
      vertex 0.515298 -2.70129 5
    endloop
  endfacet
  facet normal -0.125333 0.992115 0
    outer loop
      vertex 0.172673 -2.74457 5
      vertex 0.515298 -2.70129 0
      vertex 0.172673 -2.74457 0
    endloop
  endfacet
  facet normal 0.125333 0.992115 -0
    outer loop
      vertex -0.172673 -2.74457 0
      vertex -0.515298 -2.70129 5
      vertex -0.172673 -2.74457 5
    endloop
  endfacet
  facet normal 0.125333 0.992115 0
    outer loop
      vertex -0.515298 -2.70129 5
      vertex -0.172673 -2.74457 0
      vertex -0.515298 -2.70129 0
    endloop
  endfacet
  facet normal 0.368126 0.929776 -0
    outer loop
      vertex -0.849796 -2.61541 0
      vertex -1.17089 -2.48827 5
      vertex -0.849796 -2.61541 5
    endloop
  endfacet
  facet normal 0.368126 0.929776 0
    outer loop
      vertex -1.17089 -2.48827 5
      vertex -0.849796 -2.61541 0
      vertex -1.17089 -2.48827 0
    endloop
  endfacet
  facet normal 0.248689 0.968584 -0
    outer loop
      vertex -0.515298 -2.70129 0
      vertex -0.849796 -2.61541 5
      vertex -0.515298 -2.70129 5
    endloop
  endfacet
  facet normal 0.248689 0.968584 0
    outer loop
      vertex -0.849796 -2.61541 5
      vertex -0.515298 -2.70129 0
      vertex -0.849796 -2.61541 0
    endloop
  endfacet
  facet normal 0.844329 0.535826 0
    outer loop
      vertex -2.2248 -1.61641 5
      vertex -2.40984 -1.32482 0
      vertex -2.40984 -1.32482 5
    endloop
  endfacet
  facet normal 0.844329 0.535826 0
    outer loop
      vertex -2.40984 -1.32482 0
      vertex -2.2248 -1.61641 5
      vertex -2.2248 -1.61641 0
    endloop
  endfacet
  facet normal 0.481753 0.876307 -0
    outer loop
      vertex -1.17089 -2.48827 0
      vertex -1.47352 -2.3219 5
      vertex -1.17089 -2.48827 5
    endloop
  endfacet
  facet normal 0.481753 0.876307 0
    outer loop
      vertex -1.47352 -2.3219 5
      vertex -1.17089 -2.48827 0
      vertex -1.47352 -2.3219 0
    endloop
  endfacet
  facet normal 0.587786 0.809017 -0
    outer loop
      vertex -1.47352 -2.3219 0
      vertex -1.75292 -2.11891 5
      vertex -1.47352 -2.3219 5
    endloop
  endfacet
  facet normal 0.587786 0.809017 0
    outer loop
      vertex -1.75292 -2.11891 5
      vertex -1.47352 -2.3219 0
      vertex -1.75292 -2.11891 0
    endloop
  endfacet
endsolid OpenSCAD_Model
