solid OpenSCAD_Model
  facet normal -1 0 0
    outer loop
      vertex -5.66 -5.66 0
      vertex -5.66 5.66 5
      vertex -5.66 5.66 0
    endloop
  endfacet
  facet normal -1 -0 0
    outer loop
      vertex -5.66 5.66 5
      vertex -5.66 -5.66 0
      vertex -5.66 -5.66 5
    endloop
  endfacet
  facet normal 0 0 1
    outer loop
      vertex 5.66 5.66 5
      vertex 4.16 0 5
      vertex 5.66 -5.66 5
    endloop
  endfacet
  facet normal 0 0 1
    outer loop
      vertex 5.66 5.66 5
      vertex 4.1272 0.521386 5
      vertex 4.16 0 5
    endloop
  endfacet
  facet normal 0 0 1
    outer loop
      vertex 5.66 5.66 5
      vertex 4.02931 1.03455 5
      vertex 4.1272 0.521386 5
    endloop
  endfacet
  facet normal 0 0 1
    outer loop
      vertex 5.66 5.66 5
      vertex 3.86787 1.5314 5
      vertex 4.02931 1.03455 5
    endloop
  endfacet
  facet normal 0 0 1
    outer loop
      vertex 5.66 5.66 5
      vertex 3.64544 2.0041 5
      vertex 3.86787 1.5314 5
    endloop
  endfacet
  facet normal 0 0 1
    outer loop
      vertex 5.66 5.66 5
      vertex 3.36551 2.44519 5
      vertex 3.64544 2.0041 5
    endloop
  endfacet
  facet normal 0 0 1
    outer loop
      vertex 5.66 5.66 5
      vertex 3.03251 2.84772 5
      vertex 3.36551 2.44519 5
    endloop
  endfacet
  facet normal 0 0 1
    outer loop
      vertex 5.66 5.66 5
      vertex 2.65168 3.20533 5
      vertex 3.03251 2.84772 5
    endloop
  endfacet
  facet normal 0 0 1
    outer loop
      vertex 5.66 5.66 5
      vertex 2.22904 3.5124 5
      vertex 2.65168 3.20533 5
    endloop
  endfacet
  facet normal 0 0 1
    outer loop
      vertex 5.66 5.66 5
      vertex 1.77124 3.76408 5
      vertex 2.22904 3.5124 5
    endloop
  endfacet
  facet normal 0 0 1
    outer loop
      vertex 5.66 5.66 5
      vertex 1.28551 3.95639 5
      vertex 1.77124 3.76408 5
    endloop
  endfacet
  facet normal 0 0 1
    outer loop
      vertex 5.66 5.66 5
      vertex 0.779506 4.08631 5
      vertex 1.28551 3.95639 5
    endloop
  endfacet
  facet normal 0 0 1
    outer loop
      vertex 5.66 5.66 5
      vertex 0.261209 4.15179 5
      vertex 0.779506 4.08631 5
    endloop
  endfacet
  facet normal 0 0 1
    outer loop
      vertex 5.66 5.66 5
      vertex -0.261209 4.15179 5
      vertex 0.261209 4.15179 5
    endloop
  endfacet
  facet normal -0 0 1
    outer loop
      vertex -5.66 5.66 5
      vertex -0.261209 4.15179 5
      vertex 5.66 5.66 5
    endloop
  endfacet
  facet normal 0 0 1
    outer loop
      vertex -4.1272 0.521386 5
      vertex -5.66 5.66 5
      vertex -4.16 0 5
    endloop
  endfacet
  facet normal 0 0 1
    outer loop
      vertex -4.02931 1.03455 5
      vertex -5.66 5.66 5
      vertex -4.1272 0.521386 5
    endloop
  endfacet
  facet normal 0 0 1
    outer loop
      vertex -3.86787 1.5314 5
      vertex -5.66 5.66 5
      vertex -4.02931 1.03455 5
    endloop
  endfacet
  facet normal 0 0 1
    outer loop
      vertex -3.64544 2.0041 5
      vertex -5.66 5.66 5
      vertex -3.86787 1.5314 5
    endloop
  endfacet
  facet normal 0 0 1
    outer loop
      vertex -3.36551 2.44519 5
      vertex -5.66 5.66 5
      vertex -3.64544 2.0041 5
    endloop
  endfacet
  facet normal 0 0 1
    outer loop
      vertex -3.03251 2.84772 5
      vertex -5.66 5.66 5
      vertex -3.36551 2.44519 5
    endloop
  endfacet
  facet normal 0 0 1
    outer loop
      vertex -2.65168 3.20533 5
      vertex -5.66 5.66 5
      vertex -3.03251 2.84772 5
    endloop
  endfacet
  facet normal 0 0 1
    outer loop
      vertex -2.22904 3.5124 5
      vertex -5.66 5.66 5
      vertex -2.65168 3.20533 5
    endloop
  endfacet
  facet normal 0 0 1
    outer loop
      vertex -1.77124 3.76408 5
      vertex -5.66 5.66 5
      vertex -2.22904 3.5124 5
    endloop
  endfacet
  facet normal 0 0 1
    outer loop
      vertex -1.28551 3.95639 5
      vertex -5.66 5.66 5
      vertex -1.77124 3.76408 5
    endloop
  endfacet
  facet normal 0 0 1
    outer loop
      vertex -0.779506 4.08631 5
      vertex -5.66 5.66 5
      vertex -1.28551 3.95639 5
    endloop
  endfacet
  facet normal 0 0 1
    outer loop
      vertex -0.261209 4.15179 5
      vertex -5.66 5.66 5
      vertex -0.779506 4.08631 5
    endloop
  endfacet
  facet normal -0 0 1
    outer loop
      vertex 4.1272 -0.521386 5
      vertex 5.66 -5.66 5
      vertex 4.16 0 5
    endloop
  endfacet
  facet normal -0 0 1
    outer loop
      vertex 4.02931 -1.03455 5
      vertex 5.66 -5.66 5
      vertex 4.1272 -0.521386 5
    endloop
  endfacet
  facet normal -0 0 1
    outer loop
      vertex 3.86787 -1.5314 5
      vertex 5.66 -5.66 5
      vertex 4.02931 -1.03455 5
    endloop
  endfacet
  facet normal -0 0 1
    outer loop
      vertex 3.64544 -2.0041 5
      vertex 5.66 -5.66 5
      vertex 3.86787 -1.5314 5
    endloop
  endfacet
  facet normal -0 0 1
    outer loop
      vertex 3.36551 -2.44519 5
      vertex 5.66 -5.66 5
      vertex 3.64544 -2.0041 5
    endloop
  endfacet
  facet normal -0 0 1
    outer loop
      vertex 3.03251 -2.84772 5
      vertex 5.66 -5.66 5
      vertex 3.36551 -2.44519 5
    endloop
  endfacet
  facet normal -0 0 1
    outer loop
      vertex 2.65168 -3.20533 5
      vertex 5.66 -5.66 5
      vertex 3.03251 -2.84772 5
    endloop
  endfacet
  facet normal -0 0 1
    outer loop
      vertex 2.22904 -3.5124 5
      vertex 5.66 -5.66 5
      vertex 2.65168 -3.20533 5
    endloop
  endfacet
  facet normal -0 0 1
    outer loop
      vertex 1.77124 -3.76408 5
      vertex 5.66 -5.66 5
      vertex 2.22904 -3.5124 5
    endloop
  endfacet
  facet normal -0 0 1
    outer loop
      vertex 1.28551 -3.95639 5
      vertex 5.66 -5.66 5
      vertex 1.77124 -3.76408 5
    endloop
  endfacet
  facet normal -0 0 1
    outer loop
      vertex 0.779506 -4.08631 5
      vertex 5.66 -5.66 5
      vertex 1.28551 -3.95639 5
    endloop
  endfacet
  facet normal -0 0 1
    outer loop
      vertex 0.261209 -4.15179 5
      vertex 5.66 -5.66 5
      vertex 0.779506 -4.08631 5
    endloop
  endfacet
  facet normal -0 0 1
    outer loop
      vertex -0.261209 -4.15179 5
      vertex 5.66 -5.66 5
      vertex 0.261209 -4.15179 5
    endloop
  endfacet
  facet normal 0 0 1
    outer loop
      vertex -5.66 -5.66 5
      vertex -0.261209 -4.15179 5
      vertex -0.779506 -4.08631 5
    endloop
  endfacet
  facet normal 0 0 1
    outer loop
      vertex -5.66 -5.66 5
      vertex -4.16 0 5
      vertex -5.66 5.66 5
    endloop
  endfacet
  facet normal 0 0 1
    outer loop
      vertex -4.16 0 5
      vertex -5.66 -5.66 5
      vertex -4.1272 -0.521386 5
    endloop
  endfacet
  facet normal 0 0 1
    outer loop
      vertex -0.261209 -4.15179 5
      vertex -5.66 -5.66 5
      vertex 5.66 -5.66 5
    endloop
  endfacet
  facet normal 0 0 1
    outer loop
      vertex -1.28551 -3.95639 5
      vertex -5.66 -5.66 5
      vertex -0.779506 -4.08631 5
    endloop
  endfacet
  facet normal 0 0 1
    outer loop
      vertex -1.77124 -3.76408 5
      vertex -5.66 -5.66 5
      vertex -1.28551 -3.95639 5
    endloop
  endfacet
  facet normal 0 0 1
    outer loop
      vertex -2.22904 -3.5124 5
      vertex -5.66 -5.66 5
      vertex -1.77124 -3.76408 5
    endloop
  endfacet
  facet normal 0 0 1
    outer loop
      vertex -2.65168 -3.20533 5
      vertex -5.66 -5.66 5
      vertex -2.22904 -3.5124 5
    endloop
  endfacet
  facet normal 0 0 1
    outer loop
      vertex -3.03251 -2.84772 5
      vertex -5.66 -5.66 5
      vertex -2.65168 -3.20533 5
    endloop
  endfacet
  facet normal 0 0 1
    outer loop
      vertex -3.36551 -2.44519 5
      vertex -5.66 -5.66 5
      vertex -3.03251 -2.84772 5
    endloop
  endfacet
  facet normal 0 0 1
    outer loop
      vertex -3.64544 -2.0041 5
      vertex -5.66 -5.66 5
      vertex -3.36551 -2.44519 5
    endloop
  endfacet
  facet normal 0 0 1
    outer loop
      vertex -3.86787 -1.5314 5
      vertex -5.66 -5.66 5
      vertex -3.64544 -2.0041 5
    endloop
  endfacet
  facet normal 0 0 1
    outer loop
      vertex -4.02931 -1.03455 5
      vertex -5.66 -5.66 5
      vertex -3.86787 -1.5314 5
    endloop
  endfacet
  facet normal 0 0 1
    outer loop
      vertex -4.1272 -0.521386 5
      vertex -5.66 -5.66 5
      vertex -4.02931 -1.03455 5
    endloop
  endfacet
  facet normal 1 -0 0
    outer loop
      vertex 5.66 -5.66 5
      vertex 5.66 5.66 0
      vertex 5.66 5.66 5
    endloop
  endfacet
  facet normal 1 0 0
    outer loop
      vertex 5.66 5.66 0
      vertex 5.66 -5.66 5
      vertex 5.66 -5.66 0
    endloop
  endfacet
  facet normal 0 0 -1
    outer loop
      vertex 5.66 -5.66 0
      vertex 4.16 0 0
      vertex 5.66 5.66 0
    endloop
  endfacet
  facet normal 0 0 -1
    outer loop
      vertex 5.66 -5.66 0
      vertex 4.1272 -0.521386 0
      vertex 4.16 0 0
    endloop
  endfacet
  facet normal 0 0 -1
    outer loop
      vertex 5.66 -5.66 0
      vertex 4.02931 -1.03455 0
      vertex 4.1272 -0.521386 0
    endloop
  endfacet
  facet normal 0 0 -1
    outer loop
      vertex 5.66 -5.66 0
      vertex 3.86787 -1.5314 0
      vertex 4.02931 -1.03455 0
    endloop
  endfacet
  facet normal 0 0 -1
    outer loop
      vertex 5.66 -5.66 0
      vertex 3.64544 -2.0041 0
      vertex 3.86787 -1.5314 0
    endloop
  endfacet
  facet normal 0 0 -1
    outer loop
      vertex 5.66 -5.66 0
      vertex 3.36551 -2.44519 0
      vertex 3.64544 -2.0041 0
    endloop
  endfacet
  facet normal 0 0 -1
    outer loop
      vertex 5.66 -5.66 0
      vertex 3.03251 -2.84772 0
      vertex 3.36551 -2.44519 0
    endloop
  endfacet
  facet normal 0 0 -1
    outer loop
      vertex 5.66 -5.66 0
      vertex 2.65168 -3.20533 0
      vertex 3.03251 -2.84772 0
    endloop
  endfacet
  facet normal 0 0 -1
    outer loop
      vertex 5.66 -5.66 0
      vertex 2.22904 -3.5124 0
      vertex 2.65168 -3.20533 0
    endloop
  endfacet
  facet normal 0 0 -1
    outer loop
      vertex 5.66 -5.66 0
      vertex 1.77124 -3.76408 0
      vertex 2.22904 -3.5124 0
    endloop
  endfacet
  facet normal 0 0 -1
    outer loop
      vertex 5.66 -5.66 0
      vertex 1.28551 -3.95639 0
      vertex 1.77124 -3.76408 0
    endloop
  endfacet
  facet normal 0 0 -1
    outer loop
      vertex 5.66 -5.66 0
      vertex 0.779506 -4.08631 0
      vertex 1.28551 -3.95639 0
    endloop
  endfacet
  facet normal 0 0 -1
    outer loop
      vertex 5.66 -5.66 0
      vertex 0.261209 -4.15179 0
      vertex 0.779506 -4.08631 0
    endloop
  endfacet
  facet normal 0 0 -1
    outer loop
      vertex 5.66 -5.66 0
      vertex -0.261209 -4.15179 0
      vertex 0.261209 -4.15179 0
    endloop
  endfacet
  facet normal 0 0 -1
    outer loop
      vertex -5.66 -5.66 0
      vertex -0.261209 -4.15179 0
      vertex 5.66 -5.66 0
    endloop
  endfacet
  facet normal -0 0 -1
    outer loop
      vertex -4.1272 -0.521386 0
      vertex -5.66 -5.66 0
      vertex -4.16 0 0
    endloop
  endfacet
  facet normal -0 0 -1
    outer loop
      vertex -4.02931 -1.03455 0
      vertex -5.66 -5.66 0
      vertex -4.1272 -0.521386 0
    endloop
  endfacet
  facet normal -0 0 -1
    outer loop
      vertex -3.86787 -1.5314 0
      vertex -5.66 -5.66 0
      vertex -4.02931 -1.03455 0
    endloop
  endfacet
  facet normal -0 0 -1
    outer loop
      vertex -3.64544 -2.0041 0
      vertex -5.66 -5.66 0
      vertex -3.86787 -1.5314 0
    endloop
  endfacet
  facet normal -0 0 -1
    outer loop
      vertex -3.36551 -2.44519 0
      vertex -5.66 -5.66 0
      vertex -3.64544 -2.0041 0
    endloop
  endfacet
  facet normal -0 0 -1
    outer loop
      vertex -3.03251 -2.84772 0
      vertex -5.66 -5.66 0
      vertex -3.36551 -2.44519 0
    endloop
  endfacet
  facet normal -0 0 -1
    outer loop
      vertex -2.65168 -3.20533 0
      vertex -5.66 -5.66 0
      vertex -3.03251 -2.84772 0
    endloop
  endfacet
  facet normal -0 0 -1
    outer loop
      vertex -2.22904 -3.5124 0
      vertex -5.66 -5.66 0
      vertex -2.65168 -3.20533 0
    endloop
  endfacet
  facet normal -0 0 -1
    outer loop
      vertex -1.77124 -3.76408 0
      vertex -5.66 -5.66 0
      vertex -2.22904 -3.5124 0
    endloop
  endfacet
  facet normal -0 0 -1
    outer loop
      vertex -1.28551 -3.95639 0
      vertex -5.66 -5.66 0
      vertex -1.77124 -3.76408 0
    endloop
  endfacet
  facet normal -0 0 -1
    outer loop
      vertex -0.779506 -4.08631 0
      vertex -5.66 -5.66 0
      vertex -1.28551 -3.95639 0
    endloop
  endfacet
  facet normal -0 0 -1
    outer loop
      vertex -0.261209 -4.15179 0
      vertex -5.66 -5.66 0
      vertex -0.779506 -4.08631 0
    endloop
  endfacet
  facet normal 0 0 -1
    outer loop
      vertex 4.1272 0.521386 0
      vertex 5.66 5.66 0
      vertex 4.16 0 0
    endloop
  endfacet
  facet normal 0 0 -1
    outer loop
      vertex 4.02931 1.03455 0
      vertex 5.66 5.66 0
      vertex 4.1272 0.521386 0
    endloop
  endfacet
  facet normal 0 0 -1
    outer loop
      vertex 3.86787 1.5314 0
      vertex 5.66 5.66 0
      vertex 4.02931 1.03455 0
    endloop
  endfacet
  facet normal 0 0 -1
    outer loop
      vertex 3.64544 2.0041 0
      vertex 5.66 5.66 0
      vertex 3.86787 1.5314 0
    endloop
  endfacet
  facet normal 0 0 -1
    outer loop
      vertex 3.36551 2.44519 0
      vertex 5.66 5.66 0
      vertex 3.64544 2.0041 0
    endloop
  endfacet
  facet normal 0 0 -1
    outer loop
      vertex 3.03251 2.84772 0
      vertex 5.66 5.66 0
      vertex 3.36551 2.44519 0
    endloop
  endfacet
  facet normal 0 0 -1
    outer loop
      vertex 2.65168 3.20533 0
      vertex 5.66 5.66 0
      vertex 3.03251 2.84772 0
    endloop
  endfacet
  facet normal 0 0 -1
    outer loop
      vertex 2.22904 3.5124 0
      vertex 5.66 5.66 0
      vertex 2.65168 3.20533 0
    endloop
  endfacet
  facet normal 0 0 -1
    outer loop
      vertex 1.77124 3.76408 0
      vertex 5.66 5.66 0
      vertex 2.22904 3.5124 0
    endloop
  endfacet
  facet normal 0 0 -1
    outer loop
      vertex 1.28551 3.95639 0
      vertex 5.66 5.66 0
      vertex 1.77124 3.76408 0
    endloop
  endfacet
  facet normal 0 0 -1
    outer loop
      vertex 0.779506 4.08631 0
      vertex 5.66 5.66 0
      vertex 1.28551 3.95639 0
    endloop
  endfacet
  facet normal 0 0 -1
    outer loop
      vertex 0.261209 4.15179 0
      vertex 5.66 5.66 0
      vertex 0.779506 4.08631 0
    endloop
  endfacet
  facet normal 0 0 -1
    outer loop
      vertex -0.261209 4.15179 0
      vertex 5.66 5.66 0
      vertex 0.261209 4.15179 0
    endloop
  endfacet
  facet normal 0 0 -1
    outer loop
      vertex -5.66 5.66 0
      vertex -0.261209 4.15179 0
      vertex -0.779506 4.08631 0
    endloop
  endfacet
  facet normal 0 0 -1
    outer loop
      vertex -5.66 5.66 0
      vertex -4.16 0 0
      vertex -5.66 -5.66 0
    endloop
  endfacet
  facet normal 0 0 -1
    outer loop
      vertex -4.16 0 0
      vertex -5.66 5.66 0
      vertex -4.1272 0.521386 0
    endloop
  endfacet
  facet normal 0 0 -1
    outer loop
      vertex -0.261209 4.15179 0
      vertex -5.66 5.66 0
      vertex 5.66 5.66 0
    endloop
  endfacet
  facet normal 0 0 -1
    outer loop
      vertex -1.28551 3.95639 0
      vertex -5.66 5.66 0
      vertex -0.779506 4.08631 0
    endloop
  endfacet
  facet normal 0 0 -1
    outer loop
      vertex -1.77124 3.76408 0
      vertex -5.66 5.66 0
      vertex -1.28551 3.95639 0
    endloop
  endfacet
  facet normal 0 0 -1
    outer loop
      vertex -2.22904 3.5124 0
      vertex -5.66 5.66 0
      vertex -1.77124 3.76408 0
    endloop
  endfacet
  facet normal 0 0 -1
    outer loop
      vertex -2.65168 3.20533 0
      vertex -5.66 5.66 0
      vertex -2.22904 3.5124 0
    endloop
  endfacet
  facet normal 0 0 -1
    outer loop
      vertex -3.03251 2.84772 0
      vertex -5.66 5.66 0
      vertex -2.65168 3.20533 0
    endloop
  endfacet
  facet normal 0 0 -1
    outer loop
      vertex -3.36551 2.44519 0
      vertex -5.66 5.66 0
      vertex -3.03251 2.84772 0
    endloop
  endfacet
  facet normal 0 0 -1
    outer loop
      vertex -3.64544 2.0041 0
      vertex -5.66 5.66 0
      vertex -3.36551 2.44519 0
    endloop
  endfacet
  facet normal 0 0 -1
    outer loop
      vertex -3.86787 1.5314 0
      vertex -5.66 5.66 0
      vertex -3.64544 2.0041 0
    endloop
  endfacet
  facet normal 0 0 -1
    outer loop
      vertex -4.02931 1.03455 0
      vertex -5.66 5.66 0
      vertex -3.86787 1.5314 0
    endloop
  endfacet
  facet normal 0 0 -1
    outer loop
      vertex -4.1272 0.521386 0
      vertex -5.66 5.66 0
      vertex -4.02931 1.03455 0
    endloop
  endfacet
  facet normal 0 -1 0
    outer loop
      vertex -5.66 -5.66 0
      vertex 5.66 -5.66 5
      vertex -5.66 -5.66 5
    endloop
  endfacet
  facet normal 0 -1 -0
    outer loop
      vertex 5.66 -5.66 5
      vertex -5.66 -5.66 0
      vertex 5.66 -5.66 0
    endloop
  endfacet
  facet normal 0 1 -0
    outer loop
      vertex 5.66 5.66 0
      vertex -5.66 5.66 5
      vertex 5.66 5.66 5
    endloop
  endfacet
  facet normal 0 1 0
    outer loop
      vertex -5.66 5.66 5
      vertex 5.66 5.66 0
      vertex -5.66 5.66 0
    endloop
  endfacet
  facet normal -0.998027 -0.0627919 0
    outer loop
      vertex 4.16 0 0
      vertex 4.1272 0.521386 5
      vertex 4.1272 0.521386 0
    endloop
  endfacet
  facet normal -0.998027 -0.0627919 0
    outer loop
      vertex 4.1272 0.521386 5
      vertex 4.16 0 0
      vertex 4.16 0 5
    endloop
  endfacet
  facet normal 0.998027 -0.0627919 0
    outer loop
      vertex -4.16 0 5
      vertex -4.1272 0.521386 0
      vertex -4.1272 0.521386 5
    endloop
  endfacet
  facet normal 0.998027 -0.0627919 0
    outer loop
      vertex -4.1272 0.521386 0
      vertex -4.16 0 5
      vertex -4.16 0 0
    endloop
  endfacet
  facet normal 0 -1 0
    outer loop
      vertex -0.261209 4.15179 0
      vertex 0.261209 4.15179 5
      vertex -0.261209 4.15179 5
    endloop
  endfacet
  facet normal 0 -1 -0
    outer loop
      vertex 0.261209 4.15179 5
      vertex -0.261209 4.15179 0
      vertex 0.261209 4.15179 0
    endloop
  endfacet
  facet normal -0.684547 -0.728969 0
    outer loop
      vertex 2.65168 3.20533 0
      vertex 3.03251 2.84772 5
      vertex 2.65168 3.20533 5
    endloop
  endfacet
  facet normal -0.684547 -0.728969 -0
    outer loop
      vertex 3.03251 2.84772 5
      vertex 2.65168 3.20533 0
      vertex 3.03251 2.84772 0
    endloop
  endfacet
  facet normal 0.684547 -0.728969 0
    outer loop
      vertex -3.03251 2.84772 0
      vertex -2.65168 3.20533 5
      vertex -3.03251 2.84772 5
    endloop
  endfacet
  facet normal 0.684547 -0.728969 0
    outer loop
      vertex -2.65168 3.20533 5
      vertex -3.03251 2.84772 0
      vertex -2.65168 3.20533 0
    endloop
  endfacet
  facet normal 0.368124 -0.929777 0
    outer loop
      vertex -1.77124 3.76408 0
      vertex -1.28551 3.95639 5
      vertex -1.77124 3.76408 5
    endloop
  endfacet
  facet normal 0.368124 -0.929777 0
    outer loop
      vertex -1.28551 3.95639 5
      vertex -1.77124 3.76408 0
      vertex -1.28551 3.95639 0
    endloop
  endfacet
  facet normal -0.904827 -0.425779 0
    outer loop
      vertex 3.86787 1.5314 0
      vertex 3.64544 2.0041 5
      vertex 3.64544 2.0041 0
    endloop
  endfacet
  facet normal -0.904827 -0.425779 0
    outer loop
      vertex 3.64544 2.0041 5
      vertex 3.86787 1.5314 0
      vertex 3.86787 1.5314 5
    endloop
  endfacet
  facet normal -0.982287 -0.187381 0
    outer loop
      vertex 4.1272 0.521386 0
      vertex 4.02931 1.03455 5
      vertex 4.02931 1.03455 0
    endloop
  endfacet
  facet normal -0.982287 -0.187381 0
    outer loop
      vertex 4.02931 1.03455 5
      vertex 4.1272 0.521386 0
      vertex 4.1272 0.521386 5
    endloop
  endfacet
  facet normal -0.844328 -0.535827 0
    outer loop
      vertex 3.64544 2.0041 0
      vertex 3.36551 2.44519 5
      vertex 3.36551 2.44519 0
    endloop
  endfacet
  facet normal -0.844328 -0.535827 0
    outer loop
      vertex 3.36551 2.44519 5
      vertex 3.64544 2.0041 0
      vertex 3.64544 2.0041 5
    endloop
  endfacet
  facet normal -0.368124 -0.929777 0
    outer loop
      vertex 1.28551 3.95639 0
      vertex 1.77124 3.76408 5
      vertex 1.28551 3.95639 5
    endloop
  endfacet
  facet normal -0.368124 -0.929777 -0
    outer loop
      vertex 1.77124 3.76408 5
      vertex 1.28551 3.95639 0
      vertex 1.77124 3.76408 0
    endloop
  endfacet
  facet normal -0.587786 -0.809017 0
    outer loop
      vertex 2.22904 3.5124 0
      vertex 2.65168 3.20533 5
      vertex 2.22904 3.5124 5
    endloop
  endfacet
  facet normal -0.587786 -0.809017 -0
    outer loop
      vertex 2.65168 3.20533 5
      vertex 2.22904 3.5124 0
      vertex 2.65168 3.20533 0
    endloop
  endfacet
  facet normal 0.904827 -0.425779 0
    outer loop
      vertex -3.86787 1.5314 5
      vertex -3.64544 2.0041 0
      vertex -3.64544 2.0041 5
    endloop
  endfacet
  facet normal 0.904827 -0.425779 0
    outer loop
      vertex -3.64544 2.0041 0
      vertex -3.86787 1.5314 5
      vertex -3.86787 1.5314 0
    endloop
  endfacet
  facet normal 0.844328 -0.535827 0
    outer loop
      vertex -3.64544 2.0041 5
      vertex -3.36551 2.44519 0
      vertex -3.36551 2.44519 5
    endloop
  endfacet
  facet normal 0.844328 -0.535827 0
    outer loop
      vertex -3.36551 2.44519 0
      vertex -3.64544 2.0041 5
      vertex -3.64544 2.0041 0
    endloop
  endfacet
  facet normal 0.951056 -0.309018 0
    outer loop
      vertex -4.02931 1.03455 5
      vertex -3.86787 1.5314 0
      vertex -3.86787 1.5314 5
    endloop
  endfacet
  facet normal 0.951056 -0.309018 0
    outer loop
      vertex -3.86787 1.5314 0
      vertex -4.02931 1.03455 5
      vertex -4.02931 1.03455 0
    endloop
  endfacet
  facet normal 0.481754 -0.876307 0
    outer loop
      vertex -2.22904 3.5124 0
      vertex -1.77124 3.76408 5
      vertex -2.22904 3.5124 5
    endloop
  endfacet
  facet normal 0.481754 -0.876307 0
    outer loop
      vertex -1.77124 3.76408 5
      vertex -2.22904 3.5124 0
      vertex -1.77124 3.76408 0
    endloop
  endfacet
  facet normal 0.125334 -0.992115 0
    outer loop
      vertex -0.779506 4.08631 0
      vertex -0.261209 4.15179 5
      vertex -0.779506 4.08631 5
    endloop
  endfacet
  facet normal 0.125334 -0.992115 0
    outer loop
      vertex -0.261209 4.15179 5
      vertex -0.779506 4.08631 0
      vertex -0.261209 4.15179 0
    endloop
  endfacet
  facet normal -0.998027 0.0627919 0
    outer loop
      vertex 4.1272 -0.521386 0
      vertex 4.16 0 5
      vertex 4.16 0 0
    endloop
  endfacet
  facet normal -0.998027 0.0627919 0
    outer loop
      vertex 4.16 0 5
      vertex 4.1272 -0.521386 0
      vertex 4.1272 -0.521386 5
    endloop
  endfacet
  facet normal -0.125334 0.992115 0
    outer loop
      vertex 0.779506 -4.08631 0
      vertex 0.261209 -4.15179 5
      vertex 0.779506 -4.08631 5
    endloop
  endfacet
  facet normal -0.125334 0.992115 0
    outer loop
      vertex 0.261209 -4.15179 5
      vertex 0.779506 -4.08631 0
      vertex 0.261209 -4.15179 0
    endloop
  endfacet
  facet normal -0.951056 -0.309018 0
    outer loop
      vertex 4.02931 1.03455 0
      vertex 3.86787 1.5314 5
      vertex 3.86787 1.5314 0
    endloop
  endfacet
  facet normal -0.951056 -0.309018 0
    outer loop
      vertex 3.86787 1.5314 5
      vertex 4.02931 1.03455 0
      vertex 4.02931 1.03455 5
    endloop
  endfacet
  facet normal -0.770513 -0.637424 0
    outer loop
      vertex 3.36551 2.44519 0
      vertex 3.03251 2.84772 5
      vertex 3.03251 2.84772 0
    endloop
  endfacet
  facet normal -0.770513 -0.637424 0
    outer loop
      vertex 3.03251 2.84772 5
      vertex 3.36551 2.44519 0
      vertex 3.36551 2.44519 5
    endloop
  endfacet
  facet normal -0.24869 -0.968583 0
    outer loop
      vertex 0.779506 4.08631 0
      vertex 1.28551 3.95639 5
      vertex 0.779506 4.08631 5
    endloop
  endfacet
  facet normal -0.24869 -0.968583 -0
    outer loop
      vertex 1.28551 3.95639 5
      vertex 0.779506 4.08631 0
      vertex 1.28551 3.95639 0
    endloop
  endfacet
  facet normal -0.125334 -0.992115 0
    outer loop
      vertex 0.261209 4.15179 0
      vertex 0.779506 4.08631 5
      vertex 0.261209 4.15179 5
    endloop
  endfacet
  facet normal -0.125334 -0.992115 -0
    outer loop
      vertex 0.779506 4.08631 5
      vertex 0.261209 4.15179 0
      vertex 0.779506 4.08631 0
    endloop
  endfacet
  facet normal -0.481754 -0.876307 0
    outer loop
      vertex 1.77124 3.76408 0
      vertex 2.22904 3.5124 5
      vertex 1.77124 3.76408 5
    endloop
  endfacet
  facet normal -0.481754 -0.876307 -0
    outer loop
      vertex 2.22904 3.5124 5
      vertex 1.77124 3.76408 0
      vertex 2.22904 3.5124 0
    endloop
  endfacet
  facet normal 0.770513 -0.637424 0
    outer loop
      vertex -3.36551 2.44519 5
      vertex -3.03251 2.84772 0
      vertex -3.03251 2.84772 5
    endloop
  endfacet
  facet normal 0.770513 -0.637424 0
    outer loop
      vertex -3.03251 2.84772 0
      vertex -3.36551 2.44519 5
      vertex -3.36551 2.44519 0
    endloop
  endfacet
  facet normal 0.982287 -0.187381 0
    outer loop
      vertex -4.1272 0.521386 5
      vertex -4.02931 1.03455 0
      vertex -4.02931 1.03455 5
    endloop
  endfacet
  facet normal 0.982287 -0.187381 0
    outer loop
      vertex -4.02931 1.03455 0
      vertex -4.1272 0.521386 5
      vertex -4.1272 0.521386 0
    endloop
  endfacet
  facet normal -0.481754 0.876307 0
    outer loop
      vertex 2.22904 -3.5124 0
      vertex 1.77124 -3.76408 5
      vertex 2.22904 -3.5124 5
    endloop
  endfacet
  facet normal -0.481754 0.876307 0
    outer loop
      vertex 1.77124 -3.76408 5
      vertex 2.22904 -3.5124 0
      vertex 1.77124 -3.76408 0
    endloop
  endfacet
  facet normal -0.844328 0.535827 0
    outer loop
      vertex 3.36551 -2.44519 0
      vertex 3.64544 -2.0041 5
      vertex 3.64544 -2.0041 0
    endloop
  endfacet
  facet normal -0.844328 0.535827 0
    outer loop
      vertex 3.64544 -2.0041 5
      vertex 3.36551 -2.44519 0
      vertex 3.36551 -2.44519 5
    endloop
  endfacet
  facet normal -0.982287 0.187381 0
    outer loop
      vertex 4.02931 -1.03455 0
      vertex 4.1272 -0.521386 5
      vertex 4.1272 -0.521386 0
    endloop
  endfacet
  facet normal -0.982287 0.187381 0
    outer loop
      vertex 4.1272 -0.521386 5
      vertex 4.02931 -1.03455 0
      vertex 4.02931 -1.03455 5
    endloop
  endfacet
  facet normal 0.844328 0.535827 0
    outer loop
      vertex -3.36551 -2.44519 5
      vertex -3.64544 -2.0041 0
      vertex -3.64544 -2.0041 5
    endloop
  endfacet
  facet normal 0.844328 0.535827 0
    outer loop
      vertex -3.64544 -2.0041 0
      vertex -3.36551 -2.44519 5
      vertex -3.36551 -2.44519 0
    endloop
  endfacet
  facet normal 0.904827 0.425779 0
    outer loop
      vertex -3.64544 -2.0041 5
      vertex -3.86787 -1.5314 0
      vertex -3.86787 -1.5314 5
    endloop
  endfacet
  facet normal 0.904827 0.425779 0
    outer loop
      vertex -3.86787 -1.5314 0
      vertex -3.64544 -2.0041 5
      vertex -3.64544 -2.0041 0
    endloop
  endfacet
  facet normal 0.951056 0.309018 0
    outer loop
      vertex -3.86787 -1.5314 5
      vertex -4.02931 -1.03455 0
      vertex -4.02931 -1.03455 5
    endloop
  endfacet
  facet normal 0.951056 0.309018 0
    outer loop
      vertex -4.02931 -1.03455 0
      vertex -3.86787 -1.5314 5
      vertex -3.86787 -1.5314 0
    endloop
  endfacet
  facet normal -0.368124 0.929777 0
    outer loop
      vertex 1.77124 -3.76408 0
      vertex 1.28551 -3.95639 5
      vertex 1.77124 -3.76408 5
    endloop
  endfacet
  facet normal -0.368124 0.929777 0
    outer loop
      vertex 1.28551 -3.95639 5
      vertex 1.77124 -3.76408 0
      vertex 1.28551 -3.95639 0
    endloop
  endfacet
  facet normal -0.24869 0.968583 0
    outer loop
      vertex 1.28551 -3.95639 0
      vertex 0.779506 -4.08631 5
      vertex 1.28551 -3.95639 5
    endloop
  endfacet
  facet normal -0.24869 0.968583 0
    outer loop
      vertex 0.779506 -4.08631 5
      vertex 1.28551 -3.95639 0
      vertex 0.779506 -4.08631 0
    endloop
  endfacet
  facet normal 0.587786 -0.809017 0
    outer loop
      vertex -2.65168 3.20533 0
      vertex -2.22904 3.5124 5
      vertex -2.65168 3.20533 5
    endloop
  endfacet
  facet normal 0.587786 -0.809017 0
    outer loop
      vertex -2.22904 3.5124 5
      vertex -2.65168 3.20533 0
      vertex -2.22904 3.5124 0
    endloop
  endfacet
  facet normal 0.24869 -0.968583 0
    outer loop
      vertex -1.28551 3.95639 0
      vertex -0.779506 4.08631 5
      vertex -1.28551 3.95639 5
    endloop
  endfacet
  facet normal 0.24869 -0.968583 0
    outer loop
      vertex -0.779506 4.08631 5
      vertex -1.28551 3.95639 0
      vertex -0.779506 4.08631 0
    endloop
  endfacet
  facet normal -0.904827 0.425779 0
    outer loop
      vertex 3.64544 -2.0041 0
      vertex 3.86787 -1.5314 5
      vertex 3.86787 -1.5314 0
    endloop
  endfacet
  facet normal -0.904827 0.425779 0
    outer loop
      vertex 3.86787 -1.5314 5
      vertex 3.64544 -2.0041 0
      vertex 3.64544 -2.0041 5
    endloop
  endfacet
  facet normal -0.951056 0.309018 0
    outer loop
      vertex 3.86787 -1.5314 0
      vertex 4.02931 -1.03455 5
      vertex 4.02931 -1.03455 0
    endloop
  endfacet
  facet normal -0.951056 0.309018 0
    outer loop
      vertex 4.02931 -1.03455 5
      vertex 3.86787 -1.5314 0
      vertex 3.86787 -1.5314 5
    endloop
  endfacet
  facet normal 0.125334 0.992115 -0
    outer loop
      vertex -0.261209 -4.15179 0
      vertex -0.779506 -4.08631 5
      vertex -0.261209 -4.15179 5
    endloop
  endfacet
  facet normal 0.125334 0.992115 0
    outer loop
      vertex -0.779506 -4.08631 5
      vertex -0.261209 -4.15179 0
      vertex -0.779506 -4.08631 0
    endloop
  endfacet
  facet normal 0.998027 0.0627919 0
    outer loop
      vertex -4.1272 -0.521386 5
      vertex -4.16 0 0
      vertex -4.16 0 5
    endloop
  endfacet
  facet normal 0.998027 0.0627919 0
    outer loop
      vertex -4.16 0 0
      vertex -4.1272 -0.521386 5
      vertex -4.1272 -0.521386 0
    endloop
  endfacet
  facet normal 0 1 -0
    outer loop
      vertex 0.261209 -4.15179 0
      vertex -0.261209 -4.15179 5
      vertex 0.261209 -4.15179 5
    endloop
  endfacet
  facet normal 0 1 0
    outer loop
      vertex -0.261209 -4.15179 5
      vertex 0.261209 -4.15179 0
      vertex -0.261209 -4.15179 0
    endloop
  endfacet
  facet normal 0.684547 0.728969 -0
    outer loop
      vertex -2.65168 -3.20533 0
      vertex -3.03251 -2.84772 5
      vertex -2.65168 -3.20533 5
    endloop
  endfacet
  facet normal 0.684547 0.728969 0
    outer loop
      vertex -3.03251 -2.84772 5
      vertex -2.65168 -3.20533 0
      vertex -3.03251 -2.84772 0
    endloop
  endfacet
  facet normal 0.481754 0.876307 -0
    outer loop
      vertex -1.77124 -3.76408 0
      vertex -2.22904 -3.5124 5
      vertex -1.77124 -3.76408 5
    endloop
  endfacet
  facet normal 0.481754 0.876307 0
    outer loop
      vertex -2.22904 -3.5124 5
      vertex -1.77124 -3.76408 0
      vertex -2.22904 -3.5124 0
    endloop
  endfacet
  facet normal 0.770513 0.637424 0
    outer loop
      vertex -3.03251 -2.84772 5
      vertex -3.36551 -2.44519 0
      vertex -3.36551 -2.44519 5
    endloop
  endfacet
  facet normal 0.770513 0.637424 0
    outer loop
      vertex -3.36551 -2.44519 0
      vertex -3.03251 -2.84772 5
      vertex -3.03251 -2.84772 0
    endloop
  endfacet
  facet normal 0.982287 0.187381 0
    outer loop
      vertex -4.02931 -1.03455 5
      vertex -4.1272 -0.521386 0
      vertex -4.1272 -0.521386 5
    endloop
  endfacet
  facet normal 0.982287 0.187381 0
    outer loop
      vertex -4.1272 -0.521386 0
      vertex -4.02931 -1.03455 5
      vertex -4.02931 -1.03455 0
    endloop
  endfacet
  facet normal -0.684547 0.728969 0
    outer loop
      vertex 3.03251 -2.84772 0
      vertex 2.65168 -3.20533 5
      vertex 3.03251 -2.84772 5
    endloop
  endfacet
  facet normal -0.684547 0.728969 0
    outer loop
      vertex 2.65168 -3.20533 5
      vertex 3.03251 -2.84772 0
      vertex 2.65168 -3.20533 0
    endloop
  endfacet
  facet normal -0.587786 0.809017 0
    outer loop
      vertex 2.65168 -3.20533 0
      vertex 2.22904 -3.5124 5
      vertex 2.65168 -3.20533 5
    endloop
  endfacet
  facet normal -0.587786 0.809017 0
    outer loop
      vertex 2.22904 -3.5124 5
      vertex 2.65168 -3.20533 0
      vertex 2.22904 -3.5124 0
    endloop
  endfacet
  facet normal -0.770513 0.637424 0
    outer loop
      vertex 3.03251 -2.84772 0
      vertex 3.36551 -2.44519 5
      vertex 3.36551 -2.44519 0
    endloop
  endfacet
  facet normal -0.770513 0.637424 0
    outer loop
      vertex 3.36551 -2.44519 5
      vertex 3.03251 -2.84772 0
      vertex 3.03251 -2.84772 5
    endloop
  endfacet
  facet normal 0.24869 0.968583 -0
    outer loop
      vertex -0.779506 -4.08631 0
      vertex -1.28551 -3.95639 5
      vertex -0.779506 -4.08631 5
    endloop
  endfacet
  facet normal 0.24869 0.968583 0
    outer loop
      vertex -1.28551 -3.95639 5
      vertex -0.779506 -4.08631 0
      vertex -1.28551 -3.95639 0
    endloop
  endfacet
  facet normal 0.368124 0.929777 -0
    outer loop
      vertex -1.28551 -3.95639 0
      vertex -1.77124 -3.76408 5
      vertex -1.28551 -3.95639 5
    endloop
  endfacet
  facet normal 0.368124 0.929777 0
    outer loop
      vertex -1.77124 -3.76408 5
      vertex -1.28551 -3.95639 0
      vertex -1.77124 -3.76408 0
    endloop
  endfacet
  facet normal 0.587786 0.809017 -0
    outer loop
      vertex -2.22904 -3.5124 0
      vertex -2.65168 -3.20533 5
      vertex -2.22904 -3.5124 5
    endloop
  endfacet
  facet normal 0.587786 0.809017 0
    outer loop
      vertex -2.65168 -3.20533 5
      vertex -2.22904 -3.5124 0
      vertex -2.65168 -3.20533 0
    endloop
  endfacet
endsolid OpenSCAD_Model
