solid OpenSCAD_Model
  facet normal -1 0 0
    outer loop
      vertex -5.82 -5.82 0
      vertex -5.82 5.82 5
      vertex -5.82 5.82 0
    endloop
  endfacet
  facet normal -1 -0 0
    outer loop
      vertex -5.82 5.82 5
      vertex -5.82 -5.82 0
      vertex -5.82 -5.82 5
    endloop
  endfacet
  facet normal 0 0 1
    outer loop
      vertex 5.82 5.82 5
      vertex 4.32 0 5
      vertex 5.82 -5.82 5
    endloop
  endfacet
  facet normal 0 0 1
    outer loop
      vertex 5.82 5.82 5
      vertex 4.28594 0.541439 5
      vertex 4.32 0 5
    endloop
  endfacet
  facet normal 0 0 1
    outer loop
      vertex 5.82 5.82 5
      vertex 4.18428 1.07434 5
      vertex 4.28594 0.541439 5
    endloop
  endfacet
  facet normal 0 0 1
    outer loop
      vertex 5.82 5.82 5
      vertex 4.01663 1.5903 5
      vertex 4.18428 1.07434 5
    endloop
  endfacet
  facet normal 0 0 1
    outer loop
      vertex 5.82 5.82 5
      vertex 3.78564 2.08118 5
      vertex 4.01663 1.5903 5
    endloop
  endfacet
  facet normal 0 0 1
    outer loop
      vertex 5.82 5.82 5
      vertex 3.49495 2.53923 5
      vertex 3.78564 2.08118 5
    endloop
  endfacet
  facet normal 0 0 1
    outer loop
      vertex 5.82 5.82 5
      vertex 3.14914 2.95724 5
      vertex 3.49495 2.53923 5
    endloop
  endfacet
  facet normal 0 0 1
    outer loop
      vertex 5.82 5.82 5
      vertex 2.75367 3.32862 5
      vertex 3.14914 2.95724 5
    endloop
  endfacet
  facet normal 0 0 1
    outer loop
      vertex 5.82 5.82 5
      vertex 2.31477 3.6475 5
      vertex 2.75367 3.32862 5
    endloop
  endfacet
  facet normal 0 0 1
    outer loop
      vertex 5.82 5.82 5
      vertex 1.83937 3.90885 5
      vertex 2.31477 3.6475 5
    endloop
  endfacet
  facet normal 0 0 1
    outer loop
      vertex 5.82 5.82 5
      vertex 1.33495 4.10856 5
      vertex 1.83937 3.90885 5
    endloop
  endfacet
  facet normal 0 0 1
    outer loop
      vertex 5.82 5.82 5
      vertex 0.809486 4.24348 5
      vertex 1.33495 4.10856 5
    endloop
  endfacet
  facet normal 0 0 1
    outer loop
      vertex 5.82 5.82 5
      vertex 0.271255 4.31147 5
      vertex 0.809486 4.24348 5
    endloop
  endfacet
  facet normal 0 0 1
    outer loop
      vertex 5.82 5.82 5
      vertex -0.271255 4.31147 5
      vertex 0.271255 4.31147 5
    endloop
  endfacet
  facet normal -0 0 1
    outer loop
      vertex -5.82 5.82 5
      vertex -0.271255 4.31147 5
      vertex 5.82 5.82 5
    endloop
  endfacet
  facet normal 0 0 1
    outer loop
      vertex -4.28594 0.541439 5
      vertex -5.82 5.82 5
      vertex -4.32 0 5
    endloop
  endfacet
  facet normal 0 0 1
    outer loop
      vertex -4.18428 1.07434 5
      vertex -5.82 5.82 5
      vertex -4.28594 0.541439 5
    endloop
  endfacet
  facet normal 0 0 1
    outer loop
      vertex -4.01663 1.5903 5
      vertex -5.82 5.82 5
      vertex -4.18428 1.07434 5
    endloop
  endfacet
  facet normal 0 0 1
    outer loop
      vertex -3.78564 2.08118 5
      vertex -5.82 5.82 5
      vertex -4.01663 1.5903 5
    endloop
  endfacet
  facet normal 0 0 1
    outer loop
      vertex -3.49495 2.53923 5
      vertex -5.82 5.82 5
      vertex -3.78564 2.08118 5
    endloop
  endfacet
  facet normal 0 0 1
    outer loop
      vertex -3.14914 2.95724 5
      vertex -5.82 5.82 5
      vertex -3.49495 2.53923 5
    endloop
  endfacet
  facet normal 0 0 1
    outer loop
      vertex -2.75367 3.32862 5
      vertex -5.82 5.82 5
      vertex -3.14914 2.95724 5
    endloop
  endfacet
  facet normal 0 0 1
    outer loop
      vertex -2.31477 3.6475 5
      vertex -5.82 5.82 5
      vertex -2.75367 3.32862 5
    endloop
  endfacet
  facet normal 0 0 1
    outer loop
      vertex -1.83937 3.90885 5
      vertex -5.82 5.82 5
      vertex -2.31477 3.6475 5
    endloop
  endfacet
  facet normal 0 0 1
    outer loop
      vertex -1.33495 4.10856 5
      vertex -5.82 5.82 5
      vertex -1.83937 3.90885 5
    endloop
  endfacet
  facet normal 0 0 1
    outer loop
      vertex -0.809486 4.24348 5
      vertex -5.82 5.82 5
      vertex -1.33495 4.10856 5
    endloop
  endfacet
  facet normal 0 0 1
    outer loop
      vertex -0.271255 4.31147 5
      vertex -5.82 5.82 5
      vertex -0.809486 4.24348 5
    endloop
  endfacet
  facet normal -0 0 1
    outer loop
      vertex 4.28594 -0.541439 5
      vertex 5.82 -5.82 5
      vertex 4.32 0 5
    endloop
  endfacet
  facet normal -0 0 1
    outer loop
      vertex 4.18428 -1.07434 5
      vertex 5.82 -5.82 5
      vertex 4.28594 -0.541439 5
    endloop
  endfacet
  facet normal -0 0 1
    outer loop
      vertex 4.01663 -1.5903 5
      vertex 5.82 -5.82 5
      vertex 4.18428 -1.07434 5
    endloop
  endfacet
  facet normal -0 0 1
    outer loop
      vertex 3.78564 -2.08118 5
      vertex 5.82 -5.82 5
      vertex 4.01663 -1.5903 5
    endloop
  endfacet
  facet normal -0 0 1
    outer loop
      vertex 3.49495 -2.53923 5
      vertex 5.82 -5.82 5
      vertex 3.78564 -2.08118 5
    endloop
  endfacet
  facet normal -0 0 1
    outer loop
      vertex 3.14914 -2.95724 5
      vertex 5.82 -5.82 5
      vertex 3.49495 -2.53923 5
    endloop
  endfacet
  facet normal -0 0 1
    outer loop
      vertex 2.75367 -3.32862 5
      vertex 5.82 -5.82 5
      vertex 3.14914 -2.95724 5
    endloop
  endfacet
  facet normal -0 0 1
    outer loop
      vertex 2.31477 -3.6475 5
      vertex 5.82 -5.82 5
      vertex 2.75367 -3.32862 5
    endloop
  endfacet
  facet normal -0 0 1
    outer loop
      vertex 1.83937 -3.90885 5
      vertex 5.82 -5.82 5
      vertex 2.31477 -3.6475 5
    endloop
  endfacet
  facet normal -0 0 1
    outer loop
      vertex 1.33495 -4.10856 5
      vertex 5.82 -5.82 5
      vertex 1.83937 -3.90885 5
    endloop
  endfacet
  facet normal -0 0 1
    outer loop
      vertex 0.809486 -4.24348 5
      vertex 5.82 -5.82 5
      vertex 1.33495 -4.10856 5
    endloop
  endfacet
  facet normal -0 0 1
    outer loop
      vertex 0.271255 -4.31147 5
      vertex 5.82 -5.82 5
      vertex 0.809486 -4.24348 5
    endloop
  endfacet
  facet normal -0 0 1
    outer loop
      vertex -0.271255 -4.31147 5
      vertex 5.82 -5.82 5
      vertex 0.271255 -4.31147 5
    endloop
  endfacet
  facet normal 0 0 1
    outer loop
      vertex -5.82 -5.82 5
      vertex -0.271255 -4.31147 5
      vertex -0.809486 -4.24348 5
    endloop
  endfacet
  facet normal 0 0 1
    outer loop
      vertex -5.82 -5.82 5
      vertex -4.32 0 5
      vertex -5.82 5.82 5
    endloop
  endfacet
  facet normal 0 0 1
    outer loop
      vertex -4.32 0 5
      vertex -5.82 -5.82 5
      vertex -4.28594 -0.541439 5
    endloop
  endfacet
  facet normal 0 0 1
    outer loop
      vertex -0.271255 -4.31147 5
      vertex -5.82 -5.82 5
      vertex 5.82 -5.82 5
    endloop
  endfacet
  facet normal 0 0 1
    outer loop
      vertex -1.33495 -4.10856 5
      vertex -5.82 -5.82 5
      vertex -0.809486 -4.24348 5
    endloop
  endfacet
  facet normal 0 0 1
    outer loop
      vertex -1.83937 -3.90885 5
      vertex -5.82 -5.82 5
      vertex -1.33495 -4.10856 5
    endloop
  endfacet
  facet normal 0 0 1
    outer loop
      vertex -2.31477 -3.6475 5
      vertex -5.82 -5.82 5
      vertex -1.83937 -3.90885 5
    endloop
  endfacet
  facet normal 0 0 1
    outer loop
      vertex -2.75367 -3.32862 5
      vertex -5.82 -5.82 5
      vertex -2.31477 -3.6475 5
    endloop
  endfacet
  facet normal 0 0 1
    outer loop
      vertex -3.14914 -2.95724 5
      vertex -5.82 -5.82 5
      vertex -2.75367 -3.32862 5
    endloop
  endfacet
  facet normal 0 0 1
    outer loop
      vertex -3.49495 -2.53923 5
      vertex -5.82 -5.82 5
      vertex -3.14914 -2.95724 5
    endloop
  endfacet
  facet normal 0 0 1
    outer loop
      vertex -3.78564 -2.08118 5
      vertex -5.82 -5.82 5
      vertex -3.49495 -2.53923 5
    endloop
  endfacet
  facet normal 0 0 1
    outer loop
      vertex -4.01663 -1.5903 5
      vertex -5.82 -5.82 5
      vertex -3.78564 -2.08118 5
    endloop
  endfacet
  facet normal 0 0 1
    outer loop
      vertex -4.18428 -1.07434 5
      vertex -5.82 -5.82 5
      vertex -4.01663 -1.5903 5
    endloop
  endfacet
  facet normal 0 0 1
    outer loop
      vertex -4.28594 -0.541439 5
      vertex -5.82 -5.82 5
      vertex -4.18428 -1.07434 5
    endloop
  endfacet
  facet normal 1 -0 0
    outer loop
      vertex 5.82 -5.82 5
      vertex 5.82 5.82 0
      vertex 5.82 5.82 5
    endloop
  endfacet
  facet normal 1 0 0
    outer loop
      vertex 5.82 5.82 0
      vertex 5.82 -5.82 5
      vertex 5.82 -5.82 0
    endloop
  endfacet
  facet normal 0 1 -0
    outer loop
      vertex 5.82 5.82 0
      vertex -5.82 5.82 5
      vertex 5.82 5.82 5
    endloop
  endfacet
  facet normal 0 1 0
    outer loop
      vertex -5.82 5.82 5
      vertex 5.82 5.82 0
      vertex -5.82 5.82 0
    endloop
  endfacet
  facet normal 0 0 -1
    outer loop
      vertex 5.82 -5.82 0
      vertex 4.32 0 0
      vertex 5.82 5.82 0
    endloop
  endfacet
  facet normal 0 0 -1
    outer loop
      vertex 5.82 -5.82 0
      vertex 4.28594 -0.541439 0
      vertex 4.32 0 0
    endloop
  endfacet
  facet normal 0 0 -1
    outer loop
      vertex 5.82 -5.82 0
      vertex 4.18428 -1.07434 0
      vertex 4.28594 -0.541439 0
    endloop
  endfacet
  facet normal 0 0 -1
    outer loop
      vertex 5.82 -5.82 0
      vertex 4.01663 -1.5903 0
      vertex 4.18428 -1.07434 0
    endloop
  endfacet
  facet normal 0 0 -1
    outer loop
      vertex 5.82 -5.82 0
      vertex 3.78564 -2.08118 0
      vertex 4.01663 -1.5903 0
    endloop
  endfacet
  facet normal 0 0 -1
    outer loop
      vertex 5.82 -5.82 0
      vertex 3.49495 -2.53923 0
      vertex 3.78564 -2.08118 0
    endloop
  endfacet
  facet normal 0 0 -1
    outer loop
      vertex 5.82 -5.82 0
      vertex 3.14914 -2.95724 0
      vertex 3.49495 -2.53923 0
    endloop
  endfacet
  facet normal 0 0 -1
    outer loop
      vertex 5.82 -5.82 0
      vertex 2.75367 -3.32862 0
      vertex 3.14914 -2.95724 0
    endloop
  endfacet
  facet normal 0 0 -1
    outer loop
      vertex 5.82 -5.82 0
      vertex 2.31477 -3.6475 0
      vertex 2.75367 -3.32862 0
    endloop
  endfacet
  facet normal 0 0 -1
    outer loop
      vertex 5.82 -5.82 0
      vertex 1.83937 -3.90885 0
      vertex 2.31477 -3.6475 0
    endloop
  endfacet
  facet normal 0 0 -1
    outer loop
      vertex 5.82 -5.82 0
      vertex 1.33495 -4.10856 0
      vertex 1.83937 -3.90885 0
    endloop
  endfacet
  facet normal 0 0 -1
    outer loop
      vertex 5.82 -5.82 0
      vertex 0.809486 -4.24348 0
      vertex 1.33495 -4.10856 0
    endloop
  endfacet
  facet normal 0 0 -1
    outer loop
      vertex 5.82 -5.82 0
      vertex 0.271255 -4.31147 0
      vertex 0.809486 -4.24348 0
    endloop
  endfacet
  facet normal 0 0 -1
    outer loop
      vertex 5.82 -5.82 0
      vertex -0.271255 -4.31147 0
      vertex 0.271255 -4.31147 0
    endloop
  endfacet
  facet normal 0 0 -1
    outer loop
      vertex -5.82 -5.82 0
      vertex -0.271255 -4.31147 0
      vertex 5.82 -5.82 0
    endloop
  endfacet
  facet normal -0 0 -1
    outer loop
      vertex -4.28594 -0.541439 0
      vertex -5.82 -5.82 0
      vertex -4.32 0 0
    endloop
  endfacet
  facet normal -0 0 -1
    outer loop
      vertex -4.18428 -1.07434 0
      vertex -5.82 -5.82 0
      vertex -4.28594 -0.541439 0
    endloop
  endfacet
  facet normal -0 0 -1
    outer loop
      vertex -4.01663 -1.5903 0
      vertex -5.82 -5.82 0
      vertex -4.18428 -1.07434 0
    endloop
  endfacet
  facet normal -0 0 -1
    outer loop
      vertex -3.78564 -2.08118 0
      vertex -5.82 -5.82 0
      vertex -4.01663 -1.5903 0
    endloop
  endfacet
  facet normal -0 0 -1
    outer loop
      vertex -3.49495 -2.53923 0
      vertex -5.82 -5.82 0
      vertex -3.78564 -2.08118 0
    endloop
  endfacet
  facet normal -0 0 -1
    outer loop
      vertex -3.14914 -2.95724 0
      vertex -5.82 -5.82 0
      vertex -3.49495 -2.53923 0
    endloop
  endfacet
  facet normal -0 0 -1
    outer loop
      vertex -2.75367 -3.32862 0
      vertex -5.82 -5.82 0
      vertex -3.14914 -2.95724 0
    endloop
  endfacet
  facet normal -0 0 -1
    outer loop
      vertex -2.31477 -3.6475 0
      vertex -5.82 -5.82 0
      vertex -2.75367 -3.32862 0
    endloop
  endfacet
  facet normal -0 0 -1
    outer loop
      vertex -1.83937 -3.90885 0
      vertex -5.82 -5.82 0
      vertex -2.31477 -3.6475 0
    endloop
  endfacet
  facet normal -0 0 -1
    outer loop
      vertex -1.33495 -4.10856 0
      vertex -5.82 -5.82 0
      vertex -1.83937 -3.90885 0
    endloop
  endfacet
  facet normal -0 0 -1
    outer loop
      vertex -0.809486 -4.24348 0
      vertex -5.82 -5.82 0
      vertex -1.33495 -4.10856 0
    endloop
  endfacet
  facet normal -0 0 -1
    outer loop
      vertex -0.271255 -4.31147 0
      vertex -5.82 -5.82 0
      vertex -0.809486 -4.24348 0
    endloop
  endfacet
  facet normal 0 0 -1
    outer loop
      vertex 4.28594 0.541439 0
      vertex 5.82 5.82 0
      vertex 4.32 0 0
    endloop
  endfacet
  facet normal 0 0 -1
    outer loop
      vertex 4.18428 1.07434 0
      vertex 5.82 5.82 0
      vertex 4.28594 0.541439 0
    endloop
  endfacet
  facet normal 0 0 -1
    outer loop
      vertex 4.01663 1.5903 0
      vertex 5.82 5.82 0
      vertex 4.18428 1.07434 0
    endloop
  endfacet
  facet normal 0 0 -1
    outer loop
      vertex 3.78564 2.08118 0
      vertex 5.82 5.82 0
      vertex 4.01663 1.5903 0
    endloop
  endfacet
  facet normal 0 0 -1
    outer loop
      vertex 3.49495 2.53923 0
      vertex 5.82 5.82 0
      vertex 3.78564 2.08118 0
    endloop
  endfacet
  facet normal 0 0 -1
    outer loop
      vertex 3.14914 2.95724 0
      vertex 5.82 5.82 0
      vertex 3.49495 2.53923 0
    endloop
  endfacet
  facet normal 0 0 -1
    outer loop
      vertex 2.75367 3.32862 0
      vertex 5.82 5.82 0
      vertex 3.14914 2.95724 0
    endloop
  endfacet
  facet normal 0 0 -1
    outer loop
      vertex 2.31477 3.6475 0
      vertex 5.82 5.82 0
      vertex 2.75367 3.32862 0
    endloop
  endfacet
  facet normal 0 0 -1
    outer loop
      vertex 1.83937 3.90885 0
      vertex 5.82 5.82 0
      vertex 2.31477 3.6475 0
    endloop
  endfacet
  facet normal 0 0 -1
    outer loop
      vertex 1.33495 4.10856 0
      vertex 5.82 5.82 0
      vertex 1.83937 3.90885 0
    endloop
  endfacet
  facet normal 0 0 -1
    outer loop
      vertex 0.809486 4.24348 0
      vertex 5.82 5.82 0
      vertex 1.33495 4.10856 0
    endloop
  endfacet
  facet normal 0 0 -1
    outer loop
      vertex 0.271255 4.31147 0
      vertex 5.82 5.82 0
      vertex 0.809486 4.24348 0
    endloop
  endfacet
  facet normal 0 0 -1
    outer loop
      vertex -0.271255 4.31147 0
      vertex 5.82 5.82 0
      vertex 0.271255 4.31147 0
    endloop
  endfacet
  facet normal 0 0 -1
    outer loop
      vertex -5.82 5.82 0
      vertex -0.271255 4.31147 0
      vertex -0.809486 4.24348 0
    endloop
  endfacet
  facet normal 0 0 -1
    outer loop
      vertex -5.82 5.82 0
      vertex -4.32 0 0
      vertex -5.82 -5.82 0
    endloop
  endfacet
  facet normal 0 0 -1
    outer loop
      vertex -4.32 0 0
      vertex -5.82 5.82 0
      vertex -4.28594 0.541439 0
    endloop
  endfacet
  facet normal 0 0 -1
    outer loop
      vertex -0.271255 4.31147 0
      vertex -5.82 5.82 0
      vertex 5.82 5.82 0
    endloop
  endfacet
  facet normal 0 0 -1
    outer loop
      vertex -1.33495 4.10856 0
      vertex -5.82 5.82 0
      vertex -0.809486 4.24348 0
    endloop
  endfacet
  facet normal 0 0 -1
    outer loop
      vertex -1.83937 3.90885 0
      vertex -5.82 5.82 0
      vertex -1.33495 4.10856 0
    endloop
  endfacet
  facet normal 0 0 -1
    outer loop
      vertex -2.31477 3.6475 0
      vertex -5.82 5.82 0
      vertex -1.83937 3.90885 0
    endloop
  endfacet
  facet normal 0 0 -1
    outer loop
      vertex -2.75367 3.32862 0
      vertex -5.82 5.82 0
      vertex -2.31477 3.6475 0
    endloop
  endfacet
  facet normal 0 0 -1
    outer loop
      vertex -3.14914 2.95724 0
      vertex -5.82 5.82 0
      vertex -2.75367 3.32862 0
    endloop
  endfacet
  facet normal 0 0 -1
    outer loop
      vertex -3.49495 2.53923 0
      vertex -5.82 5.82 0
      vertex -3.14914 2.95724 0
    endloop
  endfacet
  facet normal 0 0 -1
    outer loop
      vertex -3.78564 2.08118 0
      vertex -5.82 5.82 0
      vertex -3.49495 2.53923 0
    endloop
  endfacet
  facet normal 0 0 -1
    outer loop
      vertex -4.01663 1.5903 0
      vertex -5.82 5.82 0
      vertex -3.78564 2.08118 0
    endloop
  endfacet
  facet normal 0 0 -1
    outer loop
      vertex -4.18428 1.07434 0
      vertex -5.82 5.82 0
      vertex -4.01663 1.5903 0
    endloop
  endfacet
  facet normal 0 0 -1
    outer loop
      vertex -4.28594 0.541439 0
      vertex -5.82 5.82 0
      vertex -4.18428 1.07434 0
    endloop
  endfacet
  facet normal 0 -1 0
    outer loop
      vertex -5.82 -5.82 0
      vertex 5.82 -5.82 5
      vertex -5.82 -5.82 5
    endloop
  endfacet
  facet normal 0 -1 -0
    outer loop
      vertex 5.82 -5.82 5
      vertex -5.82 -5.82 0
      vertex 5.82 -5.82 0
    endloop
  endfacet
  facet normal -0.998027 -0.0627902 0
    outer loop
      vertex 4.32 0 0
      vertex 4.28594 0.541439 5
      vertex 4.28594 0.541439 0
    endloop
  endfacet
  facet normal -0.998027 -0.0627902 0
    outer loop
      vertex 4.28594 0.541439 5
      vertex 4.32 0 0
      vertex 4.32 0 5
    endloop
  endfacet
  facet normal 0.998027 -0.0627902 0
    outer loop
      vertex -4.32 0 5
      vertex -4.28594 0.541439 0
      vertex -4.28594 0.541439 5
    endloop
  endfacet
  facet normal 0.998027 -0.0627902 0
    outer loop
      vertex -4.28594 0.541439 0
      vertex -4.32 0 5
      vertex -4.32 0 0
    endloop
  endfacet
  facet normal 0 -1 0
    outer loop
      vertex -0.271255 4.31147 0
      vertex 0.271255 4.31147 5
      vertex -0.271255 4.31147 5
    endloop
  endfacet
  facet normal 0 -1 -0
    outer loop
      vertex 0.271255 4.31147 5
      vertex -0.271255 4.31147 0
      vertex 0.271255 4.31147 0
    endloop
  endfacet
  facet normal 0 1 -0
    outer loop
      vertex 0.271255 -4.31147 0
      vertex -0.271255 -4.31147 5
      vertex 0.271255 -4.31147 5
    endloop
  endfacet
  facet normal 0 1 0
    outer loop
      vertex -0.271255 -4.31147 5
      vertex 0.271255 -4.31147 0
      vertex -0.271255 -4.31147 0
    endloop
  endfacet
  facet normal -0.684547 -0.728969 0
    outer loop
      vertex 2.75367 3.32862 0
      vertex 3.14914 2.95724 5
      vertex 2.75367 3.32862 5
    endloop
  endfacet
  facet normal -0.684547 -0.728969 -0
    outer loop
      vertex 3.14914 2.95724 5
      vertex 2.75367 3.32862 0
      vertex 3.14914 2.95724 0
    endloop
  endfacet
  facet normal 0.684547 -0.728969 0
    outer loop
      vertex -3.14914 2.95724 0
      vertex -2.75367 3.32862 5
      vertex -3.14914 2.95724 5
    endloop
  endfacet
  facet normal 0.684547 -0.728969 0
    outer loop
      vertex -2.75367 3.32862 5
      vertex -3.14914 2.95724 0
      vertex -2.75367 3.32862 0
    endloop
  endfacet
  facet normal 0.368124 -0.929777 0
    outer loop
      vertex -1.83937 3.90885 0
      vertex -1.33495 4.10856 5
      vertex -1.83937 3.90885 5
    endloop
  endfacet
  facet normal 0.368124 -0.929777 0
    outer loop
      vertex -1.33495 4.10856 5
      vertex -1.83937 3.90885 0
      vertex -1.33495 4.10856 0
    endloop
  endfacet
  facet normal -0.844328 0.535827 0
    outer loop
      vertex 3.49495 -2.53923 0
      vertex 3.78564 -2.08118 5
      vertex 3.78564 -2.08118 0
    endloop
  endfacet
  facet normal -0.844328 0.535827 0
    outer loop
      vertex 3.78564 -2.08118 5
      vertex 3.49495 -2.53923 0
      vertex 3.49495 -2.53923 5
    endloop
  endfacet
  facet normal -0.904827 -0.425779 0
    outer loop
      vertex 4.01663 1.5903 0
      vertex 3.78564 2.08118 5
      vertex 3.78564 2.08118 0
    endloop
  endfacet
  facet normal -0.904827 -0.425779 0
    outer loop
      vertex 3.78564 2.08118 5
      vertex 4.01663 1.5903 0
      vertex 4.01663 1.5903 5
    endloop
  endfacet
  facet normal -0.844328 -0.535827 0
    outer loop
      vertex 3.78564 2.08118 0
      vertex 3.49495 2.53923 5
      vertex 3.49495 2.53923 0
    endloop
  endfacet
  facet normal -0.844328 -0.535827 0
    outer loop
      vertex 3.49495 2.53923 5
      vertex 3.78564 2.08118 0
      vertex 3.78564 2.08118 5
    endloop
  endfacet
  facet normal -0.368124 -0.929777 0
    outer loop
      vertex 1.33495 4.10856 0
      vertex 1.83937 3.90885 5
      vertex 1.33495 4.10856 5
    endloop
  endfacet
  facet normal -0.368124 -0.929777 -0
    outer loop
      vertex 1.83937 3.90885 5
      vertex 1.33495 4.10856 0
      vertex 1.83937 3.90885 0
    endloop
  endfacet
  facet normal -0.24869 -0.968583 0
    outer loop
      vertex 0.809486 4.24348 0
      vertex 1.33495 4.10856 5
      vertex 0.809486 4.24348 5
    endloop
  endfacet
  facet normal -0.24869 -0.968583 -0
    outer loop
      vertex 1.33495 4.10856 5
      vertex 0.809486 4.24348 0
      vertex 1.33495 4.10856 0
    endloop
  endfacet
  facet normal -0.587786 -0.809017 0
    outer loop
      vertex 2.31477 3.6475 0
      vertex 2.75367 3.32862 5
      vertex 2.31477 3.6475 5
    endloop
  endfacet
  facet normal -0.587786 -0.809017 -0
    outer loop
      vertex 2.75367 3.32862 5
      vertex 2.31477 3.6475 0
      vertex 2.75367 3.32862 0
    endloop
  endfacet
  facet normal 0.904827 -0.425779 0
    outer loop
      vertex -4.01663 1.5903 5
      vertex -3.78564 2.08118 0
      vertex -3.78564 2.08118 5
    endloop
  endfacet
  facet normal 0.904827 -0.425779 0
    outer loop
      vertex -3.78564 2.08118 0
      vertex -4.01663 1.5903 5
      vertex -4.01663 1.5903 0
    endloop
  endfacet
  facet normal 0.770513 -0.637424 0
    outer loop
      vertex -3.49495 2.53923 5
      vertex -3.14914 2.95724 0
      vertex -3.14914 2.95724 5
    endloop
  endfacet
  facet normal 0.770513 -0.637424 0
    outer loop
      vertex -3.14914 2.95724 0
      vertex -3.49495 2.53923 5
      vertex -3.49495 2.53923 0
    endloop
  endfacet
  facet normal 0.481753 -0.876307 0
    outer loop
      vertex -2.31477 3.6475 0
      vertex -1.83937 3.90885 5
      vertex -2.31477 3.6475 5
    endloop
  endfacet
  facet normal 0.481753 -0.876307 0
    outer loop
      vertex -1.83937 3.90885 5
      vertex -2.31477 3.6475 0
      vertex -1.83937 3.90885 0
    endloop
  endfacet
  facet normal 0.125333 -0.992115 0
    outer loop
      vertex -0.809486 4.24348 0
      vertex -0.271255 4.31147 5
      vertex -0.809486 4.24348 5
    endloop
  endfacet
  facet normal 0.125333 -0.992115 0
    outer loop
      vertex -0.271255 4.31147 5
      vertex -0.809486 4.24348 0
      vertex -0.271255 4.31147 0
    endloop
  endfacet
  facet normal -0.982287 0.187382 0
    outer loop
      vertex 4.18428 -1.07434 0
      vertex 4.28594 -0.541439 5
      vertex 4.28594 -0.541439 0
    endloop
  endfacet
  facet normal -0.982287 0.187382 0
    outer loop
      vertex 4.28594 -0.541439 5
      vertex 4.18428 -1.07434 0
      vertex 4.18428 -1.07434 5
    endloop
  endfacet
  facet normal -0.125333 0.992115 0
    outer loop
      vertex 0.809486 -4.24348 0
      vertex 0.271255 -4.31147 5
      vertex 0.809486 -4.24348 5
    endloop
  endfacet
  facet normal -0.125333 0.992115 0
    outer loop
      vertex 0.271255 -4.31147 5
      vertex 0.809486 -4.24348 0
      vertex 0.271255 -4.31147 0
    endloop
  endfacet
  facet normal -0.951057 -0.309016 0
    outer loop
      vertex 4.18428 1.07434 0
      vertex 4.01663 1.5903 5
      vertex 4.01663 1.5903 0
    endloop
  endfacet
  facet normal -0.951057 -0.309016 0
    outer loop
      vertex 4.01663 1.5903 5
      vertex 4.18428 1.07434 0
      vertex 4.18428 1.07434 5
    endloop
  endfacet
  facet normal -0.982287 -0.187382 0
    outer loop
      vertex 4.28594 0.541439 0
      vertex 4.18428 1.07434 5
      vertex 4.18428 1.07434 0
    endloop
  endfacet
  facet normal -0.982287 -0.187382 0
    outer loop
      vertex 4.18428 1.07434 5
      vertex 4.28594 0.541439 0
      vertex 4.28594 0.541439 5
    endloop
  endfacet
  facet normal -0.770513 -0.637424 0
    outer loop
      vertex 3.49495 2.53923 0
      vertex 3.14914 2.95724 5
      vertex 3.14914 2.95724 0
    endloop
  endfacet
  facet normal -0.770513 -0.637424 0
    outer loop
      vertex 3.14914 2.95724 5
      vertex 3.49495 2.53923 0
      vertex 3.49495 2.53923 5
    endloop
  endfacet
  facet normal -0.125333 -0.992115 0
    outer loop
      vertex 0.271255 4.31147 0
      vertex 0.809486 4.24348 5
      vertex 0.271255 4.31147 5
    endloop
  endfacet
  facet normal -0.125333 -0.992115 -0
    outer loop
      vertex 0.809486 4.24348 5
      vertex 0.271255 4.31147 0
      vertex 0.809486 4.24348 0
    endloop
  endfacet
  facet normal -0.481753 -0.876307 0
    outer loop
      vertex 1.83937 3.90885 0
      vertex 2.31477 3.6475 5
      vertex 1.83937 3.90885 5
    endloop
  endfacet
  facet normal -0.481753 -0.876307 -0
    outer loop
      vertex 2.31477 3.6475 5
      vertex 1.83937 3.90885 0
      vertex 2.31477 3.6475 0
    endloop
  endfacet
  facet normal 0.844328 -0.535827 0
    outer loop
      vertex -3.78564 2.08118 5
      vertex -3.49495 2.53923 0
      vertex -3.49495 2.53923 5
    endloop
  endfacet
  facet normal 0.844328 -0.535827 0
    outer loop
      vertex -3.49495 2.53923 0
      vertex -3.78564 2.08118 5
      vertex -3.78564 2.08118 0
    endloop
  endfacet
  facet normal 0.951057 -0.309016 0
    outer loop
      vertex -4.18428 1.07434 5
      vertex -4.01663 1.5903 0
      vertex -4.01663 1.5903 5
    endloop
  endfacet
  facet normal 0.951057 -0.309016 0
    outer loop
      vertex -4.01663 1.5903 0
      vertex -4.18428 1.07434 5
      vertex -4.18428 1.07434 0
    endloop
  endfacet
  facet normal 0.982287 -0.187382 0
    outer loop
      vertex -4.28594 0.541439 5
      vertex -4.18428 1.07434 0
      vertex -4.18428 1.07434 5
    endloop
  endfacet
  facet normal 0.982287 -0.187382 0
    outer loop
      vertex -4.18428 1.07434 0
      vertex -4.28594 0.541439 5
      vertex -4.28594 0.541439 0
    endloop
  endfacet
  facet normal 0.587786 -0.809017 0
    outer loop
      vertex -2.75367 3.32862 0
      vertex -2.31477 3.6475 5
      vertex -2.75367 3.32862 5
    endloop
  endfacet
  facet normal 0.587786 -0.809017 0
    outer loop
      vertex -2.31477 3.6475 5
      vertex -2.75367 3.32862 0
      vertex -2.31477 3.6475 0
    endloop
  endfacet
  facet normal 0.24869 -0.968583 0
    outer loop
      vertex -1.33495 4.10856 0
      vertex -0.809486 4.24348 5
      vertex -1.33495 4.10856 5
    endloop
  endfacet
  facet normal 0.24869 -0.968583 0
    outer loop
      vertex -0.809486 4.24348 5
      vertex -1.33495 4.10856 0
      vertex -0.809486 4.24348 0
    endloop
  endfacet
  facet normal -0.998027 0.0627902 0
    outer loop
      vertex 4.28594 -0.541439 0
      vertex 4.32 0 5
      vertex 4.32 0 0
    endloop
  endfacet
  facet normal -0.998027 0.0627902 0
    outer loop
      vertex 4.32 0 5
      vertex 4.28594 -0.541439 0
      vertex 4.28594 -0.541439 5
    endloop
  endfacet
  facet normal -0.770513 0.637424 0
    outer loop
      vertex 3.14914 -2.95724 0
      vertex 3.49495 -2.53923 5
      vertex 3.49495 -2.53923 0
    endloop
  endfacet
  facet normal -0.770513 0.637424 0
    outer loop
      vertex 3.49495 -2.53923 5
      vertex 3.14914 -2.95724 0
      vertex 3.14914 -2.95724 5
    endloop
  endfacet
  facet normal 0.684547 0.728969 -0
    outer loop
      vertex -2.75367 -3.32862 0
      vertex -3.14914 -2.95724 5
      vertex -2.75367 -3.32862 5
    endloop
  endfacet
  facet normal 0.684547 0.728969 0
    outer loop
      vertex -3.14914 -2.95724 5
      vertex -2.75367 -3.32862 0
      vertex -3.14914 -2.95724 0
    endloop
  endfacet
  facet normal 0.904827 0.425779 0
    outer loop
      vertex -3.78564 -2.08118 5
      vertex -4.01663 -1.5903 0
      vertex -4.01663 -1.5903 5
    endloop
  endfacet
  facet normal 0.904827 0.425779 0
    outer loop
      vertex -4.01663 -1.5903 0
      vertex -3.78564 -2.08118 5
      vertex -3.78564 -2.08118 0
    endloop
  endfacet
  facet normal 0.770513 0.637424 0
    outer loop
      vertex -3.14914 -2.95724 5
      vertex -3.49495 -2.53923 0
      vertex -3.49495 -2.53923 5
    endloop
  endfacet
  facet normal 0.770513 0.637424 0
    outer loop
      vertex -3.49495 -2.53923 0
      vertex -3.14914 -2.95724 5
      vertex -3.14914 -2.95724 0
    endloop
  endfacet
  facet normal -0.904827 0.425779 0
    outer loop
      vertex 3.78564 -2.08118 0
      vertex 4.01663 -1.5903 5
      vertex 4.01663 -1.5903 0
    endloop
  endfacet
  facet normal -0.904827 0.425779 0
    outer loop
      vertex 4.01663 -1.5903 5
      vertex 3.78564 -2.08118 0
      vertex 3.78564 -2.08118 5
    endloop
  endfacet
  facet normal -0.951057 0.309016 0
    outer loop
      vertex 4.01663 -1.5903 0
      vertex 4.18428 -1.07434 5
      vertex 4.18428 -1.07434 0
    endloop
  endfacet
  facet normal -0.951057 0.309016 0
    outer loop
      vertex 4.18428 -1.07434 5
      vertex 4.01663 -1.5903 0
      vertex 4.01663 -1.5903 5
    endloop
  endfacet
  facet normal 0.982287 0.187382 0
    outer loop
      vertex -4.18428 -1.07434 5
      vertex -4.28594 -0.541439 0
      vertex -4.28594 -0.541439 5
    endloop
  endfacet
  facet normal 0.982287 0.187382 0
    outer loop
      vertex -4.28594 -0.541439 0
      vertex -4.18428 -1.07434 5
      vertex -4.18428 -1.07434 0
    endloop
  endfacet
  facet normal 0.998027 0.0627902 0
    outer loop
      vertex -4.28594 -0.541439 5
      vertex -4.32 0 0
      vertex -4.32 0 5
    endloop
  endfacet
  facet normal 0.998027 0.0627902 0
    outer loop
      vertex -4.32 0 0
      vertex -4.28594 -0.541439 5
      vertex -4.28594 -0.541439 0
    endloop
  endfacet
  facet normal 0.951057 0.309016 0
    outer loop
      vertex -4.01663 -1.5903 5
      vertex -4.18428 -1.07434 0
      vertex -4.18428 -1.07434 5
    endloop
  endfacet
  facet normal 0.951057 0.309016 0
    outer loop
      vertex -4.18428 -1.07434 0
      vertex -4.01663 -1.5903 5
      vertex -4.01663 -1.5903 0
    endloop
  endfacet
  facet normal -0.24869 0.968583 0
    outer loop
      vertex 1.33495 -4.10856 0
      vertex 0.809486 -4.24348 5
      vertex 1.33495 -4.10856 5
    endloop
  endfacet
  facet normal -0.24869 0.968583 0
    outer loop
      vertex 0.809486 -4.24348 5
      vertex 1.33495 -4.10856 0
      vertex 0.809486 -4.24348 0
    endloop
  endfacet
  facet normal -0.481753 0.876307 0
    outer loop
      vertex 2.31477 -3.6475 0
      vertex 1.83937 -3.90885 5
      vertex 2.31477 -3.6475 5
    endloop
  endfacet
  facet normal -0.481753 0.876307 0
    outer loop
      vertex 1.83937 -3.90885 5
      vertex 2.31477 -3.6475 0
      vertex 1.83937 -3.90885 0
    endloop
  endfacet
  facet normal -0.368124 0.929777 0
    outer loop
      vertex 1.83937 -3.90885 0
      vertex 1.33495 -4.10856 5
      vertex 1.83937 -3.90885 5
    endloop
  endfacet
  facet normal -0.368124 0.929777 0
    outer loop
      vertex 1.33495 -4.10856 5
      vertex 1.83937 -3.90885 0
      vertex 1.33495 -4.10856 0
    endloop
  endfacet
  facet normal -0.684547 0.728969 0
    outer loop
      vertex 3.14914 -2.95724 0
      vertex 2.75367 -3.32862 5
      vertex 3.14914 -2.95724 5
    endloop
  endfacet
  facet normal -0.684547 0.728969 0
    outer loop
      vertex 2.75367 -3.32862 5
      vertex 3.14914 -2.95724 0
      vertex 2.75367 -3.32862 0
    endloop
  endfacet
  facet normal -0.587786 0.809017 0
    outer loop
      vertex 2.75367 -3.32862 0
      vertex 2.31477 -3.6475 5
      vertex 2.75367 -3.32862 5
    endloop
  endfacet
  facet normal -0.587786 0.809017 0
    outer loop
      vertex 2.31477 -3.6475 5
      vertex 2.75367 -3.32862 0
      vertex 2.31477 -3.6475 0
    endloop
  endfacet
  facet normal 0.125333 0.992115 -0
    outer loop
      vertex -0.271255 -4.31147 0
      vertex -0.809486 -4.24348 5
      vertex -0.271255 -4.31147 5
    endloop
  endfacet
  facet normal 0.125333 0.992115 0
    outer loop
      vertex -0.809486 -4.24348 5
      vertex -0.271255 -4.31147 0
      vertex -0.809486 -4.24348 0
    endloop
  endfacet
  facet normal 0.481753 0.876307 -0
    outer loop
      vertex -1.83937 -3.90885 0
      vertex -2.31477 -3.6475 5
      vertex -1.83937 -3.90885 5
    endloop
  endfacet
  facet normal 0.481753 0.876307 0
    outer loop
      vertex -2.31477 -3.6475 5
      vertex -1.83937 -3.90885 0
      vertex -2.31477 -3.6475 0
    endloop
  endfacet
  facet normal 0.844328 0.535827 0
    outer loop
      vertex -3.49495 -2.53923 5
      vertex -3.78564 -2.08118 0
      vertex -3.78564 -2.08118 5
    endloop
  endfacet
  facet normal 0.844328 0.535827 0
    outer loop
      vertex -3.78564 -2.08118 0
      vertex -3.49495 -2.53923 5
      vertex -3.49495 -2.53923 0
    endloop
  endfacet
  facet normal 0.24869 0.968583 -0
    outer loop
      vertex -0.809486 -4.24348 0
      vertex -1.33495 -4.10856 5
      vertex -0.809486 -4.24348 5
    endloop
  endfacet
  facet normal 0.24869 0.968583 0
    outer loop
      vertex -1.33495 -4.10856 5
      vertex -0.809486 -4.24348 0
      vertex -1.33495 -4.10856 0
    endloop
  endfacet
  facet normal 0.368124 0.929777 -0
    outer loop
      vertex -1.33495 -4.10856 0
      vertex -1.83937 -3.90885 5
      vertex -1.33495 -4.10856 5
    endloop
  endfacet
  facet normal 0.368124 0.929777 0
    outer loop
      vertex -1.83937 -3.90885 5
      vertex -1.33495 -4.10856 0
      vertex -1.83937 -3.90885 0
    endloop
  endfacet
  facet normal 0.587786 0.809017 -0
    outer loop
      vertex -2.31477 -3.6475 0
      vertex -2.75367 -3.32862 5
      vertex -2.31477 -3.6475 5
    endloop
  endfacet
  facet normal 0.587786 0.809017 0
    outer loop
      vertex -2.75367 -3.32862 5
      vertex -2.31477 -3.6475 0
      vertex -2.75367 -3.32862 0
    endloop
  endfacet
endsolid OpenSCAD_Model
