solid OpenSCAD_Model
  facet normal -1 0 0
    outer loop
      vertex -5.74 -5.74 0
      vertex -5.74 5.74 5
      vertex -5.74 5.74 0
    endloop
  endfacet
  facet normal -1 -0 0
    outer loop
      vertex -5.74 5.74 5
      vertex -5.74 -5.74 0
      vertex -5.74 -5.74 5
    endloop
  endfacet
  facet normal 0 0 1
    outer loop
      vertex 5.74 5.74 5
      vertex 4.24 0 5
      vertex 5.74 -5.74 5
    endloop
  endfacet
  facet normal 0 0 1
    outer loop
      vertex 5.74 5.74 5
      vertex 4.20657 0.531412 5
      vertex 4.24 0 5
    endloop
  endfacet
  facet normal 0 0 1
    outer loop
      vertex 5.74 5.74 5
      vertex 4.10679 1.05444 5
      vertex 4.20657 0.531412 5
    endloop
  endfacet
  facet normal 0 0 1
    outer loop
      vertex 5.74 5.74 5
      vertex 3.94225 1.56085 5
      vertex 4.10679 1.05444 5
    endloop
  endfacet
  facet normal 0 0 1
    outer loop
      vertex 5.74 5.74 5
      vertex 3.71554 2.04263 5
      vertex 3.94225 1.56085 5
    endloop
  endfacet
  facet normal 0 0 1
    outer loop
      vertex 5.74 5.74 5
      vertex 3.43023 2.49221 5
      vertex 3.71554 2.04263 5
    endloop
  endfacet
  facet normal 0 0 1
    outer loop
      vertex 5.74 5.74 5
      vertex 3.09083 2.90248 5
      vertex 3.43023 2.49221 5
    endloop
  endfacet
  facet normal 0 0 1
    outer loop
      vertex 5.74 5.74 5
      vertex 2.70268 3.26698 5
      vertex 3.09083 2.90248 5
    endloop
  endfacet
  facet normal 0 0 1
    outer loop
      vertex 5.74 5.74 5
      vertex 2.2719 3.57995 5
      vertex 2.70268 3.26698 5
    endloop
  endfacet
  facet normal 0 0 1
    outer loop
      vertex 5.74 5.74 5
      vertex 1.8053 3.83647 5
      vertex 2.2719 3.57995 5
    endloop
  endfacet
  facet normal 0 0 1
    outer loop
      vertex 5.74 5.74 5
      vertex 1.31023 4.03248 5
      vertex 1.8053 3.83647 5
    endloop
  endfacet
  facet normal 0 0 1
    outer loop
      vertex 5.74 5.74 5
      vertex 0.794497 4.1649 5
      vertex 1.31023 4.03248 5
    endloop
  endfacet
  facet normal 0 0 1
    outer loop
      vertex 5.74 5.74 5
      vertex 0.266232 4.23163 5
      vertex 0.794497 4.1649 5
    endloop
  endfacet
  facet normal 0 0 1
    outer loop
      vertex 5.74 5.74 5
      vertex -0.266232 4.23163 5
      vertex 0.266232 4.23163 5
    endloop
  endfacet
  facet normal -0 0 1
    outer loop
      vertex -5.74 5.74 5
      vertex -0.266232 4.23163 5
      vertex 5.74 5.74 5
    endloop
  endfacet
  facet normal 0 0 1
    outer loop
      vertex -4.20657 0.531412 5
      vertex -5.74 5.74 5
      vertex -4.24 0 5
    endloop
  endfacet
  facet normal 0 0 1
    outer loop
      vertex -4.10679 1.05444 5
      vertex -5.74 5.74 5
      vertex -4.20657 0.531412 5
    endloop
  endfacet
  facet normal 0 0 1
    outer loop
      vertex -3.94225 1.56085 5
      vertex -5.74 5.74 5
      vertex -4.10679 1.05444 5
    endloop
  endfacet
  facet normal 0 0 1
    outer loop
      vertex -3.71554 2.04263 5
      vertex -5.74 5.74 5
      vertex -3.94225 1.56085 5
    endloop
  endfacet
  facet normal 0 0 1
    outer loop
      vertex -3.43023 2.49221 5
      vertex -5.74 5.74 5
      vertex -3.71554 2.04263 5
    endloop
  endfacet
  facet normal 0 0 1
    outer loop
      vertex -3.09083 2.90248 5
      vertex -5.74 5.74 5
      vertex -3.43023 2.49221 5
    endloop
  endfacet
  facet normal 0 0 1
    outer loop
      vertex -2.70268 3.26698 5
      vertex -5.74 5.74 5
      vertex -3.09083 2.90248 5
    endloop
  endfacet
  facet normal 0 0 1
    outer loop
      vertex -2.2719 3.57995 5
      vertex -5.74 5.74 5
      vertex -2.70268 3.26698 5
    endloop
  endfacet
  facet normal 0 0 1
    outer loop
      vertex -1.8053 3.83647 5
      vertex -5.74 5.74 5
      vertex -2.2719 3.57995 5
    endloop
  endfacet
  facet normal 0 0 1
    outer loop
      vertex -1.31023 4.03248 5
      vertex -5.74 5.74 5
      vertex -1.8053 3.83647 5
    endloop
  endfacet
  facet normal 0 0 1
    outer loop
      vertex -0.794497 4.1649 5
      vertex -5.74 5.74 5
      vertex -1.31023 4.03248 5
    endloop
  endfacet
  facet normal 0 0 1
    outer loop
      vertex -0.266232 4.23163 5
      vertex -5.74 5.74 5
      vertex -0.794497 4.1649 5
    endloop
  endfacet
  facet normal -0 0 1
    outer loop
      vertex 4.20657 -0.531412 5
      vertex 5.74 -5.74 5
      vertex 4.24 0 5
    endloop
  endfacet
  facet normal -0 0 1
    outer loop
      vertex 4.10679 -1.05444 5
      vertex 5.74 -5.74 5
      vertex 4.20657 -0.531412 5
    endloop
  endfacet
  facet normal -0 0 1
    outer loop
      vertex 3.94225 -1.56085 5
      vertex 5.74 -5.74 5
      vertex 4.10679 -1.05444 5
    endloop
  endfacet
  facet normal -0 0 1
    outer loop
      vertex 3.71554 -2.04263 5
      vertex 5.74 -5.74 5
      vertex 3.94225 -1.56085 5
    endloop
  endfacet
  facet normal -0 0 1
    outer loop
      vertex 3.43023 -2.49221 5
      vertex 5.74 -5.74 5
      vertex 3.71554 -2.04263 5
    endloop
  endfacet
  facet normal -0 0 1
    outer loop
      vertex 3.09083 -2.90248 5
      vertex 5.74 -5.74 5
      vertex 3.43023 -2.49221 5
    endloop
  endfacet
  facet normal -0 0 1
    outer loop
      vertex 2.70268 -3.26698 5
      vertex 5.74 -5.74 5
      vertex 3.09083 -2.90248 5
    endloop
  endfacet
  facet normal -0 0 1
    outer loop
      vertex 2.2719 -3.57995 5
      vertex 5.74 -5.74 5
      vertex 2.70268 -3.26698 5
    endloop
  endfacet
  facet normal -0 0 1
    outer loop
      vertex 1.8053 -3.83647 5
      vertex 5.74 -5.74 5
      vertex 2.2719 -3.57995 5
    endloop
  endfacet
  facet normal -0 0 1
    outer loop
      vertex 1.31023 -4.03248 5
      vertex 5.74 -5.74 5
      vertex 1.8053 -3.83647 5
    endloop
  endfacet
  facet normal -0 0 1
    outer loop
      vertex 0.794497 -4.1649 5
      vertex 5.74 -5.74 5
      vertex 1.31023 -4.03248 5
    endloop
  endfacet
  facet normal -0 0 1
    outer loop
      vertex 0.266232 -4.23163 5
      vertex 5.74 -5.74 5
      vertex 0.794497 -4.1649 5
    endloop
  endfacet
  facet normal -0 0 1
    outer loop
      vertex -0.266232 -4.23163 5
      vertex 5.74 -5.74 5
      vertex 0.266232 -4.23163 5
    endloop
  endfacet
  facet normal 0 0 1
    outer loop
      vertex -5.74 -5.74 5
      vertex -0.266232 -4.23163 5
      vertex -0.794497 -4.1649 5
    endloop
  endfacet
  facet normal 0 0 1
    outer loop
      vertex -5.74 -5.74 5
      vertex -4.24 0 5
      vertex -5.74 5.74 5
    endloop
  endfacet
  facet normal 0 0 1
    outer loop
      vertex -4.24 0 5
      vertex -5.74 -5.74 5
      vertex -4.20657 -0.531412 5
    endloop
  endfacet
  facet normal 0 0 1
    outer loop
      vertex -0.266232 -4.23163 5
      vertex -5.74 -5.74 5
      vertex 5.74 -5.74 5
    endloop
  endfacet
  facet normal 0 0 1
    outer loop
      vertex -1.31023 -4.03248 5
      vertex -5.74 -5.74 5
      vertex -0.794497 -4.1649 5
    endloop
  endfacet
  facet normal 0 0 1
    outer loop
      vertex -1.8053 -3.83647 5
      vertex -5.74 -5.74 5
      vertex -1.31023 -4.03248 5
    endloop
  endfacet
  facet normal 0 0 1
    outer loop
      vertex -2.2719 -3.57995 5
      vertex -5.74 -5.74 5
      vertex -1.8053 -3.83647 5
    endloop
  endfacet
  facet normal 0 0 1
    outer loop
      vertex -2.70268 -3.26698 5
      vertex -5.74 -5.74 5
      vertex -2.2719 -3.57995 5
    endloop
  endfacet
  facet normal 0 0 1
    outer loop
      vertex -3.09083 -2.90248 5
      vertex -5.74 -5.74 5
      vertex -2.70268 -3.26698 5
    endloop
  endfacet
  facet normal 0 0 1
    outer loop
      vertex -3.43023 -2.49221 5
      vertex -5.74 -5.74 5
      vertex -3.09083 -2.90248 5
    endloop
  endfacet
  facet normal 0 0 1
    outer loop
      vertex -3.71554 -2.04263 5
      vertex -5.74 -5.74 5
      vertex -3.43023 -2.49221 5
    endloop
  endfacet
  facet normal 0 0 1
    outer loop
      vertex -3.94225 -1.56085 5
      vertex -5.74 -5.74 5
      vertex -3.71554 -2.04263 5
    endloop
  endfacet
  facet normal 0 0 1
    outer loop
      vertex -4.10679 -1.05444 5
      vertex -5.74 -5.74 5
      vertex -3.94225 -1.56085 5
    endloop
  endfacet
  facet normal 0 0 1
    outer loop
      vertex -4.20657 -0.531412 5
      vertex -5.74 -5.74 5
      vertex -4.10679 -1.05444 5
    endloop
  endfacet
  facet normal 1 -0 0
    outer loop
      vertex 5.74 -5.74 5
      vertex 5.74 5.74 0
      vertex 5.74 5.74 5
    endloop
  endfacet
  facet normal 1 0 0
    outer loop
      vertex 5.74 5.74 0
      vertex 5.74 -5.74 5
      vertex 5.74 -5.74 0
    endloop
  endfacet
  facet normal 0 1 -0
    outer loop
      vertex 5.74 5.74 0
      vertex -5.74 5.74 5
      vertex 5.74 5.74 5
    endloop
  endfacet
  facet normal 0 1 0
    outer loop
      vertex -5.74 5.74 5
      vertex 5.74 5.74 0
      vertex -5.74 5.74 0
    endloop
  endfacet
  facet normal 0 0 -1
    outer loop
      vertex 5.74 -5.74 0
      vertex 4.24 0 0
      vertex 5.74 5.74 0
    endloop
  endfacet
  facet normal 0 0 -1
    outer loop
      vertex 5.74 -5.74 0
      vertex 4.20657 -0.531412 0
      vertex 4.24 0 0
    endloop
  endfacet
  facet normal 0 0 -1
    outer loop
      vertex 5.74 -5.74 0
      vertex 4.10679 -1.05444 0
      vertex 4.20657 -0.531412 0
    endloop
  endfacet
  facet normal 0 0 -1
    outer loop
      vertex 5.74 -5.74 0
      vertex 3.94225 -1.56085 0
      vertex 4.10679 -1.05444 0
    endloop
  endfacet
  facet normal 0 0 -1
    outer loop
      vertex 5.74 -5.74 0
      vertex 3.71554 -2.04263 0
      vertex 3.94225 -1.56085 0
    endloop
  endfacet
  facet normal 0 0 -1
    outer loop
      vertex 5.74 -5.74 0
      vertex 3.43023 -2.49221 0
      vertex 3.71554 -2.04263 0
    endloop
  endfacet
  facet normal 0 0 -1
    outer loop
      vertex 5.74 -5.74 0
      vertex 3.09083 -2.90248 0
      vertex 3.43023 -2.49221 0
    endloop
  endfacet
  facet normal 0 0 -1
    outer loop
      vertex 5.74 -5.74 0
      vertex 2.70268 -3.26698 0
      vertex 3.09083 -2.90248 0
    endloop
  endfacet
  facet normal 0 0 -1
    outer loop
      vertex 5.74 -5.74 0
      vertex 2.2719 -3.57995 0
      vertex 2.70268 -3.26698 0
    endloop
  endfacet
  facet normal 0 0 -1
    outer loop
      vertex 5.74 -5.74 0
      vertex 1.8053 -3.83647 0
      vertex 2.2719 -3.57995 0
    endloop
  endfacet
  facet normal 0 0 -1
    outer loop
      vertex 5.74 -5.74 0
      vertex 1.31023 -4.03248 0
      vertex 1.8053 -3.83647 0
    endloop
  endfacet
  facet normal 0 0 -1
    outer loop
      vertex 5.74 -5.74 0
      vertex 0.794497 -4.1649 0
      vertex 1.31023 -4.03248 0
    endloop
  endfacet
  facet normal 0 0 -1
    outer loop
      vertex 5.74 -5.74 0
      vertex 0.266232 -4.23163 0
      vertex 0.794497 -4.1649 0
    endloop
  endfacet
  facet normal 0 0 -1
    outer loop
      vertex 5.74 -5.74 0
      vertex -0.266232 -4.23163 0
      vertex 0.266232 -4.23163 0
    endloop
  endfacet
  facet normal 0 0 -1
    outer loop
      vertex -5.74 -5.74 0
      vertex -0.266232 -4.23163 0
      vertex 5.74 -5.74 0
    endloop
  endfacet
  facet normal -0 0 -1
    outer loop
      vertex -4.20657 -0.531412 0
      vertex -5.74 -5.74 0
      vertex -4.24 0 0
    endloop
  endfacet
  facet normal -0 0 -1
    outer loop
      vertex -4.10679 -1.05444 0
      vertex -5.74 -5.74 0
      vertex -4.20657 -0.531412 0
    endloop
  endfacet
  facet normal -0 0 -1
    outer loop
      vertex -3.94225 -1.56085 0
      vertex -5.74 -5.74 0
      vertex -4.10679 -1.05444 0
    endloop
  endfacet
  facet normal -0 0 -1
    outer loop
      vertex -3.71554 -2.04263 0
      vertex -5.74 -5.74 0
      vertex -3.94225 -1.56085 0
    endloop
  endfacet
  facet normal -0 0 -1
    outer loop
      vertex -3.43023 -2.49221 0
      vertex -5.74 -5.74 0
      vertex -3.71554 -2.04263 0
    endloop
  endfacet
  facet normal -0 0 -1
    outer loop
      vertex -3.09083 -2.90248 0
      vertex -5.74 -5.74 0
      vertex -3.43023 -2.49221 0
    endloop
  endfacet
  facet normal -0 0 -1
    outer loop
      vertex -2.70268 -3.26698 0
      vertex -5.74 -5.74 0
      vertex -3.09083 -2.90248 0
    endloop
  endfacet
  facet normal -0 0 -1
    outer loop
      vertex -2.2719 -3.57995 0
      vertex -5.74 -5.74 0
      vertex -2.70268 -3.26698 0
    endloop
  endfacet
  facet normal -0 0 -1
    outer loop
      vertex -1.8053 -3.83647 0
      vertex -5.74 -5.74 0
      vertex -2.2719 -3.57995 0
    endloop
  endfacet
  facet normal -0 0 -1
    outer loop
      vertex -1.31023 -4.03248 0
      vertex -5.74 -5.74 0
      vertex -1.8053 -3.83647 0
    endloop
  endfacet
  facet normal -0 0 -1
    outer loop
      vertex -0.794497 -4.1649 0
      vertex -5.74 -5.74 0
      vertex -1.31023 -4.03248 0
    endloop
  endfacet
  facet normal -0 0 -1
    outer loop
      vertex -0.266232 -4.23163 0
      vertex -5.74 -5.74 0
      vertex -0.794497 -4.1649 0
    endloop
  endfacet
  facet normal 0 0 -1
    outer loop
      vertex 4.20657 0.531412 0
      vertex 5.74 5.74 0
      vertex 4.24 0 0
    endloop
  endfacet
  facet normal 0 0 -1
    outer loop
      vertex 4.10679 1.05444 0
      vertex 5.74 5.74 0
      vertex 4.20657 0.531412 0
    endloop
  endfacet
  facet normal 0 0 -1
    outer loop
      vertex 3.94225 1.56085 0
      vertex 5.74 5.74 0
      vertex 4.10679 1.05444 0
    endloop
  endfacet
  facet normal 0 0 -1
    outer loop
      vertex 3.71554 2.04263 0
      vertex 5.74 5.74 0
      vertex 3.94225 1.56085 0
    endloop
  endfacet
  facet normal 0 0 -1
    outer loop
      vertex 3.43023 2.49221 0
      vertex 5.74 5.74 0
      vertex 3.71554 2.04263 0
    endloop
  endfacet
  facet normal 0 0 -1
    outer loop
      vertex 3.09083 2.90248 0
      vertex 5.74 5.74 0
      vertex 3.43023 2.49221 0
    endloop
  endfacet
  facet normal 0 0 -1
    outer loop
      vertex 2.70268 3.26698 0
      vertex 5.74 5.74 0
      vertex 3.09083 2.90248 0
    endloop
  endfacet
  facet normal 0 0 -1
    outer loop
      vertex 2.2719 3.57995 0
      vertex 5.74 5.74 0
      vertex 2.70268 3.26698 0
    endloop
  endfacet
  facet normal 0 0 -1
    outer loop
      vertex 1.8053 3.83647 0
      vertex 5.74 5.74 0
      vertex 2.2719 3.57995 0
    endloop
  endfacet
  facet normal 0 0 -1
    outer loop
      vertex 1.31023 4.03248 0
      vertex 5.74 5.74 0
      vertex 1.8053 3.83647 0
    endloop
  endfacet
  facet normal 0 0 -1
    outer loop
      vertex 0.794497 4.1649 0
      vertex 5.74 5.74 0
      vertex 1.31023 4.03248 0
    endloop
  endfacet
  facet normal 0 0 -1
    outer loop
      vertex 0.266232 4.23163 0
      vertex 5.74 5.74 0
      vertex 0.794497 4.1649 0
    endloop
  endfacet
  facet normal 0 0 -1
    outer loop
      vertex -0.266232 4.23163 0
      vertex 5.74 5.74 0
      vertex 0.266232 4.23163 0
    endloop
  endfacet
  facet normal 0 0 -1
    outer loop
      vertex -5.74 5.74 0
      vertex -0.266232 4.23163 0
      vertex -0.794497 4.1649 0
    endloop
  endfacet
  facet normal 0 0 -1
    outer loop
      vertex -5.74 5.74 0
      vertex -4.24 0 0
      vertex -5.74 -5.74 0
    endloop
  endfacet
  facet normal 0 0 -1
    outer loop
      vertex -4.24 0 0
      vertex -5.74 5.74 0
      vertex -4.20657 0.531412 0
    endloop
  endfacet
  facet normal 0 0 -1
    outer loop
      vertex -0.266232 4.23163 0
      vertex -5.74 5.74 0
      vertex 5.74 5.74 0
    endloop
  endfacet
  facet normal 0 0 -1
    outer loop
      vertex -1.31023 4.03248 0
      vertex -5.74 5.74 0
      vertex -0.794497 4.1649 0
    endloop
  endfacet
  facet normal 0 0 -1
    outer loop
      vertex -1.8053 3.83647 0
      vertex -5.74 5.74 0
      vertex -1.31023 4.03248 0
    endloop
  endfacet
  facet normal 0 0 -1
    outer loop
      vertex -2.2719 3.57995 0
      vertex -5.74 5.74 0
      vertex -1.8053 3.83647 0
    endloop
  endfacet
  facet normal 0 0 -1
    outer loop
      vertex -2.70268 3.26698 0
      vertex -5.74 5.74 0
      vertex -2.2719 3.57995 0
    endloop
  endfacet
  facet normal 0 0 -1
    outer loop
      vertex -3.09083 2.90248 0
      vertex -5.74 5.74 0
      vertex -2.70268 3.26698 0
    endloop
  endfacet
  facet normal 0 0 -1
    outer loop
      vertex -3.43023 2.49221 0
      vertex -5.74 5.74 0
      vertex -3.09083 2.90248 0
    endloop
  endfacet
  facet normal 0 0 -1
    outer loop
      vertex -3.71554 2.04263 0
      vertex -5.74 5.74 0
      vertex -3.43023 2.49221 0
    endloop
  endfacet
  facet normal 0 0 -1
    outer loop
      vertex -3.94225 1.56085 0
      vertex -5.74 5.74 0
      vertex -3.71554 2.04263 0
    endloop
  endfacet
  facet normal 0 0 -1
    outer loop
      vertex -4.10679 1.05444 0
      vertex -5.74 5.74 0
      vertex -3.94225 1.56085 0
    endloop
  endfacet
  facet normal 0 0 -1
    outer loop
      vertex -4.20657 0.531412 0
      vertex -5.74 5.74 0
      vertex -4.10679 1.05444 0
    endloop
  endfacet
  facet normal 0 -1 0
    outer loop
      vertex -5.74 -5.74 0
      vertex 5.74 -5.74 5
      vertex -5.74 -5.74 5
    endloop
  endfacet
  facet normal 0 -1 -0
    outer loop
      vertex 5.74 -5.74 5
      vertex -5.74 -5.74 0
      vertex 5.74 -5.74 0
    endloop
  endfacet
  facet normal -0.998027 -0.0627911 0
    outer loop
      vertex 4.24 0 0
      vertex 4.20657 0.531412 5
      vertex 4.20657 0.531412 0
    endloop
  endfacet
  facet normal -0.998027 -0.0627911 0
    outer loop
      vertex 4.20657 0.531412 5
      vertex 4.24 0 0
      vertex 4.24 0 5
    endloop
  endfacet
  facet normal 0.998027 -0.0627911 0
    outer loop
      vertex -4.24 0 5
      vertex -4.20657 0.531412 0
      vertex -4.20657 0.531412 5
    endloop
  endfacet
  facet normal 0.998027 -0.0627911 0
    outer loop
      vertex -4.20657 0.531412 0
      vertex -4.24 0 5
      vertex -4.24 0 0
    endloop
  endfacet
  facet normal 0 -1 0
    outer loop
      vertex -0.266232 4.23163 0
      vertex 0.266232 4.23163 5
      vertex -0.266232 4.23163 5
    endloop
  endfacet
  facet normal 0 -1 -0
    outer loop
      vertex 0.266232 4.23163 5
      vertex -0.266232 4.23163 0
      vertex 0.266232 4.23163 0
    endloop
  endfacet
  facet normal 0 1 -0
    outer loop
      vertex 0.266232 -4.23163 0
      vertex -0.266232 -4.23163 5
      vertex 0.266232 -4.23163 5
    endloop
  endfacet
  facet normal 0 1 0
    outer loop
      vertex -0.266232 -4.23163 5
      vertex 0.266232 -4.23163 0
      vertex -0.266232 -4.23163 0
    endloop
  endfacet
  facet normal -0.770512 0.637426 0
    outer loop
      vertex 3.09083 -2.90248 0
      vertex 3.43023 -2.49221 5
      vertex 3.43023 -2.49221 0
    endloop
  endfacet
  facet normal -0.770512 0.637426 0
    outer loop
      vertex 3.43023 -2.49221 5
      vertex 3.09083 -2.90248 0
      vertex 3.09083 -2.90248 5
    endloop
  endfacet
  facet normal -0.684547 -0.728969 0
    outer loop
      vertex 2.70268 3.26698 0
      vertex 3.09083 2.90248 5
      vertex 2.70268 3.26698 5
    endloop
  endfacet
  facet normal -0.684547 -0.728969 -0
    outer loop
      vertex 3.09083 2.90248 5
      vertex 2.70268 3.26698 0
      vertex 3.09083 2.90248 0
    endloop
  endfacet
  facet normal 0.684547 -0.728969 0
    outer loop
      vertex -3.09083 2.90248 0
      vertex -2.70268 3.26698 5
      vertex -3.09083 2.90248 5
    endloop
  endfacet
  facet normal 0.684547 -0.728969 0
    outer loop
      vertex -2.70268 3.26698 5
      vertex -3.09083 2.90248 0
      vertex -2.70268 3.26698 0
    endloop
  endfacet
  facet normal 0.368125 -0.929776 0
    outer loop
      vertex -1.8053 3.83647 0
      vertex -1.31023 4.03248 5
      vertex -1.8053 3.83647 5
    endloop
  endfacet
  facet normal 0.368125 -0.929776 0
    outer loop
      vertex -1.31023 4.03248 5
      vertex -1.8053 3.83647 0
      vertex -1.31023 4.03248 0
    endloop
  endfacet
  facet normal -0.904827 -0.42578 0
    outer loop
      vertex 3.94225 1.56085 0
      vertex 3.71554 2.04263 5
      vertex 3.71554 2.04263 0
    endloop
  endfacet
  facet normal -0.904827 -0.42578 0
    outer loop
      vertex 3.71554 2.04263 5
      vertex 3.94225 1.56085 0
      vertex 3.94225 1.56085 5
    endloop
  endfacet
  facet normal -0.982287 -0.187381 0
    outer loop
      vertex 4.20657 0.531412 0
      vertex 4.10679 1.05444 5
      vertex 4.10679 1.05444 0
    endloop
  endfacet
  facet normal -0.982287 -0.187381 0
    outer loop
      vertex 4.10679 1.05444 5
      vertex 4.20657 0.531412 0
      vertex 4.20657 0.531412 5
    endloop
  endfacet
  facet normal -0.844329 -0.535826 0
    outer loop
      vertex 3.71554 2.04263 0
      vertex 3.43023 2.49221 5
      vertex 3.43023 2.49221 0
    endloop
  endfacet
  facet normal -0.844329 -0.535826 0
    outer loop
      vertex 3.43023 2.49221 5
      vertex 3.71554 2.04263 0
      vertex 3.71554 2.04263 5
    endloop
  endfacet
  facet normal -0.368125 -0.929776 0
    outer loop
      vertex 1.31023 4.03248 0
      vertex 1.8053 3.83647 5
      vertex 1.31023 4.03248 5
    endloop
  endfacet
  facet normal -0.368125 -0.929776 -0
    outer loop
      vertex 1.8053 3.83647 5
      vertex 1.31023 4.03248 0
      vertex 1.8053 3.83647 0
    endloop
  endfacet
  facet normal -0.248691 -0.968583 0
    outer loop
      vertex 0.794497 4.1649 0
      vertex 1.31023 4.03248 5
      vertex 0.794497 4.1649 5
    endloop
  endfacet
  facet normal -0.248691 -0.968583 -0
    outer loop
      vertex 1.31023 4.03248 5
      vertex 0.794497 4.1649 0
      vertex 1.31023 4.03248 0
    endloop
  endfacet
  facet normal -0.587786 -0.809016 0
    outer loop
      vertex 2.2719 3.57995 0
      vertex 2.70268 3.26698 5
      vertex 2.2719 3.57995 5
    endloop
  endfacet
  facet normal -0.587786 -0.809016 -0
    outer loop
      vertex 2.70268 3.26698 5
      vertex 2.2719 3.57995 0
      vertex 2.70268 3.26698 0
    endloop
  endfacet
  facet normal 0.904827 -0.42578 0
    outer loop
      vertex -3.94225 1.56085 5
      vertex -3.71554 2.04263 0
      vertex -3.71554 2.04263 5
    endloop
  endfacet
  facet normal 0.904827 -0.42578 0
    outer loop
      vertex -3.71554 2.04263 0
      vertex -3.94225 1.56085 5
      vertex -3.94225 1.56085 0
    endloop
  endfacet
  facet normal 0.770512 -0.637426 0
    outer loop
      vertex -3.43023 2.49221 5
      vertex -3.09083 2.90248 0
      vertex -3.09083 2.90248 5
    endloop
  endfacet
  facet normal 0.770512 -0.637426 0
    outer loop
      vertex -3.09083 2.90248 0
      vertex -3.43023 2.49221 5
      vertex -3.43023 2.49221 0
    endloop
  endfacet
  facet normal 0.951057 -0.309017 0
    outer loop
      vertex -4.10679 1.05444 5
      vertex -3.94225 1.56085 0
      vertex -3.94225 1.56085 5
    endloop
  endfacet
  facet normal 0.951057 -0.309017 0
    outer loop
      vertex -3.94225 1.56085 0
      vertex -4.10679 1.05444 5
      vertex -4.10679 1.05444 0
    endloop
  endfacet
  facet normal 0.481753 -0.876307 0
    outer loop
      vertex -2.2719 3.57995 0
      vertex -1.8053 3.83647 5
      vertex -2.2719 3.57995 5
    endloop
  endfacet
  facet normal 0.481753 -0.876307 0
    outer loop
      vertex -1.8053 3.83647 5
      vertex -2.2719 3.57995 0
      vertex -1.8053 3.83647 0
    endloop
  endfacet
  facet normal 0.125333 -0.992115 0
    outer loop
      vertex -0.794497 4.1649 0
      vertex -0.266232 4.23163 5
      vertex -0.794497 4.1649 5
    endloop
  endfacet
  facet normal 0.125333 -0.992115 0
    outer loop
      vertex -0.266232 4.23163 5
      vertex -0.794497 4.1649 0
      vertex -0.266232 4.23163 0
    endloop
  endfacet
  facet normal -0.125333 0.992115 0
    outer loop
      vertex 0.794497 -4.1649 0
      vertex 0.266232 -4.23163 5
      vertex 0.794497 -4.1649 5
    endloop
  endfacet
  facet normal -0.125333 0.992115 0
    outer loop
      vertex 0.266232 -4.23163 5
      vertex 0.794497 -4.1649 0
      vertex 0.266232 -4.23163 0
    endloop
  endfacet
  facet normal -0.951057 -0.309017 0
    outer loop
      vertex 4.10679 1.05444 0
      vertex 3.94225 1.56085 5
      vertex 3.94225 1.56085 0
    endloop
  endfacet
  facet normal -0.951057 -0.309017 0
    outer loop
      vertex 3.94225 1.56085 5
      vertex 4.10679 1.05444 0
      vertex 4.10679 1.05444 5
    endloop
  endfacet
  facet normal -0.770512 -0.637426 0
    outer loop
      vertex 3.43023 2.49221 0
      vertex 3.09083 2.90248 5
      vertex 3.09083 2.90248 0
    endloop
  endfacet
  facet normal -0.770512 -0.637426 0
    outer loop
      vertex 3.09083 2.90248 5
      vertex 3.43023 2.49221 0
      vertex 3.43023 2.49221 5
    endloop
  endfacet
  facet normal -0.125333 -0.992115 0
    outer loop
      vertex 0.266232 4.23163 0
      vertex 0.794497 4.1649 5
      vertex 0.266232 4.23163 5
    endloop
  endfacet
  facet normal -0.125333 -0.992115 -0
    outer loop
      vertex 0.794497 4.1649 5
      vertex 0.266232 4.23163 0
      vertex 0.794497 4.1649 0
    endloop
  endfacet
  facet normal -0.481753 -0.876307 0
    outer loop
      vertex 1.8053 3.83647 0
      vertex 2.2719 3.57995 5
      vertex 1.8053 3.83647 5
    endloop
  endfacet
  facet normal -0.481753 -0.876307 -0
    outer loop
      vertex 2.2719 3.57995 5
      vertex 1.8053 3.83647 0
      vertex 2.2719 3.57995 0
    endloop
  endfacet
  facet normal 0.844329 -0.535826 0
    outer loop
      vertex -3.71554 2.04263 5
      vertex -3.43023 2.49221 0
      vertex -3.43023 2.49221 5
    endloop
  endfacet
  facet normal 0.844329 -0.535826 0
    outer loop
      vertex -3.43023 2.49221 0
      vertex -3.71554 2.04263 5
      vertex -3.71554 2.04263 0
    endloop
  endfacet
  facet normal 0.982287 -0.187381 0
    outer loop
      vertex -4.20657 0.531412 5
      vertex -4.10679 1.05444 0
      vertex -4.10679 1.05444 5
    endloop
  endfacet
  facet normal 0.982287 -0.187381 0
    outer loop
      vertex -4.10679 1.05444 0
      vertex -4.20657 0.531412 5
      vertex -4.20657 0.531412 0
    endloop
  endfacet
  facet normal 0.587786 -0.809016 0
    outer loop
      vertex -2.70268 3.26698 0
      vertex -2.2719 3.57995 5
      vertex -2.70268 3.26698 5
    endloop
  endfacet
  facet normal 0.587786 -0.809016 0
    outer loop
      vertex -2.2719 3.57995 5
      vertex -2.70268 3.26698 0
      vertex -2.2719 3.57995 0
    endloop
  endfacet
  facet normal 0.248691 -0.968583 0
    outer loop
      vertex -1.31023 4.03248 0
      vertex -0.794497 4.1649 5
      vertex -1.31023 4.03248 5
    endloop
  endfacet
  facet normal 0.248691 -0.968583 0
    outer loop
      vertex -0.794497 4.1649 5
      vertex -1.31023 4.03248 0
      vertex -0.794497 4.1649 0
    endloop
  endfacet
  facet normal -0.951057 0.309017 0
    outer loop
      vertex 3.94225 -1.56085 0
      vertex 4.10679 -1.05444 5
      vertex 4.10679 -1.05444 0
    endloop
  endfacet
  facet normal -0.951057 0.309017 0
    outer loop
      vertex 4.10679 -1.05444 5
      vertex 3.94225 -1.56085 0
      vertex 3.94225 -1.56085 5
    endloop
  endfacet
  facet normal -0.982287 0.187381 0
    outer loop
      vertex 4.10679 -1.05444 0
      vertex 4.20657 -0.531412 5
      vertex 4.20657 -0.531412 0
    endloop
  endfacet
  facet normal -0.982287 0.187381 0
    outer loop
      vertex 4.20657 -0.531412 5
      vertex 4.10679 -1.05444 0
      vertex 4.10679 -1.05444 5
    endloop
  endfacet
  facet normal 0.904827 0.42578 0
    outer loop
      vertex -3.71554 -2.04263 5
      vertex -3.94225 -1.56085 0
      vertex -3.94225 -1.56085 5
    endloop
  endfacet
  facet normal 0.904827 0.42578 0
    outer loop
      vertex -3.94225 -1.56085 0
      vertex -3.71554 -2.04263 5
      vertex -3.71554 -2.04263 0
    endloop
  endfacet
  facet normal 0.770512 0.637426 0
    outer loop
      vertex -3.09083 -2.90248 5
      vertex -3.43023 -2.49221 0
      vertex -3.43023 -2.49221 5
    endloop
  endfacet
  facet normal 0.770512 0.637426 0
    outer loop
      vertex -3.43023 -2.49221 0
      vertex -3.09083 -2.90248 5
      vertex -3.09083 -2.90248 0
    endloop
  endfacet
  facet normal -0.587786 0.809016 0
    outer loop
      vertex 2.70268 -3.26698 0
      vertex 2.2719 -3.57995 5
      vertex 2.70268 -3.26698 5
    endloop
  endfacet
  facet normal -0.587786 0.809016 0
    outer loop
      vertex 2.2719 -3.57995 5
      vertex 2.70268 -3.26698 0
      vertex 2.2719 -3.57995 0
    endloop
  endfacet
  facet normal -0.998027 0.0627911 0
    outer loop
      vertex 4.20657 -0.531412 0
      vertex 4.24 0 5
      vertex 4.24 0 0
    endloop
  endfacet
  facet normal -0.998027 0.0627911 0
    outer loop
      vertex 4.24 0 5
      vertex 4.20657 -0.531412 0
      vertex 4.20657 -0.531412 5
    endloop
  endfacet
  facet normal 0.951057 0.309017 0
    outer loop
      vertex -3.94225 -1.56085 5
      vertex -4.10679 -1.05444 0
      vertex -4.10679 -1.05444 5
    endloop
  endfacet
  facet normal 0.951057 0.309017 0
    outer loop
      vertex -4.10679 -1.05444 0
      vertex -3.94225 -1.56085 5
      vertex -3.94225 -1.56085 0
    endloop
  endfacet
  facet normal -0.684547 0.728969 0
    outer loop
      vertex 3.09083 -2.90248 0
      vertex 2.70268 -3.26698 5
      vertex 3.09083 -2.90248 5
    endloop
  endfacet
  facet normal -0.684547 0.728969 0
    outer loop
      vertex 2.70268 -3.26698 5
      vertex 3.09083 -2.90248 0
      vertex 2.70268 -3.26698 0
    endloop
  endfacet
  facet normal -0.481753 0.876307 0
    outer loop
      vertex 2.2719 -3.57995 0
      vertex 1.8053 -3.83647 5
      vertex 2.2719 -3.57995 5
    endloop
  endfacet
  facet normal -0.481753 0.876307 0
    outer loop
      vertex 1.8053 -3.83647 5
      vertex 2.2719 -3.57995 0
      vertex 1.8053 -3.83647 0
    endloop
  endfacet
  facet normal -0.368125 0.929776 0
    outer loop
      vertex 1.8053 -3.83647 0
      vertex 1.31023 -4.03248 5
      vertex 1.8053 -3.83647 5
    endloop
  endfacet
  facet normal -0.368125 0.929776 0
    outer loop
      vertex 1.31023 -4.03248 5
      vertex 1.8053 -3.83647 0
      vertex 1.31023 -4.03248 0
    endloop
  endfacet
  facet normal -0.248691 0.968583 0
    outer loop
      vertex 1.31023 -4.03248 0
      vertex 0.794497 -4.1649 5
      vertex 1.31023 -4.03248 5
    endloop
  endfacet
  facet normal -0.248691 0.968583 0
    outer loop
      vertex 0.794497 -4.1649 5
      vertex 1.31023 -4.03248 0
      vertex 0.794497 -4.1649 0
    endloop
  endfacet
  facet normal -0.904827 0.42578 0
    outer loop
      vertex 3.71554 -2.04263 0
      vertex 3.94225 -1.56085 5
      vertex 3.94225 -1.56085 0
    endloop
  endfacet
  facet normal -0.904827 0.42578 0
    outer loop
      vertex 3.94225 -1.56085 5
      vertex 3.71554 -2.04263 0
      vertex 3.71554 -2.04263 5
    endloop
  endfacet
  facet normal -0.844329 0.535826 0
    outer loop
      vertex 3.43023 -2.49221 0
      vertex 3.71554 -2.04263 5
      vertex 3.71554 -2.04263 0
    endloop
  endfacet
  facet normal -0.844329 0.535826 0
    outer loop
      vertex 3.71554 -2.04263 5
      vertex 3.43023 -2.49221 0
      vertex 3.43023 -2.49221 5
    endloop
  endfacet
  facet normal 0.125333 0.992115 -0
    outer loop
      vertex -0.266232 -4.23163 0
      vertex -0.794497 -4.1649 5
      vertex -0.266232 -4.23163 5
    endloop
  endfacet
  facet normal 0.125333 0.992115 0
    outer loop
      vertex -0.794497 -4.1649 5
      vertex -0.266232 -4.23163 0
      vertex -0.794497 -4.1649 0
    endloop
  endfacet
  facet normal 0.368125 0.929776 -0
    outer loop
      vertex -1.31023 -4.03248 0
      vertex -1.8053 -3.83647 5
      vertex -1.31023 -4.03248 5
    endloop
  endfacet
  facet normal 0.368125 0.929776 0
    outer loop
      vertex -1.8053 -3.83647 5
      vertex -1.31023 -4.03248 0
      vertex -1.8053 -3.83647 0
    endloop
  endfacet
  facet normal 0.248691 0.968583 -0
    outer loop
      vertex -0.794497 -4.1649 0
      vertex -1.31023 -4.03248 5
      vertex -0.794497 -4.1649 5
    endloop
  endfacet
  facet normal 0.248691 0.968583 0
    outer loop
      vertex -1.31023 -4.03248 5
      vertex -0.794497 -4.1649 0
      vertex -1.31023 -4.03248 0
    endloop
  endfacet
  facet normal 0.844329 0.535826 0
    outer loop
      vertex -3.43023 -2.49221 5
      vertex -3.71554 -2.04263 0
      vertex -3.71554 -2.04263 5
    endloop
  endfacet
  facet normal 0.844329 0.535826 0
    outer loop
      vertex -3.71554 -2.04263 0
      vertex -3.43023 -2.49221 5
      vertex -3.43023 -2.49221 0
    endloop
  endfacet
  facet normal 0.982287 0.187381 0
    outer loop
      vertex -4.10679 -1.05444 5
      vertex -4.20657 -0.531412 0
      vertex -4.20657 -0.531412 5
    endloop
  endfacet
  facet normal 0.982287 0.187381 0
    outer loop
      vertex -4.20657 -0.531412 0
      vertex -4.10679 -1.05444 5
      vertex -4.10679 -1.05444 0
    endloop
  endfacet
  facet normal 0.998027 0.0627911 0
    outer loop
      vertex -4.20657 -0.531412 5
      vertex -4.24 0 0
      vertex -4.24 0 5
    endloop
  endfacet
  facet normal 0.998027 0.0627911 0
    outer loop
      vertex -4.24 0 0
      vertex -4.20657 -0.531412 5
      vertex -4.20657 -0.531412 0
    endloop
  endfacet
  facet normal 0.481753 0.876307 -0
    outer loop
      vertex -1.8053 -3.83647 0
      vertex -2.2719 -3.57995 5
      vertex -1.8053 -3.83647 5
    endloop
  endfacet
  facet normal 0.481753 0.876307 0
    outer loop
      vertex -2.2719 -3.57995 5
      vertex -1.8053 -3.83647 0
      vertex -2.2719 -3.57995 0
    endloop
  endfacet
  facet normal 0.587786 0.809016 -0
    outer loop
      vertex -2.2719 -3.57995 0
      vertex -2.70268 -3.26698 5
      vertex -2.2719 -3.57995 5
    endloop
  endfacet
  facet normal 0.587786 0.809016 0
    outer loop
      vertex -2.70268 -3.26698 5
      vertex -2.2719 -3.57995 0
      vertex -2.70268 -3.26698 0
    endloop
  endfacet
  facet normal 0.684547 0.728969 -0
    outer loop
      vertex -2.70268 -3.26698 0
      vertex -3.09083 -2.90248 5
      vertex -2.70268 -3.26698 5
    endloop
  endfacet
  facet normal 0.684547 0.728969 0
    outer loop
      vertex -3.09083 -2.90248 5
      vertex -2.70268 -3.26698 0
      vertex -3.09083 -2.90248 0
    endloop
  endfacet
endsolid OpenSCAD_Model
