  0
SECTION
  2
BLOCKS
  0
ENDSEC
  0
SECTION
  2
ENTITIES
  0
LINE
  8
0
 10
-110
 20
-110
 11
110
 21
-110
  0
LINE
  8
0
 10
110
 20
-110
 11
110
 21
110
  0
LINE
  8
0
 10
110
 20
110
 11
-110
 21
110
  0
LINE
  8
0
 10
-110
 20
110
 11
-110
 21
-110
  0
LINE
  8
0
 10
-106.087
 20
-104.5
 11
-105.784
 21
-103.567
  0
LINE
  8
0
 10
-105.784
 20
-103.567
 11
-104.991
 21
-102.99
  0
LINE
  8
0
 10
-104.991
 20
-102.99
 11
-104.009
 21
-102.99
  0
LINE
  8
0
 10
-104.009
 20
-102.99
 11
-103.216
 21
-103.567
  0
LINE
  8
0
 10
-103.216
 20
-103.567
 11
-102.912
 21
-104.5
  0
LINE
  8
0
 10
-102.912
 20
-104.5
 11
-103.216
 21
-105.433
  0
LINE
  8
0
 10
-103.216
 20
-105.433
 11
-104.009
 21
-106.01
  0
LINE
  8
0
 10
-104.009
 20
-106.01
 11
-104.991
 21
-106.01
  0
LINE
  8
0
 10
-104.991
 20
-106.01
 11
-105.784
 21
-105.433
  0
LINE
  8
0
 10
-105.784
 20
-105.433
 11
-106.087
 21
-104.5
  0
LINE
  8
0
 10
-106.087
 20
104.5
 11
-105.784
 21
105.433
  0
LINE
  8
0
 10
-105.784
 20
105.433
 11
-104.991
 21
106.01
  0
LINE
  8
0
 10
-104.991
 20
106.01
 11
-104.009
 21
106.01
  0
LINE
  8
0
 10
-104.009
 20
106.01
 11
-103.216
 21
105.433
  0
LINE
  8
0
 10
-103.216
 20
105.433
 11
-102.912
 21
104.5
  0
LINE
  8
0
 10
-102.912
 20
104.5
 11
-103.216
 21
103.567
  0
LINE
  8
0
 10
-103.216
 20
103.567
 11
-104.009
 21
102.99
  0
LINE
  8
0
 10
-104.009
 20
102.99
 11
-104.991
 21
102.99
  0
LINE
  8
0
 10
-104.991
 20
102.99
 11
-105.784
 21
103.567
  0
LINE
  8
0
 10
-105.784
 20
103.567
 11
-106.087
 21
104.5
  0
LINE
  8
0
 10
-1.5875
 20
0
 11
-1.28431
 21
0.933108
  0
LINE
  8
0
 10
-1.28431
 20
0.933108
 11
-0.490564
 21
1.5098
  0
LINE
  8
0
 10
-0.490564
 20
1.5098
 11
0.490564
 21
1.5098
  0
LINE
  8
0
 10
0.490564
 20
1.5098
 11
1.28431
 21
0.933108
  0
LINE
  8
0
 10
1.28431
 20
0.933108
 11
1.5875
 21
0
  0
LINE
  8
0
 10
1.5875
 20
0
 11
1.28431
 21
-0.933108
  0
LINE
  8
0
 10
1.28431
 20
-0.933108
 11
0.490564
 21
-1.5098
  0
LINE
  8
0
 10
0.490564
 20
-1.5098
 11
-0.490564
 21
-1.5098
  0
LINE
  8
0
 10
-0.490564
 20
-1.5098
 11
-1.28431
 21
-0.933108
  0
LINE
  8
0
 10
-1.28431
 20
-0.933108
 11
-1.5875
 21
0
  0
LINE
  8
0
 10
102.912
 20
-104.5
 11
103.216
 21
-103.567
  0
LINE
  8
0
 10
103.216
 20
-103.567
 11
104.009
 21
-102.99
  0
LINE
  8
0
 10
104.009
 20
-102.99
 11
104.991
 21
-102.99
  0
LINE
  8
0
 10
104.991
 20
-102.99
 11
105.784
 21
-103.567
  0
LINE
  8
0
 10
105.784
 20
-103.567
 11
106.087
 21
-104.5
  0
LINE
  8
0
 10
106.087
 20
-104.5
 11
105.784
 21
-105.433
  0
LINE
  8
0
 10
105.784
 20
-105.433
 11
104.991
 21
-106.01
  0
LINE
  8
0
 10
104.991
 20
-106.01
 11
104.009
 21
-106.01
  0
LINE
  8
0
 10
104.009
 20
-106.01
 11
103.216
 21
-105.433
  0
LINE
  8
0
 10
103.216
 20
-105.433
 11
102.912
 21
-104.5
  0
LINE
  8
0
 10
102.912
 20
104.5
 11
103.216
 21
105.433
  0
LINE
  8
0
 10
103.216
 20
105.433
 11
104.009
 21
106.01
  0
LINE
  8
0
 10
104.009
 20
106.01
 11
104.991
 21
106.01
  0
LINE
  8
0
 10
104.991
 20
106.01
 11
105.784
 21
105.433
  0
LINE
  8
0
 10
105.784
 20
105.433
 11
106.087
 21
104.5
  0
LINE
  8
0
 10
106.087
 20
104.5
 11
105.784
 21
103.567
  0
LINE
  8
0
 10
105.784
 20
103.567
 11
104.991
 21
102.99
  0
LINE
  8
0
 10
104.991
 20
102.99
 11
104.009
 21
102.99
  0
LINE
  8
0
 10
104.009
 20
102.99
 11
103.216
 21
103.567
  0
LINE
  8
0
 10
103.216
 20
103.567
 11
102.912
 21
104.5
  0
ENDSEC
  0
SECTION
  2
OBJECTS
  0
DICTIONARY
  0
ENDSEC
  0
EOF
