<?xml version="1.0" encoding="UTF-8" standalone="no"?>
<svg
   xmlns:dc="http://purl.org/dc/elements/1.1/"
   xmlns:cc="http://creativecommons.org/ns#"
   xmlns:rdf="http://www.w3.org/1999/02/22-rdf-syntax-ns#"
   xmlns:svg="http://www.w3.org/2000/svg"
   xmlns="http://www.w3.org/2000/svg"
   xmlns:sodipodi="http://sodipodi.sourceforge.net/DTD/sodipodi-0.dtd"
   xmlns:inkscape="http://www.inkscape.org/namespaces/inkscape"
   width="215.89999mm"
   height="330mm"
   viewBox="-35 -42 815.99999 1247.2441"
   version="1.1"
   id="svg6"
   sodipodi:docname="cut-sheet.svg"
   inkscape:version="0.92.2 2405546, 2018-03-11">
  <metadata
     id="metadata12">
    <rdf:RDF>
      <cc:Work
         rdf:about="">
        <dc:format>image/svg+xml</dc:format>
        <dc:type
           rdf:resource="http://purl.org/dc/dcmitype/StillImage" />
        <dc:title>OpenSCAD Model</dc:title>
      </cc:Work>
    </rdf:RDF>
  </metadata>
  <defs
     id="defs10" />
  <sodipodi:namedview
     pagecolor="#ffffff"
     bordercolor="#666666"
     borderopacity="1"
     objecttolerance="10"
     gridtolerance="10"
     guidetolerance="10"
     inkscape:pageopacity="0"
     inkscape:pageshadow="2"
     inkscape:window-width="1024"
     inkscape:window-height="577"
     id="namedview8"
     showgrid="false"
     inkscape:document-units="mm"
     units="mm"
     inkscape:showpageshadow="false"
     borderlayer="true"
     inkscape:zoom="0.35119048"
     inkscape:cx="615.68646"
     inkscape:cy="702.22205"
     inkscape:window-x="0"
     inkscape:window-y="23"
     inkscape:window-maximized="0"
     inkscape:current-layer="svg6" />
  <title
     id="title2">OpenSCAD Model</title>
  <path
     id="path4628"
     d="M 11.833182,907.34086 V 1170.0304 H 323.65657 V 907.34086 Z m 18.7846,12.8061 3.5055,1.1378 2.1667,2.9786 v 3.6821 l -2.1667,2.9785 -3.5055,1.1379 -3.5056,-1.1379 -2.1666,-2.9785 v -3.6821 l 2.1666,-2.9786 z m 274.254238,0 3.50557,1.1378 2.16661,2.9786 v 3.6821 l -2.16661,2.9785 -3.50557,1.1379 -3.50557,-1.1379 -2.16661,-2.9785 v -3.6821 l 2.16661,-2.9786 z m -137.12714,22.5163 3.5056,1.1378 2.1665,2.9785 v 3.6822 l -2.1665,2.9785 -3.5056,1.1378 -3.5056,-1.1378 -2.1666,-2.9785 v -3.6822 l 2.1666,-2.9785 z m -118.342598,2.2047 H 109.51278 V 1132.5033 H 49.402282 Z m 176.574648,0 h 60.11054 v 187.63534 h -60.11054 z m -58.23205,87.86024 3.5056,1.1378 2.1665,2.9787 v 3.6819 l -2.1665,2.9787 -3.5056,1.1378 -3.5056,-1.1378 -2.1666,-2.9787 v -3.6819 l 2.1666,-2.9787 z m 0,90.065 3.5056,1.1378 2.1665,2.9786 v 3.6821 l -2.1665,2.9785 -3.5056,1.1379 -3.5056,-1.1379 -2.1666,-2.9785 v -3.6821 l 2.1666,-2.9786 z m -137.127098,22.5163 3.5055,1.1378 2.1667,2.9785 v 3.6822 l -2.1667,2.9785 -3.5055,1.1378 -3.5056,-1.1378 -2.1666,-2.9785 v -3.6822 l 2.1666,-2.9785 z m 274.254238,0 3.50557,1.1378 2.16661,2.9785 v 3.6822 l -2.16661,2.9785 -3.50557,1.1378 -3.50557,-1.1378 -2.16661,-2.9785 v -3.6822 l 2.16661,-2.9785 z"
     style="fill:#000000;fill-opacity:0;stroke:#000000;stroke-width:0.28346455;stroke-miterlimit:4;stroke-dasharray:none"
     inkscape:connector-curvature="0" />
  <path
     inkscape:connector-curvature="0"
     style="fill:#000000;fill-opacity:0;stroke:#000000;stroke-width:0.28346455;stroke-miterlimit:4;stroke-dasharray:none"
     d="M 11.833182,907.34086 V 1170.0304 H 323.65657 V 907.34086 Z m 18.7846,12.8061 3.5055,1.1378 2.1667,2.9786 v 3.6821 l -2.1667,2.9785 -3.5055,1.1379 -3.5056,-1.1379 -2.1666,-2.9785 v -3.6821 l 2.1666,-2.9786 z m 274.254238,0 3.50557,1.1378 2.16661,2.9786 v 3.6821 l -2.16661,2.9785 -3.50557,1.1379 -3.50557,-1.1379 -2.16661,-2.9785 v -3.6821 l 2.16661,-2.9786 z m -137.12714,22.5163 3.5056,1.1378 2.1665,2.9785 v 3.6822 l -2.1665,2.9785 -3.5056,1.1378 -3.5056,-1.1378 -2.1666,-2.9785 v -3.6822 l 2.1666,-2.9785 z m -118.342598,2.2047 H 109.51278 V 1132.5033 H 49.402282 Z m 176.574648,0 h 60.11054 v 187.63534 h -60.11054 z m -58.23205,87.86024 3.5056,1.1378 2.1665,2.9787 v 3.6819 l -2.1665,2.9787 -3.5056,1.1378 -3.5056,-1.1378 -2.1666,-2.9787 v -3.6819 l 2.1666,-2.9787 z m 0,90.065 3.5056,1.1378 2.1665,2.9786 v 3.6821 l -2.1665,2.9785 -3.5056,1.1379 -3.5056,-1.1379 -2.1666,-2.9785 v -3.6821 l 2.1666,-2.9786 z m -137.127098,22.5163 3.5055,1.1378 2.1667,2.9785 v 3.6822 l -2.1667,2.9785 -3.5055,1.1378 -3.5056,-1.1378 -2.1666,-2.9785 v -3.6822 l 2.1666,-2.9785 z m 274.254238,0 3.50557,1.1378 2.16661,2.9785 v 3.6822 l -2.16661,2.9785 -3.50557,1.1378 -3.50557,-1.1378 -2.16661,-2.9785 v -3.6822 l 2.16661,-2.9785 z"
     id="path4630" />
  <path
     id="path4632"
     d="M 11.833182,907.34086 V 1170.0304 H 323.65657 V 907.34086 Z m 18.7846,12.8061 3.5055,1.1378 2.1667,2.9786 v 3.6821 l -2.1667,2.9785 -3.5055,1.1379 -3.5056,-1.1379 -2.1666,-2.9785 v -3.6821 l 2.1666,-2.9786 z m 274.254238,0 3.50557,1.1378 2.16661,2.9786 v 3.6821 l -2.16661,2.9785 -3.50557,1.1379 -3.50557,-1.1379 -2.16661,-2.9785 v -3.6821 l 2.16661,-2.9786 z m -137.12714,22.5163 3.5056,1.1378 2.1665,2.9785 v 3.6822 l -2.1665,2.9785 -3.5056,1.1378 -3.5056,-1.1378 -2.1666,-2.9785 v -3.6822 l 2.1666,-2.9785 z m -118.342598,2.2047 H 109.51278 V 1132.5033 H 49.402282 Z m 176.574648,0 h 60.11054 v 187.63534 h -60.11054 z m -58.23205,87.86024 3.5056,1.1378 2.1665,2.9787 v 3.6819 l -2.1665,2.9787 -3.5056,1.1378 -3.5056,-1.1378 -2.1666,-2.9787 v -3.6819 l 2.1666,-2.9787 z m 0,90.065 3.5056,1.1378 2.1665,2.9786 v 3.6821 l -2.1665,2.9785 -3.5056,1.1379 -3.5056,-1.1379 -2.1666,-2.9785 v -3.6821 l 2.1666,-2.9786 z m -137.127098,22.5163 3.5055,1.1378 2.1667,2.9785 v 3.6822 l -2.1667,2.9785 -3.5055,1.1378 -3.5056,-1.1378 -2.1666,-2.9785 v -3.6822 l 2.1666,-2.9785 z m 274.254238,0 3.50557,1.1378 2.16661,2.9785 v 3.6822 l -2.16661,2.9785 -3.50557,1.1378 -3.50557,-1.1378 -2.16661,-2.9785 v -3.6822 l 2.16661,-2.9785 z"
     style="fill:#000000;fill-opacity:0;stroke:#000000;stroke-width:0.28346455;stroke-miterlimit:4;stroke-dasharray:none"
     inkscape:connector-curvature="0" />
  <path
     inkscape:connector-curvature="0"
     style="fill:#e9afaf;fill-opacity:0;stroke:#000000;stroke-width:0.28346455;stroke-miterlimit:4;stroke-dasharray:none"
     d="M 11.833182,907.34086 V 1170.0304 H 323.65657 V 907.34086 Z m 18.7846,12.8061 3.5055,1.1378 2.1667,2.9786 v 3.6821 l -2.1667,2.9785 -3.5055,1.1379 -3.5056,-1.1379 -2.1666,-2.9785 v -3.6821 l 2.1666,-2.9786 z m 274.254238,0 3.50557,1.1378 2.16661,2.9786 v 3.6821 l -2.16661,2.9785 -3.50557,1.1379 -3.50557,-1.1379 -2.16661,-2.9785 v -3.6821 l 2.16661,-2.9786 z m -137.12714,22.5163 3.5056,1.1378 2.1665,2.9785 v 3.6822 l -2.1665,2.9785 -3.5056,1.1378 -3.5056,-1.1378 -2.1666,-2.9785 v -3.6822 l 2.1666,-2.9785 z m -118.342598,2.2047 H 109.51278 V 1132.5033 H 49.402282 Z m 176.574648,0 h 60.11054 v 187.63534 h -60.11054 z m -58.23205,87.86024 3.5056,1.1378 2.1665,2.9787 v 3.6819 l -2.1665,2.9787 -3.5056,1.1378 -3.5056,-1.1378 -2.1666,-2.9787 v -3.6819 l 2.1666,-2.9787 z m 0,90.065 3.5056,1.1378 2.1665,2.9786 v 3.6821 l -2.1665,2.9785 -3.5056,1.1379 -3.5056,-1.1379 -2.1666,-2.9785 v -3.6821 l 2.1666,-2.9786 z m -137.127098,22.5163 3.5055,1.1378 2.1667,2.9785 v 3.6822 l -2.1667,2.9785 -3.5055,1.1378 -3.5056,-1.1378 -2.1666,-2.9785 v -3.6822 l 2.1666,-2.9785 z m 274.254238,0 3.50557,1.1378 2.16661,2.9785 v 3.6822 l -2.16661,2.9785 -3.50557,1.1378 -3.50557,-1.1378 -2.16661,-2.9785 v -3.6822 l 2.16661,-2.9785 z"
     id="path4634" />
</svg>
