  0
SECTION
  2
BLOCKS
  0
ENDSEC
  0
SECTION
  2
ENTITIES
  0
LINE
  8
0
 10
-35
 20
-41.5
 11
35
 21
-41.5
  0
LINE
  8
0
 10
35
 20
-41.5
 11
35
 21
41.5
  0
LINE
  8
0
 10
35
 20
41.5
 11
-35
 21
41.5
  0
LINE
  8
0
 10
-35
 20
41.5
 11
-35
 21
-41.5
  0
LINE
  8
0
 10
-31.5875
 20
-36.5
 11
-31.2843
 21
-35.5669
  0
LINE
  8
0
 10
-31.2843
 20
-35.5669
 11
-30.4906
 21
-34.9902
  0
LINE
  8
0
 10
-30.4906
 20
-34.9902
 11
-29.5094
 21
-34.9902
  0
LINE
  8
0
 10
-29.5094
 20
-34.9902
 11
-28.7157
 21
-35.5669
  0
LINE
  8
0
 10
-28.7157
 20
-35.5669
 11
-28.4125
 21
-36.5
  0
LINE
  8
0
 10
-28.4125
 20
-36.5
 11
-28.7157
 21
-37.4331
  0
LINE
  8
0
 10
-28.7157
 20
-37.4331
 11
-29.5094
 21
-38.0098
  0
LINE
  8
0
 10
-29.5094
 20
-38.0098
 11
-30.4906
 21
-38.0098
  0
LINE
  8
0
 10
-30.4906
 20
-38.0098
 11
-31.2843
 21
-37.4331
  0
LINE
  8
0
 10
-31.2843
 20
-37.4331
 11
-31.5875
 21
-36.5
  0
LINE
  8
0
 10
-31.5875
 20
36.5
 11
-31.2843
 21
37.4331
  0
LINE
  8
0
 10
-31.2843
 20
37.4331
 11
-30.4906
 21
38.0098
  0
LINE
  8
0
 10
-30.4906
 20
38.0098
 11
-29.5094
 21
38.0098
  0
LINE
  8
0
 10
-29.5094
 20
38.0098
 11
-28.7157
 21
37.4331
  0
LINE
  8
0
 10
-28.7157
 20
37.4331
 11
-28.4125
 21
36.5
  0
LINE
  8
0
 10
-28.4125
 20
36.5
 11
-28.7157
 21
35.5669
  0
LINE
  8
0
 10
-28.7157
 20
35.5669
 11
-29.5094
 21
34.9902
  0
LINE
  8
0
 10
-29.5094
 20
34.9902
 11
-30.4906
 21
34.9902
  0
LINE
  8
0
 10
-30.4906
 20
34.9902
 11
-31.2843
 21
35.5669
  0
LINE
  8
0
 10
-31.2843
 20
35.5669
 11
-31.5875
 21
36.5
  0
LINE
  8
0
 10
-25.5875
 20
0
 11
-25.2843
 21
0.933108
  0
LINE
  8
0
 10
-25.2843
 20
0.933108
 11
-24.4906
 21
1.5098
  0
LINE
  8
0
 10
-24.4906
 20
1.5098
 11
-23.5094
 21
1.5098
  0
LINE
  8
0
 10
-23.5094
 20
1.5098
 11
-22.7157
 21
0.933108
  0
LINE
  8
0
 10
-22.7157
 20
0.933108
 11
-22.4125
 21
0
  0
LINE
  8
0
 10
-22.4125
 20
0
 11
-22.7157
 21
-0.933108
  0
LINE
  8
0
 10
-22.7157
 20
-0.933108
 11
-23.5094
 21
-1.5098
  0
LINE
  8
0
 10
-23.5094
 20
-1.5098
 11
-24.4906
 21
-1.5098
  0
LINE
  8
0
 10
-24.4906
 20
-1.5098
 11
-25.2843
 21
-0.933108
  0
LINE
  8
0
 10
-25.2843
 20
-0.933108
 11
-25.5875
 21
0
  0
LINE
  8
0
 10
-25
 20
-31.5
 11
-25
 21
-15.5
  0
LINE
  8
0
 10
-25
 20
-15.5
 11
25
 21
-15.5
  0
LINE
  8
0
 10
25
 20
-15.5
 11
25
 21
-31.5
  0
LINE
  8
0
 10
25
 20
-31.5
 11
-25
 21
-31.5
  0
LINE
  8
0
 10
-25
 20
15.5
 11
-25
 21
31.5
  0
LINE
  8
0
 10
-25
 20
31.5
 11
25
 21
31.5
  0
LINE
  8
0
 10
25
 20
31.5
 11
25
 21
15.5
  0
LINE
  8
0
 10
25
 20
15.5
 11
-25
 21
15.5
  0
LINE
  8
0
 10
-1.5875
 20
0
 11
-1.28431
 21
0.933108
  0
LINE
  8
0
 10
-1.28431
 20
0.933108
 11
-0.490564
 21
1.5098
  0
LINE
  8
0
 10
-0.490564
 20
1.5098
 11
0.490564
 21
1.5098
  0
LINE
  8
0
 10
0.490564
 20
1.5098
 11
1.28431
 21
0.933108
  0
LINE
  8
0
 10
1.28431
 20
0.933108
 11
1.5875
 21
0
  0
LINE
  8
0
 10
1.5875
 20
0
 11
1.28431
 21
-0.933108
  0
LINE
  8
0
 10
1.28431
 20
-0.933108
 11
0.490564
 21
-1.5098
  0
LINE
  8
0
 10
0.490564
 20
-1.5098
 11
-0.490564
 21
-1.5098
  0
LINE
  8
0
 10
-0.490564
 20
-1.5098
 11
-1.28431
 21
-0.933108
  0
LINE
  8
0
 10
-1.28431
 20
-0.933108
 11
-1.5875
 21
0
  0
LINE
  8
0
 10
22.4125
 20
0
 11
22.7157
 21
0.933108
  0
LINE
  8
0
 10
22.7157
 20
0.933108
 11
23.5094
 21
1.5098
  0
LINE
  8
0
 10
23.5094
 20
1.5098
 11
24.4906
 21
1.5098
  0
LINE
  8
0
 10
24.4906
 20
1.5098
 11
25.2843
 21
0.933108
  0
LINE
  8
0
 10
25.2843
 20
0.933108
 11
25.5875
 21
0
  0
LINE
  8
0
 10
25.5875
 20
0
 11
25.2843
 21
-0.933108
  0
LINE
  8
0
 10
25.2843
 20
-0.933108
 11
24.4906
 21
-1.5098
  0
LINE
  8
0
 10
24.4906
 20
-1.5098
 11
23.5094
 21
-1.5098
  0
LINE
  8
0
 10
23.5094
 20
-1.5098
 11
22.7157
 21
-0.933108
  0
LINE
  8
0
 10
22.7157
 20
-0.933108
 11
22.4125
 21
0
  0
LINE
  8
0
 10
28.4125
 20
-36.5
 11
28.7157
 21
-35.5669
  0
LINE
  8
0
 10
28.7157
 20
-35.5669
 11
29.5094
 21
-34.9902
  0
LINE
  8
0
 10
29.5094
 20
-34.9902
 11
30.4906
 21
-34.9902
  0
LINE
  8
0
 10
30.4906
 20
-34.9902
 11
31.2843
 21
-35.5669
  0
LINE
  8
0
 10
31.2843
 20
-35.5669
 11
31.5875
 21
-36.5
  0
LINE
  8
0
 10
31.5875
 20
-36.5
 11
31.2843
 21
-37.4331
  0
LINE
  8
0
 10
31.2843
 20
-37.4331
 11
30.4906
 21
-38.0098
  0
LINE
  8
0
 10
30.4906
 20
-38.0098
 11
29.5094
 21
-38.0098
  0
LINE
  8
0
 10
29.5094
 20
-38.0098
 11
28.7157
 21
-37.4331
  0
LINE
  8
0
 10
28.7157
 20
-37.4331
 11
28.4125
 21
-36.5
  0
LINE
  8
0
 10
28.4125
 20
36.5
 11
28.7157
 21
37.4331
  0
LINE
  8
0
 10
28.7157
 20
37.4331
 11
29.5094
 21
38.0098
  0
LINE
  8
0
 10
29.5094
 20
38.0098
 11
30.4906
 21
38.0098
  0
LINE
  8
0
 10
30.4906
 20
38.0098
 11
31.2843
 21
37.4331
  0
LINE
  8
0
 10
31.2843
 20
37.4331
 11
31.5875
 21
36.5
  0
LINE
  8
0
 10
31.5875
 20
36.5
 11
31.2843
 21
35.5669
  0
LINE
  8
0
 10
31.2843
 20
35.5669
 11
30.4906
 21
34.9902
  0
LINE
  8
0
 10
30.4906
 20
34.9902
 11
29.5094
 21
34.9902
  0
LINE
  8
0
 10
29.5094
 20
34.9902
 11
28.7157
 21
35.5669
  0
LINE
  8
0
 10
28.7157
 20
35.5669
 11
28.4125
 21
36.5
  0
ENDSEC
  0
SECTION
  2
OBJECTS
  0
DICTIONARY
  0
ENDSEC
  0
EOF
