  0
SECTION
  2
BLOCKS
  0
ENDSEC
  0
SECTION
  2
ENTITIES
  0
LINE
  8
0
 10
-35
 20
-41.5
 11
35
 21
-41.5
  0
LINE
  8
0
 10
35
 20
-41.5
 11
35
 21
41.5
  0
LINE
  8
0
 10
35
 20
41.5
 11
-35
 21
41.5
  0
LINE
  8
0
 10
-35
 20
41.5
 11
-35
 21
-41.5
  0
LINE
  8
0
 10
-30.1984
 20
-36.5
 11
-30.1605
 21
-36.3834
  0
LINE
  8
0
 10
-30.1605
 20
-36.3834
 11
-30.0613
 21
-36.3113
  0
LINE
  8
0
 10
-30.0613
 20
-36.3113
 11
-29.9387
 21
-36.3113
  0
LINE
  8
0
 10
-29.9387
 20
-36.3113
 11
-29.8395
 21
-36.3834
  0
LINE
  8
0
 10
-29.8395
 20
-36.3834
 11
-29.8016
 21
-36.5
  0
LINE
  8
0
 10
-29.8016
 20
-36.5
 11
-29.8395
 21
-36.6166
  0
LINE
  8
0
 10
-29.8395
 20
-36.6166
 11
-29.9387
 21
-36.6887
  0
LINE
  8
0
 10
-29.9387
 20
-36.6887
 11
-30.0613
 21
-36.6887
  0
LINE
  8
0
 10
-30.0613
 20
-36.6887
 11
-30.1605
 21
-36.6166
  0
LINE
  8
0
 10
-30.1605
 20
-36.6166
 11
-30.1984
 21
-36.5
  0
LINE
  8
0
 10
-30.1984
 20
36.5
 11
-30.1605
 21
36.6166
  0
LINE
  8
0
 10
-30.1605
 20
36.6166
 11
-30.0613
 21
36.6887
  0
LINE
  8
0
 10
-30.0613
 20
36.6887
 11
-29.9387
 21
36.6887
  0
LINE
  8
0
 10
-29.9387
 20
36.6887
 11
-29.8395
 21
36.6166
  0
LINE
  8
0
 10
-29.8395
 20
36.6166
 11
-29.8016
 21
36.5
  0
LINE
  8
0
 10
-29.8016
 20
36.5
 11
-29.8395
 21
36.3834
  0
LINE
  8
0
 10
-29.8395
 20
36.3834
 11
-29.9387
 21
36.3113
  0
LINE
  8
0
 10
-29.9387
 20
36.3113
 11
-30.0613
 21
36.3113
  0
LINE
  8
0
 10
-30.0613
 20
36.3113
 11
-30.1605
 21
36.3834
  0
LINE
  8
0
 10
-30.1605
 20
36.3834
 11
-30.1984
 21
36.5
  0
LINE
  8
0
 10
-25
 20
-31.5
 11
-25
 21
-15.5
  0
LINE
  8
0
 10
-25
 20
-15.5
 11
25
 21
-15.5
  0
LINE
  8
0
 10
25
 20
-15.5
 11
25
 21
-31.5
  0
LINE
  8
0
 10
25
 20
-31.5
 11
-25
 21
-31.5
  0
LINE
  8
0
 10
-25
 20
15.5
 11
-25
 21
31.5
  0
LINE
  8
0
 10
-25
 20
31.5
 11
25
 21
31.5
  0
LINE
  8
0
 10
25
 20
31.5
 11
25
 21
15.5
  0
LINE
  8
0
 10
25
 20
15.5
 11
-25
 21
15.5
  0
LINE
  8
0
 10
-24.1984
 20
0
 11
-24.1605
 21
0.116638
  0
LINE
  8
0
 10
-24.1605
 20
0.116638
 11
-24.0613
 21
0.188725
  0
LINE
  8
0
 10
-24.0613
 20
0.188725
 11
-23.9387
 21
0.188725
  0
LINE
  8
0
 10
-23.9387
 20
0.188725
 11
-23.8395
 21
0.116638
  0
LINE
  8
0
 10
-23.8395
 20
0.116638
 11
-23.8016
 21
0
  0
LINE
  8
0
 10
-23.8016
 20
0
 11
-23.8395
 21
-0.116638
  0
LINE
  8
0
 10
-23.8395
 20
-0.116638
 11
-23.9387
 21
-0.188725
  0
LINE
  8
0
 10
-23.9387
 20
-0.188725
 11
-24.0613
 21
-0.188725
  0
LINE
  8
0
 10
-24.0613
 20
-0.188725
 11
-24.1605
 21
-0.116638
  0
LINE
  8
0
 10
-24.1605
 20
-0.116638
 11
-24.1984
 21
0
  0
LINE
  8
0
 10
-12.6984
 20
-36.5
 11
-12.6605
 21
-36.3834
  0
LINE
  8
0
 10
-12.6605
 20
-36.3834
 11
-12.5613
 21
-36.3113
  0
LINE
  8
0
 10
-12.5613
 20
-36.3113
 11
-12.4387
 21
-36.3113
  0
LINE
  8
0
 10
-12.4387
 20
-36.3113
 11
-12.3395
 21
-36.3834
  0
LINE
  8
0
 10
-12.3395
 20
-36.3834
 11
-12.3016
 21
-36.5
  0
LINE
  8
0
 10
-12.3016
 20
-36.5
 11
-12.3395
 21
-36.6166
  0
LINE
  8
0
 10
-12.3395
 20
-36.6166
 11
-12.4387
 21
-36.6887
  0
LINE
  8
0
 10
-12.4387
 20
-36.6887
 11
-12.5613
 21
-36.6887
  0
LINE
  8
0
 10
-12.5613
 20
-36.6887
 11
-12.6605
 21
-36.6166
  0
LINE
  8
0
 10
-12.6605
 20
-36.6166
 11
-12.6984
 21
-36.5
  0
LINE
  8
0
 10
-12.6984
 20
-10.5
 11
-12.6605
 21
-10.3834
  0
LINE
  8
0
 10
-12.6605
 20
-10.3834
 11
-12.5613
 21
-10.3113
  0
LINE
  8
0
 10
-12.5613
 20
-10.3113
 11
-12.4387
 21
-10.3113
  0
LINE
  8
0
 10
-12.4387
 20
-10.3113
 11
-12.3395
 21
-10.3834
  0
LINE
  8
0
 10
-12.3395
 20
-10.3834
 11
-12.3016
 21
-10.5
  0
LINE
  8
0
 10
-12.3016
 20
-10.5
 11
-12.3395
 21
-10.6166
  0
LINE
  8
0
 10
-12.3395
 20
-10.6166
 11
-12.4387
 21
-10.6887
  0
LINE
  8
0
 10
-12.4387
 20
-10.6887
 11
-12.5613
 21
-10.6887
  0
LINE
  8
0
 10
-12.5613
 20
-10.6887
 11
-12.6605
 21
-10.6166
  0
LINE
  8
0
 10
-12.6605
 20
-10.6166
 11
-12.6984
 21
-10.5
  0
LINE
  8
0
 10
-12.6984
 20
10.5
 11
-12.6605
 21
10.6166
  0
LINE
  8
0
 10
-12.6605
 20
10.6166
 11
-12.5613
 21
10.6887
  0
LINE
  8
0
 10
-12.5613
 20
10.6887
 11
-12.4387
 21
10.6887
  0
LINE
  8
0
 10
-12.4387
 20
10.6887
 11
-12.3395
 21
10.6166
  0
LINE
  8
0
 10
-12.3395
 20
10.6166
 11
-12.3016
 21
10.5
  0
LINE
  8
0
 10
-12.3016
 20
10.5
 11
-12.3395
 21
10.3834
  0
LINE
  8
0
 10
-12.3395
 20
10.3834
 11
-12.4387
 21
10.3113
  0
LINE
  8
0
 10
-12.4387
 20
10.3113
 11
-12.5613
 21
10.3113
  0
LINE
  8
0
 10
-12.5613
 20
10.3113
 11
-12.6605
 21
10.3834
  0
LINE
  8
0
 10
-12.6605
 20
10.3834
 11
-12.6984
 21
10.5
  0
LINE
  8
0
 10
-12.6984
 20
36.5
 11
-12.6605
 21
36.6166
  0
LINE
  8
0
 10
-12.6605
 20
36.6166
 11
-12.5613
 21
36.6887
  0
LINE
  8
0
 10
-12.5613
 20
36.6887
 11
-12.4387
 21
36.6887
  0
LINE
  8
0
 10
-12.4387
 20
36.6887
 11
-12.3395
 21
36.6166
  0
LINE
  8
0
 10
-12.3395
 20
36.6166
 11
-12.3016
 21
36.5
  0
LINE
  8
0
 10
-12.3016
 20
36.5
 11
-12.3395
 21
36.3834
  0
LINE
  8
0
 10
-12.3395
 20
36.3834
 11
-12.4387
 21
36.3113
  0
LINE
  8
0
 10
-12.4387
 20
36.3113
 11
-12.5613
 21
36.3113
  0
LINE
  8
0
 10
-12.5613
 20
36.3113
 11
-12.6605
 21
36.3834
  0
LINE
  8
0
 10
-12.6605
 20
36.3834
 11
-12.6984
 21
36.5
  0
LINE
  8
0
 10
-0.198437
 20
0
 11
-0.160539
 21
0.116638
  0
LINE
  8
0
 10
-0.160539
 20
0.116638
 11
-0.0613203
 21
0.188725
  0
LINE
  8
0
 10
-0.0613203
 20
0.188725
 11
0.0613203
 21
0.188725
  0
LINE
  8
0
 10
0.0613203
 20
0.188725
 11
0.160539
 21
0.116638
  0
LINE
  8
0
 10
0.160539
 20
0.116638
 11
0.198437
 21
0
  0
LINE
  8
0
 10
0.198437
 20
0
 11
0.160539
 21
-0.116638
  0
LINE
  8
0
 10
0.160539
 20
-0.116638
 11
0.0613203
 21
-0.188725
  0
LINE
  8
0
 10
0.0613203
 20
-0.188725
 11
-0.0613203
 21
-0.188725
  0
LINE
  8
0
 10
-0.0613203
 20
-0.188725
 11
-0.160539
 21
-0.116638
  0
LINE
  8
0
 10
-0.160539
 20
-0.116638
 11
-0.198437
 21
0
  0
LINE
  8
0
 10
12.3016
 20
-36.5
 11
12.3395
 21
-36.3834
  0
LINE
  8
0
 10
12.3395
 20
-36.3834
 11
12.4387
 21
-36.3113
  0
LINE
  8
0
 10
12.4387
 20
-36.3113
 11
12.5613
 21
-36.3113
  0
LINE
  8
0
 10
12.5613
 20
-36.3113
 11
12.6605
 21
-36.3834
  0
LINE
  8
0
 10
12.6605
 20
-36.3834
 11
12.6984
 21
-36.5
  0
LINE
  8
0
 10
12.6984
 20
-36.5
 11
12.6605
 21
-36.6166
  0
LINE
  8
0
 10
12.6605
 20
-36.6166
 11
12.5613
 21
-36.6887
  0
LINE
  8
0
 10
12.5613
 20
-36.6887
 11
12.4387
 21
-36.6887
  0
LINE
  8
0
 10
12.4387
 20
-36.6887
 11
12.3395
 21
-36.6166
  0
LINE
  8
0
 10
12.3395
 20
-36.6166
 11
12.3016
 21
-36.5
  0
LINE
  8
0
 10
12.3016
 20
-10.5
 11
12.3395
 21
-10.3834
  0
LINE
  8
0
 10
12.3395
 20
-10.3834
 11
12.4387
 21
-10.3113
  0
LINE
  8
0
 10
12.4387
 20
-10.3113
 11
12.5613
 21
-10.3113
  0
LINE
  8
0
 10
12.5613
 20
-10.3113
 11
12.6605
 21
-10.3834
  0
LINE
  8
0
 10
12.6605
 20
-10.3834
 11
12.6984
 21
-10.5
  0
LINE
  8
0
 10
12.6984
 20
-10.5
 11
12.6605
 21
-10.6166
  0
LINE
  8
0
 10
12.6605
 20
-10.6166
 11
12.5613
 21
-10.6887
  0
LINE
  8
0
 10
12.5613
 20
-10.6887
 11
12.4387
 21
-10.6887
  0
LINE
  8
0
 10
12.4387
 20
-10.6887
 11
12.3395
 21
-10.6166
  0
LINE
  8
0
 10
12.3395
 20
-10.6166
 11
12.3016
 21
-10.5
  0
LINE
  8
0
 10
12.3016
 20
10.5
 11
12.3395
 21
10.6166
  0
LINE
  8
0
 10
12.3395
 20
10.6166
 11
12.4387
 21
10.6887
  0
LINE
  8
0
 10
12.4387
 20
10.6887
 11
12.5613
 21
10.6887
  0
LINE
  8
0
 10
12.5613
 20
10.6887
 11
12.6605
 21
10.6166
  0
LINE
  8
0
 10
12.6605
 20
10.6166
 11
12.6984
 21
10.5
  0
LINE
  8
0
 10
12.6984
 20
10.5
 11
12.6605
 21
10.3834
  0
LINE
  8
0
 10
12.6605
 20
10.3834
 11
12.5613
 21
10.3113
  0
LINE
  8
0
 10
12.5613
 20
10.3113
 11
12.4387
 21
10.3113
  0
LINE
  8
0
 10
12.4387
 20
10.3113
 11
12.3395
 21
10.3834
  0
LINE
  8
0
 10
12.3395
 20
10.3834
 11
12.3016
 21
10.5
  0
LINE
  8
0
 10
12.3016
 20
36.5
 11
12.3395
 21
36.6166
  0
LINE
  8
0
 10
12.3395
 20
36.6166
 11
12.4387
 21
36.6887
  0
LINE
  8
0
 10
12.4387
 20
36.6887
 11
12.5613
 21
36.6887
  0
LINE
  8
0
 10
12.5613
 20
36.6887
 11
12.6605
 21
36.6166
  0
LINE
  8
0
 10
12.6605
 20
36.6166
 11
12.6984
 21
36.5
  0
LINE
  8
0
 10
12.6984
 20
36.5
 11
12.6605
 21
36.3834
  0
LINE
  8
0
 10
12.6605
 20
36.3834
 11
12.5613
 21
36.3113
  0
LINE
  8
0
 10
12.5613
 20
36.3113
 11
12.4387
 21
36.3113
  0
LINE
  8
0
 10
12.4387
 20
36.3113
 11
12.3395
 21
36.3834
  0
LINE
  8
0
 10
12.3395
 20
36.3834
 11
12.3016
 21
36.5
  0
LINE
  8
0
 10
23.8016
 20
0
 11
23.8395
 21
0.116638
  0
LINE
  8
0
 10
23.8395
 20
0.116638
 11
23.9387
 21
0.188725
  0
LINE
  8
0
 10
23.9387
 20
0.188725
 11
24.0613
 21
0.188725
  0
LINE
  8
0
 10
24.0613
 20
0.188725
 11
24.1605
 21
0.116638
  0
LINE
  8
0
 10
24.1605
 20
0.116638
 11
24.1984
 21
0
  0
LINE
  8
0
 10
24.1984
 20
0
 11
24.1605
 21
-0.116638
  0
LINE
  8
0
 10
24.1605
 20
-0.116638
 11
24.0613
 21
-0.188725
  0
LINE
  8
0
 10
24.0613
 20
-0.188725
 11
23.9387
 21
-0.188725
  0
LINE
  8
0
 10
23.9387
 20
-0.188725
 11
23.8395
 21
-0.116638
  0
LINE
  8
0
 10
23.8395
 20
-0.116638
 11
23.8016
 21
0
  0
LINE
  8
0
 10
29.8016
 20
-36.5
 11
29.8395
 21
-36.3834
  0
LINE
  8
0
 10
29.8395
 20
-36.3834
 11
29.9387
 21
-36.3113
  0
LINE
  8
0
 10
29.9387
 20
-36.3113
 11
30.0613
 21
-36.3113
  0
LINE
  8
0
 10
30.0613
 20
-36.3113
 11
30.1605
 21
-36.3834
  0
LINE
  8
0
 10
30.1605
 20
-36.3834
 11
30.1984
 21
-36.5
  0
LINE
  8
0
 10
30.1984
 20
-36.5
 11
30.1605
 21
-36.6166
  0
LINE
  8
0
 10
30.1605
 20
-36.6166
 11
30.0613
 21
-36.6887
  0
LINE
  8
0
 10
30.0613
 20
-36.6887
 11
29.9387
 21
-36.6887
  0
LINE
  8
0
 10
29.9387
 20
-36.6887
 11
29.8395
 21
-36.6166
  0
LINE
  8
0
 10
29.8395
 20
-36.6166
 11
29.8016
 21
-36.5
  0
LINE
  8
0
 10
29.8016
 20
36.5
 11
29.8395
 21
36.6166
  0
LINE
  8
0
 10
29.8395
 20
36.6166
 11
29.9387
 21
36.6887
  0
LINE
  8
0
 10
29.9387
 20
36.6887
 11
30.0613
 21
36.6887
  0
LINE
  8
0
 10
30.0613
 20
36.6887
 11
30.1605
 21
36.6166
  0
LINE
  8
0
 10
30.1605
 20
36.6166
 11
30.1984
 21
36.5
  0
LINE
  8
0
 10
30.1984
 20
36.5
 11
30.1605
 21
36.3834
  0
LINE
  8
0
 10
30.1605
 20
36.3834
 11
30.0613
 21
36.3113
  0
LINE
  8
0
 10
30.0613
 20
36.3113
 11
29.9387
 21
36.3113
  0
LINE
  8
0
 10
29.9387
 20
36.3113
 11
29.8395
 21
36.3834
  0
LINE
  8
0
 10
29.8395
 20
36.3834
 11
29.8016
 21
36.5
  0
ENDSEC
  0
SECTION
  2
OBJECTS
  0
DICTIONARY
  0
ENDSEC
  0
EOF
